G04 EAGLE Gerber RS-274X export*
G75*
%MOMM*%
%FSLAX34Y34*%
%LPD*%
%INBottom Copper*%
%IPPOS*%
%AMOC8*
5,1,8,0,0,1.08239X$1,22.5*%
G01*
%ADD10R,2.400000X2.000000*%
%ADD11R,2.308000X0.500000*%
%ADD12R,1.270000X2.540000*%
%ADD13R,2.540000X1.270000*%
%ADD14C,0.381000*%
%ADD15C,0.756400*%
%ADD16C,0.856400*%
%ADD17C,0.152400*%

G36*
X122210Y51574D02*
X122210Y51574D01*
X122282Y51576D01*
X122331Y51594D01*
X122382Y51602D01*
X122445Y51636D01*
X122513Y51661D01*
X122553Y51693D01*
X122599Y51718D01*
X122649Y51770D01*
X122705Y51814D01*
X122733Y51858D01*
X122769Y51896D01*
X122799Y51961D01*
X122838Y52021D01*
X122850Y52072D01*
X122872Y52119D01*
X122880Y52190D01*
X122898Y52260D01*
X122894Y52312D01*
X122899Y52363D01*
X122884Y52434D01*
X122879Y52505D01*
X122858Y52553D01*
X122847Y52604D01*
X122810Y52665D01*
X122782Y52731D01*
X122738Y52787D01*
X122721Y52815D01*
X122703Y52830D01*
X122677Y52862D01*
X113385Y62155D01*
X109491Y66049D01*
X107441Y70997D01*
X107441Y94103D01*
X109491Y99051D01*
X199653Y189213D01*
X204354Y191161D01*
X204371Y191171D01*
X204390Y191177D01*
X204475Y191236D01*
X204563Y191290D01*
X204576Y191306D01*
X204593Y191317D01*
X204654Y191400D01*
X204720Y191480D01*
X204727Y191498D01*
X204739Y191514D01*
X204771Y191613D01*
X204808Y191709D01*
X204809Y191729D01*
X204815Y191748D01*
X204814Y191851D01*
X204819Y191955D01*
X204813Y191974D01*
X204813Y191994D01*
X204766Y192155D01*
X204180Y193571D01*
X204180Y200129D01*
X206689Y206187D01*
X211326Y210823D01*
X217384Y213333D01*
X217791Y213333D01*
X217881Y213347D01*
X217972Y213355D01*
X218002Y213367D01*
X218033Y213372D01*
X218114Y213415D01*
X218198Y213451D01*
X218230Y213477D01*
X218251Y213488D01*
X218273Y213511D01*
X218329Y213556D01*
X242057Y237283D01*
X242110Y237357D01*
X242169Y237427D01*
X242182Y237457D01*
X242200Y237483D01*
X242227Y237570D01*
X242261Y237655D01*
X242266Y237696D01*
X242273Y237718D01*
X242272Y237750D01*
X242280Y237822D01*
X242280Y238229D01*
X244789Y244287D01*
X249426Y248923D01*
X255484Y251433D01*
X262041Y251433D01*
X268099Y248923D01*
X272736Y244287D01*
X275245Y238229D01*
X275245Y231671D01*
X272736Y225613D01*
X268099Y220977D01*
X262041Y218467D01*
X261634Y218467D01*
X261544Y218453D01*
X261453Y218445D01*
X261423Y218433D01*
X261392Y218428D01*
X261311Y218385D01*
X261227Y218349D01*
X261195Y218323D01*
X261174Y218312D01*
X261152Y218289D01*
X261096Y218244D01*
X237368Y194517D01*
X237315Y194443D01*
X237256Y194373D01*
X237243Y194343D01*
X237225Y194317D01*
X237198Y194230D01*
X237164Y194145D01*
X237159Y194104D01*
X237152Y194082D01*
X237153Y194050D01*
X237145Y193978D01*
X237145Y193571D01*
X236625Y192315D01*
X236614Y192271D01*
X236595Y192229D01*
X236587Y192152D01*
X236569Y192076D01*
X236573Y192030D01*
X236568Y191985D01*
X236585Y191908D01*
X236592Y191831D01*
X236611Y191789D01*
X236620Y191744D01*
X236660Y191677D01*
X236692Y191606D01*
X236723Y191572D01*
X236746Y191533D01*
X236806Y191482D01*
X236858Y191425D01*
X236898Y191403D01*
X236933Y191373D01*
X237006Y191344D01*
X237074Y191307D01*
X237119Y191298D01*
X237162Y191281D01*
X237297Y191266D01*
X237316Y191263D01*
X237321Y191264D01*
X237328Y191263D01*
X305597Y191263D01*
X305642Y191270D01*
X305688Y191268D01*
X305763Y191290D01*
X305840Y191302D01*
X305880Y191324D01*
X305924Y191337D01*
X305988Y191381D01*
X306057Y191418D01*
X306089Y191451D01*
X306126Y191477D01*
X306173Y191539D01*
X306226Y191596D01*
X306246Y191638D01*
X306273Y191674D01*
X306297Y191748D01*
X306330Y191819D01*
X306335Y191865D01*
X306349Y191908D01*
X306348Y191986D01*
X306357Y192063D01*
X306347Y192108D01*
X306347Y192154D01*
X306309Y192286D01*
X306305Y192304D01*
X306302Y192308D01*
X306300Y192315D01*
X305780Y193571D01*
X305780Y200129D01*
X308289Y206187D01*
X312926Y210823D01*
X318984Y213333D01*
X319391Y213333D01*
X319481Y213347D01*
X319572Y213355D01*
X319602Y213367D01*
X319633Y213372D01*
X319714Y213415D01*
X319798Y213451D01*
X319830Y213477D01*
X319851Y213488D01*
X319873Y213511D01*
X319929Y213556D01*
X343657Y237283D01*
X343710Y237357D01*
X343769Y237427D01*
X343782Y237457D01*
X343800Y237483D01*
X343827Y237570D01*
X343861Y237655D01*
X343866Y237696D01*
X343873Y237718D01*
X343872Y237750D01*
X343880Y237822D01*
X343880Y238229D01*
X346389Y244287D01*
X351026Y248923D01*
X357084Y251433D01*
X363641Y251433D01*
X369699Y248923D01*
X374336Y244287D01*
X376845Y238229D01*
X376845Y231671D01*
X374336Y225613D01*
X369699Y220977D01*
X363641Y218467D01*
X363234Y218467D01*
X363144Y218453D01*
X363053Y218445D01*
X363023Y218433D01*
X362992Y218428D01*
X362911Y218385D01*
X362827Y218349D01*
X362795Y218323D01*
X362774Y218312D01*
X362752Y218289D01*
X362696Y218244D01*
X361652Y217200D01*
X361610Y217142D01*
X361561Y217090D01*
X361539Y217043D01*
X361508Y217001D01*
X361487Y216932D01*
X361457Y216867D01*
X361451Y216815D01*
X361436Y216765D01*
X361438Y216694D01*
X361430Y216623D01*
X361441Y216572D01*
X361442Y216520D01*
X361467Y216452D01*
X361482Y216382D01*
X361509Y216337D01*
X361527Y216289D01*
X361572Y216233D01*
X361608Y216171D01*
X361648Y216137D01*
X361681Y216097D01*
X361741Y216058D01*
X361795Y216011D01*
X361844Y215992D01*
X361887Y215964D01*
X361957Y215946D01*
X362023Y215919D01*
X362095Y215911D01*
X362126Y215903D01*
X362149Y215905D01*
X362190Y215901D01*
X377176Y215901D01*
X381844Y213967D01*
X385417Y210394D01*
X387351Y205726D01*
X387351Y200152D01*
X387354Y200132D01*
X387352Y200113D01*
X387374Y200011D01*
X387390Y199909D01*
X387400Y199892D01*
X387404Y199872D01*
X387457Y199783D01*
X387506Y199692D01*
X387520Y199678D01*
X387530Y199661D01*
X387609Y199594D01*
X387684Y199522D01*
X387702Y199514D01*
X387717Y199501D01*
X387813Y199462D01*
X387907Y199419D01*
X387927Y199417D01*
X387945Y199409D01*
X388112Y199391D01*
X392177Y199391D01*
X392177Y191262D01*
X392180Y191242D01*
X392178Y191223D01*
X392200Y191121D01*
X392217Y191019D01*
X392226Y191002D01*
X392230Y190982D01*
X392283Y190893D01*
X392332Y190802D01*
X392346Y190788D01*
X392356Y190771D01*
X392435Y190704D01*
X392510Y190633D01*
X392528Y190624D01*
X392543Y190611D01*
X392639Y190572D01*
X392733Y190529D01*
X392753Y190527D01*
X392771Y190519D01*
X392938Y190501D01*
X394462Y190501D01*
X394482Y190504D01*
X394501Y190502D01*
X394603Y190524D01*
X394705Y190541D01*
X394722Y190550D01*
X394742Y190554D01*
X394831Y190607D01*
X394922Y190656D01*
X394936Y190670D01*
X394953Y190680D01*
X395020Y190759D01*
X395091Y190834D01*
X395100Y190852D01*
X395113Y190867D01*
X395152Y190963D01*
X395195Y191057D01*
X395197Y191077D01*
X395205Y191095D01*
X395223Y191262D01*
X395223Y199391D01*
X406734Y199391D01*
X407381Y199218D01*
X407960Y198883D01*
X408433Y198410D01*
X408768Y197831D01*
X408941Y197184D01*
X408941Y192023D01*
X402728Y192023D01*
X402632Y192007D01*
X402535Y191998D01*
X402511Y191988D01*
X402485Y191983D01*
X402399Y191938D01*
X402310Y191898D01*
X402291Y191881D01*
X402268Y191868D01*
X402201Y191798D01*
X402129Y191732D01*
X402116Y191709D01*
X402098Y191690D01*
X402057Y191602D01*
X402010Y191516D01*
X402006Y191491D01*
X401995Y191467D01*
X401984Y191370D01*
X401967Y191274D01*
X401970Y191248D01*
X401968Y191222D01*
X401988Y191127D01*
X402002Y191031D01*
X402014Y191008D01*
X402020Y190982D01*
X402070Y190899D01*
X402114Y190812D01*
X402133Y190793D01*
X402146Y190771D01*
X402220Y190708D01*
X402290Y190639D01*
X402318Y190624D01*
X402333Y190611D01*
X402364Y190599D01*
X402437Y190559D01*
X406116Y189035D01*
X406179Y189020D01*
X406240Y188995D01*
X406323Y188986D01*
X406355Y188979D01*
X406374Y188980D01*
X406407Y188977D01*
X408941Y188977D01*
X408941Y187186D01*
X408955Y187096D01*
X408963Y187005D01*
X408975Y186975D01*
X408980Y186943D01*
X409023Y186863D01*
X409059Y186779D01*
X409085Y186747D01*
X409096Y186726D01*
X409119Y186704D01*
X409164Y186648D01*
X410817Y184994D01*
X412751Y180326D01*
X412751Y165404D01*
X412765Y165314D01*
X412773Y165223D01*
X412785Y165193D01*
X412790Y165161D01*
X412833Y165080D01*
X412869Y164996D01*
X412895Y164964D01*
X412906Y164944D01*
X412929Y164921D01*
X412974Y164865D01*
X437612Y140227D01*
X437628Y140216D01*
X437640Y140200D01*
X437728Y140144D01*
X437811Y140084D01*
X437830Y140078D01*
X437847Y140067D01*
X437948Y140042D01*
X438047Y140012D01*
X438066Y140012D01*
X438086Y140007D01*
X438189Y140015D01*
X438292Y140018D01*
X438311Y140025D01*
X438331Y140026D01*
X438426Y140067D01*
X438523Y140102D01*
X438539Y140115D01*
X438557Y140123D01*
X438688Y140227D01*
X445257Y146796D01*
X445310Y146870D01*
X445369Y146939D01*
X445382Y146970D01*
X445400Y146996D01*
X445427Y147083D01*
X445461Y147168D01*
X445466Y147208D01*
X445473Y147231D01*
X445472Y147263D01*
X445480Y147334D01*
X445480Y147741D01*
X447989Y153799D01*
X452626Y158436D01*
X458684Y160945D01*
X465241Y160945D01*
X471299Y158436D01*
X475936Y153799D01*
X478445Y147741D01*
X478445Y141184D01*
X475936Y135126D01*
X471299Y130489D01*
X465241Y127980D01*
X464834Y127980D01*
X464744Y127965D01*
X464653Y127958D01*
X464623Y127945D01*
X464592Y127940D01*
X464511Y127897D01*
X464427Y127862D01*
X464395Y127836D01*
X464374Y127825D01*
X464352Y127802D01*
X464296Y127757D01*
X427501Y90962D01*
X427460Y90904D01*
X427410Y90852D01*
X427388Y90805D01*
X427358Y90763D01*
X427337Y90694D01*
X427307Y90629D01*
X427301Y90577D01*
X427286Y90527D01*
X427287Y90456D01*
X427279Y90385D01*
X427291Y90334D01*
X427292Y90282D01*
X427317Y90214D01*
X427332Y90144D01*
X427358Y90099D01*
X427376Y90051D01*
X427421Y89995D01*
X427458Y89933D01*
X427497Y89899D01*
X427530Y89859D01*
X427590Y89820D01*
X427645Y89773D01*
X427693Y89754D01*
X427737Y89726D01*
X427806Y89708D01*
X427873Y89681D01*
X427944Y89673D01*
X427975Y89665D01*
X427999Y89667D01*
X428040Y89663D01*
X476708Y89663D01*
X476798Y89677D01*
X476889Y89685D01*
X476919Y89697D01*
X476951Y89702D01*
X477032Y89745D01*
X477116Y89781D01*
X477148Y89807D01*
X477168Y89818D01*
X477191Y89841D01*
X477247Y89886D01*
X496606Y109245D01*
X496617Y109261D01*
X496633Y109274D01*
X496689Y109361D01*
X496749Y109445D01*
X496755Y109464D01*
X496766Y109481D01*
X496791Y109581D01*
X496822Y109680D01*
X496821Y109700D01*
X496826Y109719D01*
X496818Y109822D01*
X496815Y109926D01*
X496808Y109944D01*
X496807Y109964D01*
X496767Y110059D01*
X496731Y110157D01*
X496718Y110172D01*
X496711Y110191D01*
X496606Y110322D01*
X494027Y112901D01*
X492208Y117292D01*
X492173Y117348D01*
X492147Y117408D01*
X492095Y117473D01*
X492078Y117501D01*
X492063Y117514D01*
X492043Y117539D01*
X489268Y120314D01*
X487044Y125682D01*
X487044Y175606D01*
X487037Y175651D01*
X487039Y175697D01*
X487017Y175772D01*
X487005Y175849D01*
X486983Y175889D01*
X486970Y175933D01*
X486926Y175997D01*
X486889Y176066D01*
X486856Y176098D01*
X486830Y176135D01*
X486768Y176182D01*
X486711Y176235D01*
X486669Y176255D01*
X486633Y176282D01*
X486559Y176306D01*
X486488Y176339D01*
X486442Y176344D01*
X486399Y176358D01*
X486321Y176358D01*
X486244Y176366D01*
X486199Y176356D01*
X486153Y176356D01*
X486021Y176318D01*
X486003Y176314D01*
X485999Y176311D01*
X485992Y176309D01*
X484291Y175605D01*
X477734Y175605D01*
X471676Y178114D01*
X467039Y182751D01*
X464530Y188809D01*
X464530Y192059D01*
X464519Y192124D01*
X464519Y192189D01*
X464495Y192269D01*
X464490Y192302D01*
X464481Y192319D01*
X464472Y192350D01*
X464375Y192585D01*
X464375Y200975D01*
X464360Y201065D01*
X464353Y201156D01*
X464340Y201186D01*
X464335Y201218D01*
X464292Y201298D01*
X464257Y201382D01*
X464231Y201414D01*
X464220Y201435D01*
X464197Y201457D01*
X464152Y201513D01*
X463864Y201801D01*
X461355Y207859D01*
X461355Y214416D01*
X463864Y220474D01*
X468501Y225111D01*
X474559Y227620D01*
X477111Y227620D01*
X477156Y227628D01*
X477202Y227626D01*
X477277Y227647D01*
X477354Y227660D01*
X477394Y227681D01*
X477438Y227694D01*
X477502Y227739D01*
X477571Y227775D01*
X477603Y227808D01*
X477640Y227835D01*
X477687Y227897D01*
X477740Y227953D01*
X477760Y227995D01*
X477787Y228032D01*
X477811Y228106D01*
X477844Y228176D01*
X477849Y228222D01*
X477863Y228266D01*
X477863Y228344D01*
X477871Y228421D01*
X477861Y228466D01*
X477861Y228512D01*
X477823Y228643D01*
X477819Y228661D01*
X477816Y228666D01*
X477814Y228673D01*
X477230Y230084D01*
X477230Y236641D01*
X479739Y242699D01*
X484376Y247336D01*
X486574Y248247D01*
X486674Y248308D01*
X486774Y248368D01*
X486778Y248373D01*
X486783Y248376D01*
X486858Y248466D01*
X486934Y248555D01*
X486936Y248561D01*
X486940Y248566D01*
X486982Y248674D01*
X487026Y248783D01*
X487027Y248791D01*
X487028Y248795D01*
X487029Y248814D01*
X487044Y248950D01*
X487044Y264033D01*
X487041Y264053D01*
X487043Y264072D01*
X487021Y264174D01*
X487005Y264276D01*
X486995Y264293D01*
X486991Y264313D01*
X486938Y264402D01*
X486889Y264493D01*
X486875Y264507D01*
X486865Y264524D01*
X486786Y264591D01*
X486711Y264663D01*
X486693Y264671D01*
X486678Y264684D01*
X486582Y264723D01*
X486488Y264766D01*
X486468Y264768D01*
X486450Y264776D01*
X486283Y264794D01*
X441068Y264794D01*
X441003Y264784D01*
X440938Y264783D01*
X440858Y264760D01*
X440825Y264755D01*
X440808Y264745D01*
X440777Y264736D01*
X435178Y262417D01*
X428422Y262417D01*
X422180Y265003D01*
X417403Y269780D01*
X414817Y276022D01*
X414817Y282778D01*
X417403Y289020D01*
X422180Y293797D01*
X428422Y296383D01*
X435178Y296383D01*
X440777Y294064D01*
X440841Y294049D01*
X440901Y294024D01*
X440984Y294015D01*
X441016Y294008D01*
X441036Y294009D01*
X441068Y294006D01*
X473259Y294006D01*
X473355Y294021D01*
X473452Y294031D01*
X473476Y294041D01*
X473502Y294045D01*
X473588Y294091D01*
X473677Y294131D01*
X473696Y294148D01*
X473719Y294161D01*
X473786Y294231D01*
X473858Y294297D01*
X473870Y294320D01*
X473888Y294339D01*
X473930Y294427D01*
X473976Y294513D01*
X473981Y294538D01*
X473992Y294562D01*
X474003Y294659D01*
X474020Y294755D01*
X474016Y294781D01*
X474019Y294806D01*
X473998Y294902D01*
X473984Y294998D01*
X473972Y295021D01*
X473967Y295047D01*
X473917Y295130D01*
X473873Y295217D01*
X473854Y295236D01*
X473841Y295258D01*
X473767Y295321D01*
X473697Y295389D01*
X473669Y295405D01*
X473654Y295418D01*
X473623Y295430D01*
X473550Y295470D01*
X473263Y295589D01*
X468627Y300226D01*
X466117Y306284D01*
X466117Y308278D01*
X466103Y308368D01*
X466095Y308459D01*
X466083Y308489D01*
X466078Y308521D01*
X466035Y308602D01*
X465999Y308686D01*
X465973Y308718D01*
X465962Y308738D01*
X465939Y308761D01*
X465894Y308817D01*
X461217Y313494D01*
X461143Y313547D01*
X461073Y313607D01*
X461043Y313619D01*
X461017Y313638D01*
X460930Y313665D01*
X460845Y313699D01*
X460804Y313703D01*
X460782Y313710D01*
X460750Y313709D01*
X460678Y313717D01*
X460271Y313717D01*
X454213Y316227D01*
X449577Y320863D01*
X447067Y326921D01*
X447067Y333479D01*
X449577Y339537D01*
X454213Y344173D01*
X460271Y346683D01*
X466829Y346683D01*
X469672Y345505D01*
X469717Y345494D01*
X469759Y345475D01*
X469836Y345466D01*
X469912Y345449D01*
X469957Y345453D01*
X470003Y345448D01*
X470079Y345464D01*
X470157Y345472D01*
X470198Y345490D01*
X470243Y345500D01*
X470310Y345540D01*
X470381Y345572D01*
X470415Y345603D01*
X470454Y345626D01*
X470505Y345685D01*
X470562Y345738D01*
X470585Y345778D01*
X470614Y345813D01*
X470643Y345886D01*
X470681Y345954D01*
X470689Y345999D01*
X470706Y346041D01*
X470721Y346177D01*
X470725Y346196D01*
X470724Y346201D01*
X470725Y346208D01*
X470725Y421212D01*
X470717Y421257D01*
X470719Y421303D01*
X470698Y421378D01*
X470685Y421455D01*
X470664Y421495D01*
X470651Y421539D01*
X470606Y421603D01*
X470570Y421672D01*
X470537Y421704D01*
X470511Y421741D01*
X470448Y421788D01*
X470392Y421841D01*
X470350Y421861D01*
X470313Y421888D01*
X470239Y421912D01*
X470169Y421945D01*
X470123Y421950D01*
X470079Y421964D01*
X470001Y421964D01*
X469924Y421972D01*
X469879Y421962D01*
X469833Y421962D01*
X469702Y421924D01*
X469684Y421920D01*
X469679Y421917D01*
X469672Y421915D01*
X465241Y420080D01*
X458684Y420080D01*
X452626Y422589D01*
X447989Y427226D01*
X445480Y433284D01*
X445480Y439841D01*
X447989Y445899D01*
X452626Y450536D01*
X458684Y453045D01*
X459091Y453045D01*
X459181Y453060D01*
X459272Y453067D01*
X459302Y453080D01*
X459333Y453085D01*
X459414Y453128D01*
X459498Y453163D01*
X459530Y453189D01*
X459551Y453200D01*
X459573Y453223D01*
X459629Y453268D01*
X460977Y454616D01*
X461030Y454690D01*
X461089Y454759D01*
X461102Y454790D01*
X461120Y454816D01*
X461147Y454903D01*
X461181Y454988D01*
X461186Y455028D01*
X461193Y455051D01*
X461192Y455083D01*
X461200Y455154D01*
X461200Y467675D01*
X461185Y467765D01*
X461178Y467856D01*
X461165Y467886D01*
X461160Y467918D01*
X461117Y467998D01*
X461082Y468082D01*
X461056Y468114D01*
X461045Y468135D01*
X461022Y468157D01*
X460977Y468213D01*
X460689Y468501D01*
X458180Y474559D01*
X458180Y481116D01*
X460689Y487174D01*
X465326Y491811D01*
X471384Y494320D01*
X477941Y494320D01*
X481634Y492791D01*
X481698Y492776D01*
X481758Y492751D01*
X481841Y492742D01*
X481873Y492735D01*
X481893Y492736D01*
X481925Y492733D01*
X487466Y492733D01*
X493524Y490223D01*
X498161Y485587D01*
X500670Y479529D01*
X500670Y472971D01*
X498161Y466913D01*
X497873Y466626D01*
X497820Y466552D01*
X497761Y466482D01*
X497748Y466452D01*
X497730Y466426D01*
X497703Y466339D01*
X497669Y466254D01*
X497664Y466213D01*
X497657Y466191D01*
X497658Y466159D01*
X497650Y466087D01*
X497650Y326567D01*
X497665Y326477D01*
X497672Y326386D01*
X497685Y326356D01*
X497690Y326324D01*
X497733Y326243D01*
X497768Y326159D01*
X497794Y326127D01*
X497805Y326107D01*
X497828Y326084D01*
X497873Y326028D01*
X505571Y318331D01*
X505645Y318278D01*
X505714Y318218D01*
X505744Y318206D01*
X505771Y318187D01*
X505858Y318160D01*
X505943Y318126D01*
X505983Y318122D01*
X506006Y318115D01*
X506038Y318116D01*
X506109Y318108D01*
X506516Y318108D01*
X508207Y317407D01*
X508251Y317397D01*
X508293Y317378D01*
X508370Y317369D01*
X508446Y317351D01*
X508492Y317356D01*
X508537Y317351D01*
X508614Y317367D01*
X508691Y317374D01*
X508733Y317393D01*
X508778Y317403D01*
X508845Y317443D01*
X508916Y317474D01*
X508950Y317505D01*
X508989Y317529D01*
X509040Y317588D01*
X509097Y317641D01*
X509119Y317681D01*
X509149Y317716D01*
X509178Y317788D01*
X509215Y317856D01*
X509224Y317901D01*
X509241Y317944D01*
X509256Y318080D01*
X509259Y318098D01*
X509258Y318103D01*
X509259Y318111D01*
X509259Y321034D01*
X509432Y321681D01*
X509767Y322260D01*
X510240Y322733D01*
X510819Y323068D01*
X511466Y323241D01*
X522277Y323241D01*
X522277Y311462D01*
X522280Y311442D01*
X522278Y311423D01*
X522300Y311321D01*
X522317Y311219D01*
X522326Y311202D01*
X522330Y311182D01*
X522383Y311093D01*
X522432Y311002D01*
X522446Y310988D01*
X522456Y310971D01*
X522535Y310904D01*
X522610Y310833D01*
X522628Y310824D01*
X522643Y310811D01*
X522739Y310772D01*
X522833Y310729D01*
X522853Y310727D01*
X522871Y310719D01*
X523038Y310701D01*
X524094Y310701D01*
X524113Y310704D01*
X524133Y310702D01*
X524234Y310724D01*
X524336Y310741D01*
X524354Y310750D01*
X524373Y310754D01*
X524462Y310807D01*
X524554Y310856D01*
X524567Y310870D01*
X524584Y310880D01*
X524652Y310959D01*
X524723Y311034D01*
X524731Y311052D01*
X524744Y311067D01*
X524783Y311163D01*
X524827Y311257D01*
X524829Y311277D01*
X524836Y311295D01*
X524855Y311462D01*
X524855Y316016D01*
X525265Y317007D01*
X525280Y317071D01*
X525305Y317132D01*
X525314Y317214D01*
X525321Y317247D01*
X525320Y317266D01*
X525323Y317298D01*
X525323Y323241D01*
X527114Y323241D01*
X527133Y323244D01*
X527153Y323242D01*
X527254Y323264D01*
X527356Y323280D01*
X527374Y323290D01*
X527393Y323294D01*
X527482Y323347D01*
X527574Y323396D01*
X527587Y323410D01*
X527604Y323420D01*
X527672Y323499D01*
X527743Y323574D01*
X527751Y323592D01*
X527764Y323607D01*
X527803Y323703D01*
X527847Y323797D01*
X527849Y323817D01*
X527856Y323835D01*
X527875Y324002D01*
X527875Y335912D01*
X527860Y336002D01*
X527853Y336093D01*
X527840Y336123D01*
X527835Y336155D01*
X527792Y336236D01*
X527757Y336320D01*
X527731Y336352D01*
X527720Y336372D01*
X527697Y336395D01*
X527652Y336451D01*
X527364Y336738D01*
X524855Y342796D01*
X524855Y349354D01*
X527364Y355412D01*
X532001Y360048D01*
X538059Y362558D01*
X544616Y362558D01*
X550674Y360048D01*
X550832Y359890D01*
X550890Y359849D01*
X550942Y359799D01*
X550990Y359777D01*
X551032Y359747D01*
X551101Y359726D01*
X551166Y359696D01*
X551217Y359690D01*
X551267Y359674D01*
X551339Y359676D01*
X551410Y359668D01*
X551461Y359679D01*
X551513Y359681D01*
X551580Y359705D01*
X551650Y359721D01*
X551695Y359747D01*
X551744Y359765D01*
X551800Y359810D01*
X551861Y359847D01*
X551895Y359886D01*
X551936Y359919D01*
X551975Y359979D01*
X552021Y360034D01*
X552041Y360082D01*
X552069Y360126D01*
X552086Y360195D01*
X552113Y360262D01*
X552121Y360333D01*
X552129Y360364D01*
X552127Y360388D01*
X552132Y360429D01*
X552132Y405318D01*
X552117Y405408D01*
X552110Y405499D01*
X552097Y405529D01*
X552092Y405561D01*
X552049Y405641D01*
X552014Y405725D01*
X551988Y405757D01*
X551977Y405778D01*
X551954Y405800D01*
X551909Y405856D01*
X551177Y406588D01*
X548667Y412646D01*
X548667Y419204D01*
X551177Y425262D01*
X551909Y425994D01*
X551962Y426068D01*
X552021Y426137D01*
X552033Y426167D01*
X552052Y426194D01*
X552079Y426281D01*
X552113Y426365D01*
X552118Y426406D01*
X552125Y426429D01*
X552124Y426461D01*
X552132Y426532D01*
X552132Y496864D01*
X552121Y496928D01*
X552121Y496994D01*
X552097Y497074D01*
X552092Y497106D01*
X552083Y497123D01*
X552074Y497155D01*
X550255Y501546D01*
X550255Y502715D01*
X550236Y502829D01*
X550219Y502946D01*
X550216Y502952D01*
X550215Y502958D01*
X550161Y503060D01*
X550107Y503165D01*
X550103Y503170D01*
X550100Y503175D01*
X550015Y503256D01*
X549932Y503338D01*
X549925Y503341D01*
X549922Y503345D01*
X549905Y503353D01*
X549785Y503418D01*
X549463Y503552D01*
X544827Y508188D01*
X543628Y511081D01*
X543590Y511142D01*
X543561Y511208D01*
X543526Y511246D01*
X543499Y511290D01*
X543443Y511336D01*
X543395Y511389D01*
X543349Y511414D01*
X543309Y511447D01*
X543242Y511473D01*
X543179Y511507D01*
X543128Y511517D01*
X543080Y511535D01*
X543008Y511538D01*
X542937Y511551D01*
X542886Y511544D01*
X542834Y511546D01*
X542765Y511526D01*
X542694Y511515D01*
X542648Y511492D01*
X542598Y511477D01*
X542539Y511436D01*
X542475Y511404D01*
X542438Y511367D01*
X542396Y511337D01*
X542353Y511279D01*
X542303Y511228D01*
X542268Y511165D01*
X542249Y511140D01*
X542242Y511117D01*
X542222Y511081D01*
X541023Y508188D01*
X536387Y503552D01*
X530329Y501042D01*
X523771Y501042D01*
X522579Y501536D01*
X522490Y501557D01*
X522403Y501585D01*
X522371Y501585D01*
X522339Y501592D01*
X522249Y501584D01*
X522157Y501583D01*
X522118Y501572D01*
X522094Y501569D01*
X522065Y501556D01*
X521996Y501536D01*
X520804Y501042D01*
X514246Y501042D01*
X508188Y503552D01*
X503552Y508188D01*
X501042Y514246D01*
X501042Y514653D01*
X501028Y514743D01*
X501020Y514834D01*
X501008Y514864D01*
X501003Y514896D01*
X500960Y514977D01*
X500924Y515061D01*
X500898Y515093D01*
X500887Y515113D01*
X500864Y515136D01*
X500819Y515192D01*
X496297Y519714D01*
X496223Y519767D01*
X496153Y519827D01*
X496123Y519839D01*
X496097Y519858D01*
X496010Y519885D01*
X495925Y519919D01*
X495884Y519923D01*
X495862Y519930D01*
X495830Y519929D01*
X495758Y519937D01*
X473713Y519937D01*
X473623Y519923D01*
X473532Y519915D01*
X473502Y519903D01*
X473470Y519898D01*
X473389Y519855D01*
X473305Y519819D01*
X473273Y519793D01*
X473253Y519782D01*
X473230Y519759D01*
X473174Y519714D01*
X472887Y519427D01*
X466829Y516917D01*
X460271Y516917D01*
X454213Y519427D01*
X449577Y524063D01*
X447067Y530121D01*
X447067Y536679D01*
X449577Y542737D01*
X454213Y547373D01*
X460271Y549883D01*
X466829Y549883D01*
X472887Y547373D01*
X473174Y547086D01*
X473248Y547033D01*
X473318Y546973D01*
X473348Y546961D01*
X473374Y546942D01*
X473461Y546915D01*
X473546Y546881D01*
X473587Y546877D01*
X473609Y546870D01*
X473641Y546871D01*
X473713Y546863D01*
X476835Y546863D01*
X476906Y546874D01*
X476978Y546876D01*
X477027Y546894D01*
X477078Y546902D01*
X477141Y546936D01*
X477209Y546961D01*
X477249Y546993D01*
X477295Y547018D01*
X477345Y547070D01*
X477401Y547114D01*
X477429Y547158D01*
X477465Y547196D01*
X477495Y547261D01*
X477534Y547321D01*
X477546Y547372D01*
X477568Y547419D01*
X477576Y547490D01*
X477594Y547560D01*
X477590Y547612D01*
X477596Y547663D01*
X477580Y547734D01*
X477575Y547805D01*
X477554Y547853D01*
X477543Y547904D01*
X477506Y547965D01*
X477478Y548031D01*
X477434Y548087D01*
X477417Y548115D01*
X477399Y548130D01*
X477374Y548162D01*
X456031Y569505D01*
X452137Y573399D01*
X450087Y578347D01*
X450087Y624359D01*
X450068Y624474D01*
X450051Y624590D01*
X450049Y624596D01*
X450048Y624602D01*
X449993Y624705D01*
X449940Y624809D01*
X449935Y624814D01*
X449932Y624819D01*
X449848Y624899D01*
X449764Y624982D01*
X449758Y624985D01*
X449754Y624989D01*
X449737Y624997D01*
X449617Y625063D01*
X447863Y625789D01*
X443227Y630426D01*
X440717Y636484D01*
X440717Y643041D01*
X443227Y649099D01*
X443514Y649387D01*
X443559Y649449D01*
X443586Y649477D01*
X443590Y649488D01*
X443627Y649530D01*
X443639Y649560D01*
X443658Y649587D01*
X443685Y649674D01*
X443719Y649758D01*
X443723Y649799D01*
X443730Y649822D01*
X443729Y649854D01*
X443737Y649925D01*
X443737Y664525D01*
X443723Y664615D01*
X443715Y664706D01*
X443703Y664736D01*
X443698Y664768D01*
X443655Y664848D01*
X443619Y664932D01*
X443593Y664964D01*
X443582Y664985D01*
X443559Y665007D01*
X443514Y665063D01*
X443227Y665351D01*
X440717Y671409D01*
X440717Y677966D01*
X443227Y684024D01*
X447863Y688661D01*
X453921Y691170D01*
X460479Y691170D01*
X466537Y688661D01*
X471173Y684024D01*
X472348Y681188D01*
X472396Y681110D01*
X472438Y681029D01*
X472461Y681006D01*
X472478Y680979D01*
X472548Y680920D01*
X472613Y680857D01*
X472649Y680837D01*
X472667Y680822D01*
X472698Y680810D01*
X472760Y680776D01*
X472887Y680723D01*
X477523Y676087D01*
X480033Y670029D01*
X480033Y663471D01*
X477523Y657413D01*
X477236Y657126D01*
X477183Y657052D01*
X477123Y656982D01*
X477111Y656952D01*
X477092Y656926D01*
X477065Y656839D01*
X477031Y656754D01*
X477027Y656713D01*
X477020Y656691D01*
X477021Y656659D01*
X477013Y656587D01*
X477013Y586917D01*
X477027Y586827D01*
X477035Y586736D01*
X477047Y586706D01*
X477052Y586674D01*
X477095Y586593D01*
X477131Y586509D01*
X477157Y586477D01*
X477168Y586457D01*
X477191Y586434D01*
X477236Y586378D01*
X529383Y534231D01*
X529457Y534178D01*
X529527Y534118D01*
X529557Y534106D01*
X529583Y534087D01*
X529670Y534060D01*
X529755Y534026D01*
X529796Y534022D01*
X529818Y534015D01*
X529850Y534016D01*
X529922Y534008D01*
X530329Y534008D01*
X536387Y531498D01*
X541023Y526862D01*
X542222Y523969D01*
X542260Y523908D01*
X542289Y523842D01*
X542324Y523804D01*
X542351Y523760D01*
X542407Y523714D01*
X542455Y523661D01*
X542501Y523636D01*
X542541Y523603D01*
X542608Y523577D01*
X542671Y523543D01*
X542722Y523533D01*
X542770Y523515D01*
X542842Y523512D01*
X542913Y523499D01*
X542964Y523506D01*
X543016Y523504D01*
X543085Y523524D01*
X543156Y523535D01*
X543202Y523558D01*
X543252Y523573D01*
X543311Y523614D01*
X543375Y523646D01*
X543412Y523683D01*
X543454Y523713D01*
X543497Y523771D01*
X543547Y523822D01*
X543582Y523885D01*
X543601Y523910D01*
X543608Y523933D01*
X543628Y523969D01*
X544136Y525195D01*
X544151Y525259D01*
X544176Y525320D01*
X544185Y525403D01*
X544192Y525435D01*
X544191Y525454D01*
X544194Y525487D01*
X544194Y608518D01*
X544180Y608608D01*
X544172Y608699D01*
X544160Y608729D01*
X544155Y608761D01*
X544112Y608841D01*
X544076Y608925D01*
X544050Y608957D01*
X544039Y608978D01*
X544016Y609000D01*
X543971Y609056D01*
X543239Y609788D01*
X540730Y615846D01*
X540730Y622404D01*
X543239Y628462D01*
X543971Y629194D01*
X544024Y629268D01*
X544084Y629337D01*
X544096Y629367D01*
X544115Y629394D01*
X544142Y629481D01*
X544176Y629565D01*
X544180Y629606D01*
X544187Y629629D01*
X544186Y629661D01*
X544194Y629732D01*
X544194Y697418D01*
X544180Y697508D01*
X544172Y697599D01*
X544160Y697629D01*
X544155Y697661D01*
X544112Y697741D01*
X544076Y697825D01*
X544050Y697857D01*
X544039Y697878D01*
X544016Y697900D01*
X543971Y697956D01*
X543239Y698688D01*
X540730Y704746D01*
X540730Y709257D01*
X540718Y709328D01*
X540716Y709399D01*
X540698Y709448D01*
X540690Y709500D01*
X540656Y709563D01*
X540632Y709630D01*
X540599Y709671D01*
X540575Y709717D01*
X540523Y709766D01*
X540478Y709822D01*
X540434Y709851D01*
X540397Y709886D01*
X540332Y709917D01*
X540271Y709955D01*
X540221Y709968D01*
X540174Y709990D01*
X540102Y709998D01*
X540033Y710015D01*
X539981Y710011D01*
X539929Y710017D01*
X539859Y710002D01*
X539788Y709996D01*
X539740Y709976D01*
X539689Y709965D01*
X539627Y709928D01*
X539561Y709900D01*
X539505Y709855D01*
X539478Y709839D01*
X539462Y709821D01*
X539430Y709795D01*
X536387Y706752D01*
X530329Y704242D01*
X523771Y704242D01*
X522579Y704736D01*
X522490Y704757D01*
X522403Y704785D01*
X522371Y704785D01*
X522339Y704792D01*
X522249Y704784D01*
X522157Y704783D01*
X522118Y704772D01*
X522094Y704769D01*
X522065Y704756D01*
X521996Y704736D01*
X520804Y704242D01*
X514246Y704242D01*
X508188Y706752D01*
X503552Y711388D01*
X501042Y717446D01*
X501042Y717853D01*
X501028Y717943D01*
X501020Y718034D01*
X501008Y718064D01*
X501003Y718096D01*
X500960Y718177D01*
X500924Y718261D01*
X500898Y718293D01*
X500887Y718313D01*
X500864Y718336D01*
X500819Y718392D01*
X496297Y722914D01*
X496223Y722967D01*
X496153Y723027D01*
X496123Y723039D01*
X496097Y723058D01*
X496010Y723085D01*
X495925Y723119D01*
X495884Y723123D01*
X495862Y723130D01*
X495830Y723129D01*
X495758Y723137D01*
X473713Y723137D01*
X473623Y723123D01*
X473532Y723115D01*
X473502Y723103D01*
X473470Y723098D01*
X473389Y723055D01*
X473305Y723019D01*
X473273Y722993D01*
X473253Y722982D01*
X473230Y722959D01*
X473174Y722914D01*
X472887Y722627D01*
X466829Y720117D01*
X460271Y720117D01*
X454213Y722627D01*
X449577Y727263D01*
X447067Y733321D01*
X447067Y739879D01*
X449577Y745937D01*
X454213Y750573D01*
X460271Y753083D01*
X466829Y753083D01*
X472887Y750573D01*
X473174Y750286D01*
X473248Y750233D01*
X473318Y750173D01*
X473348Y750161D01*
X473374Y750142D01*
X473461Y750115D01*
X473546Y750081D01*
X473587Y750077D01*
X473609Y750070D01*
X473641Y750071D01*
X473713Y750063D01*
X476835Y750063D01*
X476906Y750074D01*
X476978Y750076D01*
X477027Y750094D01*
X477078Y750102D01*
X477141Y750136D01*
X477209Y750161D01*
X477249Y750193D01*
X477295Y750218D01*
X477345Y750270D01*
X477401Y750314D01*
X477429Y750358D01*
X477465Y750396D01*
X477495Y750461D01*
X477534Y750521D01*
X477546Y750572D01*
X477568Y750619D01*
X477576Y750690D01*
X477594Y750760D01*
X477590Y750812D01*
X477596Y750863D01*
X477580Y750934D01*
X477575Y751005D01*
X477554Y751053D01*
X477543Y751104D01*
X477506Y751165D01*
X477478Y751231D01*
X477434Y751287D01*
X477417Y751315D01*
X477399Y751330D01*
X477374Y751362D01*
X456031Y772705D01*
X452137Y776599D01*
X450087Y781547D01*
X450087Y827559D01*
X450068Y827674D01*
X450051Y827790D01*
X450049Y827796D01*
X450048Y827802D01*
X449993Y827905D01*
X449940Y828009D01*
X449935Y828014D01*
X449932Y828019D01*
X449848Y828099D01*
X449764Y828182D01*
X449758Y828185D01*
X449754Y828189D01*
X449737Y828197D01*
X449617Y828263D01*
X447863Y828989D01*
X443227Y833626D01*
X440717Y839684D01*
X440717Y846241D01*
X443227Y852299D01*
X443514Y852587D01*
X443567Y852661D01*
X443627Y852730D01*
X443639Y852760D01*
X443658Y852787D01*
X443685Y852874D01*
X443719Y852958D01*
X443723Y852999D01*
X443730Y853022D01*
X443729Y853054D01*
X443737Y853125D01*
X443737Y867725D01*
X443723Y867815D01*
X443715Y867906D01*
X443703Y867936D01*
X443698Y867968D01*
X443655Y868048D01*
X443619Y868132D01*
X443593Y868164D01*
X443582Y868185D01*
X443559Y868207D01*
X443514Y868263D01*
X443227Y868551D01*
X440717Y874609D01*
X440717Y881166D01*
X443227Y887224D01*
X447863Y891861D01*
X453921Y894370D01*
X460479Y894370D01*
X466537Y891861D01*
X471173Y887224D01*
X472348Y884388D01*
X472396Y884310D01*
X472438Y884229D01*
X472461Y884206D01*
X472478Y884179D01*
X472548Y884120D01*
X472613Y884057D01*
X472649Y884037D01*
X472667Y884022D01*
X472698Y884010D01*
X472760Y883976D01*
X472887Y883923D01*
X477523Y879287D01*
X480033Y873229D01*
X480033Y866671D01*
X477523Y860613D01*
X477236Y860326D01*
X477183Y860252D01*
X477123Y860182D01*
X477111Y860152D01*
X477092Y860126D01*
X477065Y860039D01*
X477031Y859954D01*
X477027Y859913D01*
X477020Y859891D01*
X477021Y859859D01*
X477013Y859787D01*
X477013Y790117D01*
X477027Y790027D01*
X477035Y789936D01*
X477047Y789906D01*
X477052Y789874D01*
X477095Y789793D01*
X477131Y789709D01*
X477157Y789677D01*
X477168Y789657D01*
X477191Y789634D01*
X477236Y789578D01*
X529383Y737431D01*
X529457Y737378D01*
X529527Y737318D01*
X529557Y737306D01*
X529583Y737287D01*
X529670Y737260D01*
X529755Y737226D01*
X529796Y737222D01*
X529818Y737215D01*
X529850Y737216D01*
X529922Y737208D01*
X530329Y737208D01*
X536387Y734698D01*
X541023Y730062D01*
X542222Y727169D01*
X542259Y727108D01*
X542289Y727042D01*
X542324Y727004D01*
X542351Y726960D01*
X542406Y726914D01*
X542455Y726861D01*
X542501Y726836D01*
X542541Y726803D01*
X542608Y726777D01*
X542671Y726743D01*
X542722Y726733D01*
X542770Y726715D01*
X542842Y726712D01*
X542913Y726699D01*
X542964Y726706D01*
X543016Y726704D01*
X543085Y726724D01*
X543156Y726735D01*
X543202Y726758D01*
X543252Y726773D01*
X543311Y726814D01*
X543375Y726846D01*
X543412Y726883D01*
X543454Y726913D01*
X543497Y726971D01*
X543547Y727022D01*
X543582Y727085D01*
X543601Y727110D01*
X543608Y727133D01*
X543628Y727169D01*
X544136Y728395D01*
X544151Y728459D01*
X544176Y728520D01*
X544185Y728603D01*
X544192Y728635D01*
X544191Y728654D01*
X544194Y728687D01*
X544194Y811718D01*
X544180Y811808D01*
X544172Y811899D01*
X544160Y811929D01*
X544155Y811961D01*
X544112Y812041D01*
X544076Y812125D01*
X544050Y812157D01*
X544039Y812178D01*
X544016Y812200D01*
X543971Y812256D01*
X543239Y812988D01*
X540730Y819046D01*
X540730Y825604D01*
X543239Y831662D01*
X543971Y832394D01*
X544024Y832468D01*
X544084Y832537D01*
X544096Y832567D01*
X544115Y832594D01*
X544142Y832681D01*
X544176Y832765D01*
X544180Y832806D01*
X544187Y832829D01*
X544186Y832861D01*
X544194Y832932D01*
X544194Y846114D01*
X544184Y846178D01*
X544183Y846244D01*
X544160Y846324D01*
X544155Y846356D01*
X544145Y846373D01*
X544136Y846405D01*
X542317Y850796D01*
X542317Y857354D01*
X544827Y863412D01*
X549463Y868048D01*
X555521Y870558D01*
X562079Y870558D01*
X568137Y868048D01*
X572773Y863412D01*
X575283Y857354D01*
X575283Y850796D01*
X573464Y846405D01*
X573449Y846341D01*
X573424Y846280D01*
X573415Y846197D01*
X573408Y846165D01*
X573409Y846146D01*
X573406Y846114D01*
X573406Y826454D01*
X573416Y826389D01*
X573417Y826324D01*
X573440Y826244D01*
X573445Y826211D01*
X573455Y826194D01*
X573464Y826163D01*
X573695Y825604D01*
X573695Y819046D01*
X573464Y818487D01*
X573449Y818424D01*
X573424Y818363D01*
X573415Y818280D01*
X573408Y818248D01*
X573409Y818229D01*
X573406Y818196D01*
X573406Y728687D01*
X573416Y728622D01*
X573417Y728556D01*
X573440Y728476D01*
X573445Y728444D01*
X573455Y728427D01*
X573464Y728395D01*
X575283Y724004D01*
X575283Y717446D01*
X573464Y713055D01*
X573449Y712991D01*
X573424Y712930D01*
X573415Y712847D01*
X573408Y712815D01*
X573409Y712796D01*
X573406Y712763D01*
X573406Y712154D01*
X573416Y712089D01*
X573417Y712024D01*
X573440Y711944D01*
X573445Y711911D01*
X573455Y711894D01*
X573464Y711863D01*
X573695Y711304D01*
X573695Y704746D01*
X573464Y704187D01*
X573449Y704124D01*
X573424Y704063D01*
X573415Y703980D01*
X573408Y703948D01*
X573409Y703929D01*
X573406Y703896D01*
X573406Y623254D01*
X573408Y623237D01*
X573407Y623222D01*
X573416Y623178D01*
X573417Y623124D01*
X573440Y623044D01*
X573445Y623011D01*
X573455Y622994D01*
X573464Y622963D01*
X573695Y622404D01*
X573695Y615846D01*
X573464Y615287D01*
X573449Y615224D01*
X573424Y615163D01*
X573415Y615080D01*
X573408Y615048D01*
X573409Y615029D01*
X573406Y614996D01*
X573406Y525487D01*
X573416Y525422D01*
X573417Y525356D01*
X573440Y525276D01*
X573445Y525244D01*
X573455Y525227D01*
X573464Y525195D01*
X574592Y522470D01*
X574627Y522414D01*
X574653Y522354D01*
X574705Y522289D01*
X574722Y522261D01*
X574737Y522249D01*
X574758Y522223D01*
X574904Y522077D01*
X579120Y517861D01*
X580552Y514402D01*
X580587Y514346D01*
X580613Y514286D01*
X580665Y514221D01*
X580682Y514193D01*
X580697Y514181D01*
X580709Y514165D01*
X583220Y508104D01*
X583220Y501546D01*
X581401Y497155D01*
X581392Y497117D01*
X581384Y497099D01*
X581382Y497080D01*
X581362Y497030D01*
X581353Y496947D01*
X581345Y496915D01*
X581347Y496896D01*
X581343Y496864D01*
X581343Y420054D01*
X581354Y419989D01*
X581354Y419924D01*
X581378Y419844D01*
X581383Y419811D01*
X581392Y419794D01*
X581401Y419763D01*
X581633Y419204D01*
X581633Y412646D01*
X581401Y412087D01*
X581386Y412024D01*
X581362Y411963D01*
X581353Y411880D01*
X581345Y411848D01*
X581347Y411829D01*
X581343Y411796D01*
X581343Y354037D01*
X581354Y353972D01*
X581354Y353906D01*
X581378Y353826D01*
X581383Y353794D01*
X581392Y353777D01*
X581401Y353745D01*
X583220Y349354D01*
X583220Y342796D01*
X581725Y339187D01*
X581699Y339073D01*
X581670Y338960D01*
X581670Y338954D01*
X581669Y338948D01*
X581680Y338831D01*
X581689Y338715D01*
X581692Y338709D01*
X581692Y338703D01*
X581740Y338595D01*
X581785Y338488D01*
X581790Y338483D01*
X581792Y338478D01*
X581805Y338464D01*
X581890Y338357D01*
X583886Y336362D01*
X586395Y330304D01*
X586395Y324002D01*
X586398Y323982D01*
X586396Y323963D01*
X586418Y323861D01*
X586435Y323759D01*
X586444Y323742D01*
X586449Y323722D01*
X586502Y323633D01*
X586550Y323542D01*
X586564Y323528D01*
X586575Y323511D01*
X586653Y323444D01*
X586728Y323372D01*
X586746Y323364D01*
X586762Y323351D01*
X586858Y323312D01*
X586951Y323269D01*
X586971Y323267D01*
X586990Y323259D01*
X587156Y323241D01*
X589026Y323241D01*
X589046Y323244D01*
X589065Y323242D01*
X589167Y323264D01*
X589269Y323280D01*
X589286Y323290D01*
X589306Y323294D01*
X589395Y323347D01*
X589486Y323396D01*
X589500Y323410D01*
X589517Y323420D01*
X589584Y323499D01*
X589656Y323574D01*
X589664Y323592D01*
X589677Y323607D01*
X589716Y323703D01*
X589759Y323797D01*
X589761Y323817D01*
X589769Y323835D01*
X589787Y324002D01*
X589787Y1001776D01*
X589784Y1001796D01*
X589786Y1001815D01*
X589764Y1001917D01*
X589748Y1002019D01*
X589738Y1002036D01*
X589734Y1002056D01*
X589681Y1002145D01*
X589632Y1002236D01*
X589618Y1002250D01*
X589608Y1002267D01*
X589529Y1002334D01*
X589454Y1002406D01*
X589436Y1002414D01*
X589421Y1002427D01*
X589325Y1002466D01*
X589231Y1002509D01*
X589211Y1002511D01*
X589193Y1002519D01*
X589026Y1002537D01*
X39624Y1002537D01*
X39604Y1002534D01*
X39585Y1002536D01*
X39483Y1002514D01*
X39381Y1002498D01*
X39364Y1002488D01*
X39344Y1002484D01*
X39255Y1002431D01*
X39164Y1002382D01*
X39150Y1002368D01*
X39133Y1002358D01*
X39066Y1002279D01*
X38994Y1002204D01*
X38986Y1002186D01*
X38973Y1002171D01*
X38934Y1002075D01*
X38891Y1001981D01*
X38889Y1001961D01*
X38881Y1001943D01*
X38863Y1001776D01*
X38863Y52324D01*
X38866Y52304D01*
X38864Y52285D01*
X38886Y52183D01*
X38902Y52081D01*
X38912Y52064D01*
X38916Y52044D01*
X38969Y51955D01*
X39018Y51864D01*
X39032Y51850D01*
X39042Y51833D01*
X39121Y51766D01*
X39196Y51694D01*
X39214Y51686D01*
X39229Y51673D01*
X39325Y51634D01*
X39419Y51591D01*
X39439Y51589D01*
X39457Y51581D01*
X39624Y51563D01*
X122139Y51563D01*
X122210Y51574D01*
G37*
%LPC*%
G36*
X395184Y705830D02*
X395184Y705830D01*
X389126Y708339D01*
X388838Y708627D01*
X388764Y708680D01*
X388695Y708739D01*
X388665Y708752D01*
X388638Y708770D01*
X388551Y708797D01*
X388467Y708831D01*
X388426Y708836D01*
X388403Y708843D01*
X388371Y708842D01*
X388300Y708850D01*
X230685Y708850D01*
X225736Y710899D01*
X100854Y835782D01*
X100780Y835835D01*
X100711Y835894D01*
X100680Y835907D01*
X100654Y835925D01*
X100567Y835952D01*
X100482Y835986D01*
X100442Y835991D01*
X100419Y835998D01*
X100387Y835997D01*
X100316Y836005D01*
X99909Y836005D01*
X93851Y838514D01*
X89214Y843151D01*
X86705Y849209D01*
X86705Y855766D01*
X89214Y861824D01*
X93851Y866461D01*
X99909Y868970D01*
X106466Y868970D01*
X112524Y866461D01*
X117161Y861824D01*
X119670Y855766D01*
X119670Y855359D01*
X119685Y855269D01*
X119692Y855178D01*
X119705Y855148D01*
X119710Y855117D01*
X119753Y855036D01*
X119788Y854952D01*
X119814Y854920D01*
X119825Y854899D01*
X119848Y854877D01*
X119893Y854821D01*
X230290Y744424D01*
X230384Y744357D01*
X230479Y744286D01*
X230485Y744284D01*
X230490Y744281D01*
X230601Y744246D01*
X230713Y744210D01*
X230719Y744210D01*
X230725Y744208D01*
X230842Y744211D01*
X230959Y744212D01*
X230966Y744214D01*
X230971Y744215D01*
X230988Y744221D01*
X231120Y744259D01*
X233259Y745145D01*
X233666Y745145D01*
X233756Y745160D01*
X233847Y745167D01*
X233877Y745180D01*
X233908Y745185D01*
X233989Y745228D01*
X234073Y745263D01*
X234105Y745289D01*
X234126Y745300D01*
X234148Y745323D01*
X234204Y745368D01*
X246833Y757998D01*
X246901Y758092D01*
X246971Y758186D01*
X246973Y758192D01*
X246977Y758197D01*
X247011Y758308D01*
X247048Y758420D01*
X247047Y758426D01*
X247049Y758432D01*
X247046Y758549D01*
X247045Y758666D01*
X247043Y758673D01*
X247043Y758678D01*
X247042Y758680D01*
X247042Y765279D01*
X249552Y771337D01*
X254188Y775973D01*
X260246Y778483D01*
X266804Y778483D01*
X272862Y775973D01*
X277498Y771337D01*
X280008Y765279D01*
X280008Y758721D01*
X277498Y752663D01*
X276515Y751680D01*
X276477Y751627D01*
X276431Y751580D01*
X276391Y751507D01*
X276372Y751481D01*
X276366Y751462D01*
X276350Y751433D01*
X274938Y748024D01*
X271044Y744130D01*
X263989Y737075D01*
X263947Y737017D01*
X263898Y736965D01*
X263876Y736917D01*
X263845Y736875D01*
X263824Y736807D01*
X263794Y736741D01*
X263788Y736690D01*
X263773Y736640D01*
X263775Y736568D01*
X263767Y736497D01*
X263778Y736446D01*
X263779Y736394D01*
X263804Y736327D01*
X263819Y736257D01*
X263846Y736212D01*
X263864Y736163D01*
X263909Y736107D01*
X263945Y736046D01*
X263985Y736012D01*
X264018Y735971D01*
X264078Y735932D01*
X264132Y735886D01*
X264181Y735866D01*
X264224Y735838D01*
X264294Y735821D01*
X264360Y735794D01*
X264432Y735786D01*
X264463Y735778D01*
X264486Y735780D01*
X264527Y735775D01*
X306202Y735775D01*
X306316Y735794D01*
X306433Y735811D01*
X306438Y735814D01*
X306444Y735815D01*
X306547Y735869D01*
X306652Y735923D01*
X306656Y735927D01*
X306662Y735930D01*
X306742Y736014D01*
X306824Y736098D01*
X306828Y736105D01*
X306831Y736108D01*
X306839Y736125D01*
X306905Y736245D01*
X308289Y739587D01*
X312926Y744223D01*
X318984Y746733D01*
X319391Y746733D01*
X319481Y746747D01*
X319572Y746755D01*
X319602Y746767D01*
X319633Y746772D01*
X319714Y746815D01*
X319798Y746851D01*
X319830Y746877D01*
X319851Y746888D01*
X319873Y746911D01*
X319929Y746956D01*
X343657Y770683D01*
X343710Y770757D01*
X343769Y770827D01*
X343782Y770857D01*
X343800Y770883D01*
X343827Y770970D01*
X343861Y771055D01*
X343866Y771096D01*
X343873Y771118D01*
X343872Y771150D01*
X343880Y771222D01*
X343880Y771629D01*
X346389Y777687D01*
X351026Y782323D01*
X357084Y784833D01*
X363641Y784833D01*
X369699Y782323D01*
X374336Y777687D01*
X376845Y771629D01*
X376845Y765071D01*
X374336Y759013D01*
X369699Y754377D01*
X363641Y751867D01*
X363234Y751867D01*
X363144Y751853D01*
X363053Y751845D01*
X363023Y751833D01*
X362992Y751828D01*
X362911Y751785D01*
X362827Y751749D01*
X362795Y751723D01*
X362774Y751712D01*
X362752Y751689D01*
X362696Y751644D01*
X348126Y737075D01*
X348085Y737017D01*
X348035Y736965D01*
X348013Y736917D01*
X347983Y736875D01*
X347962Y736807D01*
X347932Y736741D01*
X347926Y736690D01*
X347911Y736640D01*
X347912Y736568D01*
X347904Y736497D01*
X347916Y736446D01*
X347917Y736394D01*
X347942Y736327D01*
X347957Y736257D01*
X347983Y736212D01*
X348001Y736163D01*
X348046Y736107D01*
X348083Y736046D01*
X348122Y736012D01*
X348155Y735971D01*
X348215Y735932D01*
X348270Y735886D01*
X348318Y735866D01*
X348362Y735838D01*
X348431Y735821D01*
X348498Y735794D01*
X348569Y735786D01*
X348600Y735778D01*
X348624Y735780D01*
X348665Y735775D01*
X388300Y735775D01*
X388390Y735790D01*
X388481Y735797D01*
X388511Y735810D01*
X388543Y735815D01*
X388623Y735858D01*
X388707Y735893D01*
X388739Y735919D01*
X388760Y735930D01*
X388782Y735953D01*
X388838Y735998D01*
X389126Y736286D01*
X395184Y738795D01*
X401741Y738795D01*
X407799Y736286D01*
X412436Y731649D01*
X414945Y725591D01*
X414945Y719034D01*
X412436Y712976D01*
X407799Y708339D01*
X401741Y705830D01*
X395184Y705830D01*
G37*
%LPD*%
%LPC*%
G36*
X395184Y299430D02*
X395184Y299430D01*
X389126Y301939D01*
X388838Y302227D01*
X388764Y302280D01*
X388695Y302339D01*
X388665Y302352D01*
X388638Y302370D01*
X388551Y302397D01*
X388467Y302431D01*
X388426Y302436D01*
X388403Y302443D01*
X388371Y302442D01*
X388300Y302450D01*
X230685Y302450D01*
X225736Y304499D01*
X100854Y429382D01*
X100780Y429435D01*
X100711Y429494D01*
X100680Y429507D01*
X100654Y429525D01*
X100567Y429552D01*
X100482Y429586D01*
X100442Y429591D01*
X100419Y429598D01*
X100387Y429597D01*
X100316Y429605D01*
X99909Y429605D01*
X93851Y432114D01*
X89214Y436751D01*
X86705Y442809D01*
X86705Y449366D01*
X89214Y455424D01*
X93851Y460061D01*
X99909Y462570D01*
X106466Y462570D01*
X112524Y460061D01*
X117161Y455424D01*
X119670Y449366D01*
X119670Y448959D01*
X119685Y448869D01*
X119692Y448778D01*
X119705Y448748D01*
X119710Y448717D01*
X119753Y448636D01*
X119788Y448552D01*
X119814Y448520D01*
X119825Y448499D01*
X119848Y448477D01*
X119871Y448448D01*
X119874Y448444D01*
X119876Y448442D01*
X119893Y448421D01*
X230290Y338024D01*
X230384Y337957D01*
X230479Y337886D01*
X230485Y337884D01*
X230490Y337881D01*
X230601Y337846D01*
X230713Y337810D01*
X230719Y337810D01*
X230725Y337808D01*
X230842Y337811D01*
X230959Y337812D01*
X230966Y337814D01*
X230971Y337815D01*
X230988Y337821D01*
X231120Y337859D01*
X233259Y338745D01*
X233666Y338745D01*
X233756Y338760D01*
X233847Y338767D01*
X233877Y338780D01*
X233908Y338785D01*
X233989Y338828D01*
X234073Y338863D01*
X234105Y338889D01*
X234126Y338900D01*
X234148Y338923D01*
X234204Y338968D01*
X246833Y351598D01*
X246901Y351692D01*
X246971Y351786D01*
X246973Y351792D01*
X246977Y351797D01*
X247011Y351908D01*
X247048Y352020D01*
X247047Y352026D01*
X247049Y352032D01*
X247046Y352149D01*
X247045Y352266D01*
X247043Y352273D01*
X247043Y352278D01*
X247042Y352280D01*
X247042Y358879D01*
X249552Y364937D01*
X254188Y369573D01*
X260246Y372083D01*
X266804Y372083D01*
X272862Y369573D01*
X277498Y364937D01*
X280008Y358879D01*
X280008Y352321D01*
X277498Y346263D01*
X276515Y345280D01*
X276477Y345227D01*
X276431Y345180D01*
X276391Y345107D01*
X276372Y345081D01*
X276366Y345062D01*
X276350Y345033D01*
X274938Y341624D01*
X271044Y337730D01*
X263989Y330675D01*
X263947Y330617D01*
X263898Y330565D01*
X263876Y330517D01*
X263845Y330475D01*
X263824Y330407D01*
X263794Y330341D01*
X263788Y330290D01*
X263773Y330240D01*
X263775Y330168D01*
X263767Y330097D01*
X263778Y330046D01*
X263779Y329994D01*
X263804Y329927D01*
X263819Y329857D01*
X263846Y329812D01*
X263864Y329763D01*
X263909Y329707D01*
X263945Y329646D01*
X263985Y329612D01*
X264018Y329571D01*
X264078Y329532D01*
X264132Y329486D01*
X264181Y329466D01*
X264224Y329438D01*
X264294Y329421D01*
X264360Y329394D01*
X264432Y329386D01*
X264463Y329378D01*
X264486Y329380D01*
X264527Y329375D01*
X306202Y329375D01*
X306316Y329394D01*
X306433Y329411D01*
X306438Y329414D01*
X306444Y329415D01*
X306547Y329469D01*
X306652Y329523D01*
X306656Y329527D01*
X306662Y329530D01*
X306742Y329614D01*
X306824Y329698D01*
X306828Y329705D01*
X306831Y329708D01*
X306839Y329725D01*
X306905Y329845D01*
X308289Y333187D01*
X312926Y337823D01*
X318984Y340333D01*
X319391Y340333D01*
X319481Y340347D01*
X319572Y340355D01*
X319602Y340367D01*
X319633Y340372D01*
X319714Y340415D01*
X319798Y340451D01*
X319830Y340477D01*
X319851Y340488D01*
X319873Y340511D01*
X319929Y340556D01*
X343657Y364283D01*
X343710Y364357D01*
X343769Y364427D01*
X343782Y364457D01*
X343800Y364483D01*
X343827Y364570D01*
X343861Y364655D01*
X343866Y364696D01*
X343873Y364718D01*
X343872Y364750D01*
X343880Y364822D01*
X343880Y365229D01*
X346389Y371287D01*
X351026Y375923D01*
X357084Y378433D01*
X363641Y378433D01*
X369699Y375923D01*
X374336Y371287D01*
X376845Y365229D01*
X376845Y358671D01*
X374336Y352613D01*
X369699Y347977D01*
X363641Y345467D01*
X363234Y345467D01*
X363144Y345453D01*
X363053Y345445D01*
X363023Y345433D01*
X362992Y345428D01*
X362911Y345385D01*
X362827Y345349D01*
X362795Y345323D01*
X362774Y345312D01*
X362752Y345289D01*
X362696Y345244D01*
X348126Y330675D01*
X348085Y330617D01*
X348035Y330565D01*
X348013Y330517D01*
X347983Y330475D01*
X347962Y330407D01*
X347932Y330341D01*
X347926Y330290D01*
X347911Y330240D01*
X347912Y330168D01*
X347904Y330097D01*
X347916Y330046D01*
X347917Y329994D01*
X347942Y329927D01*
X347957Y329857D01*
X347983Y329812D01*
X348001Y329763D01*
X348046Y329707D01*
X348083Y329646D01*
X348122Y329612D01*
X348155Y329571D01*
X348215Y329532D01*
X348270Y329486D01*
X348318Y329466D01*
X348362Y329438D01*
X348431Y329421D01*
X348498Y329394D01*
X348569Y329386D01*
X348600Y329378D01*
X348624Y329380D01*
X348665Y329375D01*
X388300Y329375D01*
X388390Y329390D01*
X388481Y329397D01*
X388511Y329410D01*
X388543Y329415D01*
X388623Y329458D01*
X388707Y329493D01*
X388739Y329519D01*
X388760Y329530D01*
X388782Y329553D01*
X388838Y329598D01*
X389126Y329886D01*
X395184Y332395D01*
X401741Y332395D01*
X407799Y329886D01*
X412436Y325249D01*
X414945Y319191D01*
X414945Y312634D01*
X412436Y306576D01*
X407799Y301939D01*
X401741Y299430D01*
X395184Y299430D01*
G37*
%LPD*%
%LPC*%
G36*
X395184Y502630D02*
X395184Y502630D01*
X389126Y505139D01*
X388838Y505427D01*
X388764Y505480D01*
X388695Y505539D01*
X388665Y505552D01*
X388638Y505570D01*
X388551Y505597D01*
X388467Y505631D01*
X388426Y505636D01*
X388403Y505643D01*
X388371Y505642D01*
X388300Y505650D01*
X230685Y505650D01*
X225736Y507699D01*
X221842Y511593D01*
X221842Y511594D01*
X100854Y632582D01*
X100780Y632635D01*
X100711Y632694D01*
X100680Y632707D01*
X100654Y632725D01*
X100567Y632752D01*
X100482Y632786D01*
X100442Y632791D01*
X100419Y632798D01*
X100387Y632797D01*
X100316Y632805D01*
X99909Y632805D01*
X93851Y635314D01*
X89214Y639951D01*
X86705Y646009D01*
X86705Y652566D01*
X89214Y658624D01*
X93851Y663261D01*
X99909Y665770D01*
X106466Y665770D01*
X112524Y663261D01*
X117161Y658624D01*
X119670Y652566D01*
X119670Y652159D01*
X119671Y652152D01*
X119671Y652150D01*
X119674Y652139D01*
X119685Y652069D01*
X119692Y651978D01*
X119705Y651948D01*
X119710Y651916D01*
X119753Y651836D01*
X119788Y651752D01*
X119814Y651720D01*
X119825Y651699D01*
X119848Y651677D01*
X119893Y651621D01*
X230290Y541224D01*
X230384Y541157D01*
X230479Y541086D01*
X230485Y541084D01*
X230490Y541081D01*
X230601Y541046D01*
X230713Y541010D01*
X230719Y541010D01*
X230725Y541008D01*
X230842Y541011D01*
X230959Y541012D01*
X230966Y541014D01*
X230971Y541015D01*
X230988Y541021D01*
X231120Y541059D01*
X233259Y541945D01*
X233666Y541945D01*
X233756Y541960D01*
X233847Y541967D01*
X233877Y541980D01*
X233908Y541985D01*
X233989Y542028D01*
X234073Y542063D01*
X234105Y542089D01*
X234126Y542100D01*
X234148Y542123D01*
X234204Y542168D01*
X246833Y554798D01*
X246901Y554892D01*
X246971Y554986D01*
X246973Y554992D01*
X246977Y554997D01*
X247011Y555108D01*
X247048Y555220D01*
X247047Y555226D01*
X247049Y555232D01*
X247046Y555349D01*
X247045Y555466D01*
X247043Y555473D01*
X247043Y555478D01*
X247042Y555480D01*
X247042Y562079D01*
X249552Y568137D01*
X254188Y572773D01*
X260246Y575283D01*
X266804Y575283D01*
X272862Y572773D01*
X277498Y568137D01*
X280008Y562079D01*
X280008Y555521D01*
X277498Y549463D01*
X276515Y548480D01*
X276477Y548427D01*
X276431Y548380D01*
X276391Y548307D01*
X276372Y548280D01*
X276366Y548262D01*
X276350Y548233D01*
X274938Y544824D01*
X271044Y540930D01*
X263989Y533875D01*
X263947Y533817D01*
X263898Y533765D01*
X263876Y533717D01*
X263845Y533675D01*
X263824Y533607D01*
X263794Y533541D01*
X263788Y533490D01*
X263773Y533440D01*
X263775Y533368D01*
X263767Y533297D01*
X263778Y533246D01*
X263779Y533194D01*
X263804Y533127D01*
X263819Y533057D01*
X263846Y533012D01*
X263864Y532963D01*
X263909Y532907D01*
X263945Y532846D01*
X263985Y532812D01*
X264018Y532771D01*
X264078Y532732D01*
X264132Y532686D01*
X264181Y532666D01*
X264224Y532638D01*
X264294Y532621D01*
X264360Y532594D01*
X264432Y532586D01*
X264463Y532578D01*
X264486Y532580D01*
X264527Y532575D01*
X306202Y532575D01*
X306316Y532594D01*
X306433Y532611D01*
X306438Y532614D01*
X306444Y532615D01*
X306547Y532669D01*
X306652Y532723D01*
X306656Y532727D01*
X306662Y532730D01*
X306742Y532814D01*
X306824Y532898D01*
X306828Y532905D01*
X306831Y532908D01*
X306839Y532925D01*
X306905Y533045D01*
X308289Y536387D01*
X312926Y541023D01*
X318984Y543533D01*
X319391Y543533D01*
X319481Y543547D01*
X319572Y543555D01*
X319602Y543567D01*
X319633Y543572D01*
X319714Y543615D01*
X319798Y543651D01*
X319830Y543677D01*
X319851Y543688D01*
X319873Y543711D01*
X319929Y543756D01*
X343657Y567483D01*
X343710Y567557D01*
X343769Y567627D01*
X343782Y567657D01*
X343800Y567683D01*
X343827Y567770D01*
X343861Y567855D01*
X343866Y567896D01*
X343873Y567918D01*
X343872Y567950D01*
X343880Y568022D01*
X343880Y568429D01*
X346389Y574487D01*
X351026Y579123D01*
X357084Y581633D01*
X363641Y581633D01*
X369699Y579123D01*
X374336Y574487D01*
X376845Y568429D01*
X376845Y561871D01*
X374336Y555813D01*
X369699Y551177D01*
X363641Y548667D01*
X363234Y548667D01*
X363144Y548653D01*
X363053Y548645D01*
X363023Y548633D01*
X362992Y548628D01*
X362911Y548585D01*
X362827Y548549D01*
X362795Y548523D01*
X362774Y548512D01*
X362767Y548505D01*
X362766Y548504D01*
X362750Y548488D01*
X362696Y548444D01*
X348126Y533875D01*
X348085Y533817D01*
X348035Y533765D01*
X348013Y533717D01*
X347983Y533675D01*
X347962Y533607D01*
X347932Y533541D01*
X347926Y533490D01*
X347911Y533440D01*
X347912Y533368D01*
X347904Y533297D01*
X347916Y533246D01*
X347917Y533194D01*
X347942Y533127D01*
X347957Y533057D01*
X347983Y533012D01*
X348001Y532963D01*
X348046Y532907D01*
X348083Y532846D01*
X348122Y532812D01*
X348155Y532771D01*
X348215Y532732D01*
X348270Y532686D01*
X348318Y532666D01*
X348362Y532638D01*
X348431Y532621D01*
X348498Y532594D01*
X348569Y532586D01*
X348600Y532578D01*
X348624Y532580D01*
X348665Y532575D01*
X388300Y532575D01*
X388390Y532590D01*
X388481Y532597D01*
X388511Y532610D01*
X388543Y532615D01*
X388623Y532658D01*
X388707Y532693D01*
X388739Y532719D01*
X388760Y532730D01*
X388782Y532753D01*
X388838Y532798D01*
X389126Y533086D01*
X395184Y535595D01*
X401741Y535595D01*
X407799Y533086D01*
X412436Y528449D01*
X414945Y522391D01*
X414945Y515834D01*
X412436Y509776D01*
X407799Y505139D01*
X401741Y502630D01*
X395184Y502630D01*
G37*
%LPD*%
G36*
X589046Y51566D02*
X589046Y51566D01*
X589065Y51564D01*
X589167Y51586D01*
X589269Y51602D01*
X589286Y51612D01*
X589306Y51616D01*
X589395Y51669D01*
X589486Y51718D01*
X589500Y51732D01*
X589517Y51742D01*
X589584Y51821D01*
X589656Y51896D01*
X589664Y51914D01*
X589677Y51929D01*
X589716Y52025D01*
X589759Y52119D01*
X589761Y52139D01*
X589769Y52157D01*
X589787Y52324D01*
X589787Y209398D01*
X589784Y209418D01*
X589786Y209437D01*
X589764Y209539D01*
X589748Y209641D01*
X589738Y209658D01*
X589734Y209678D01*
X589681Y209767D01*
X589632Y209858D01*
X589618Y209872D01*
X589608Y209889D01*
X589529Y209956D01*
X589454Y210028D01*
X589436Y210036D01*
X589421Y210049D01*
X589325Y210088D01*
X589231Y210131D01*
X589211Y210133D01*
X589193Y210141D01*
X589026Y210159D01*
X580323Y210159D01*
X580323Y221938D01*
X580320Y221958D01*
X580322Y221977D01*
X580300Y222079D01*
X580283Y222181D01*
X580274Y222198D01*
X580270Y222218D01*
X580217Y222307D01*
X580168Y222398D01*
X580154Y222412D01*
X580144Y222429D01*
X580065Y222496D01*
X579990Y222567D01*
X579972Y222576D01*
X579957Y222589D01*
X579861Y222628D01*
X579767Y222671D01*
X579747Y222673D01*
X579729Y222681D01*
X579562Y222699D01*
X578799Y222699D01*
X578799Y222701D01*
X579562Y222701D01*
X579582Y222704D01*
X579601Y222702D01*
X579703Y222724D01*
X579805Y222741D01*
X579822Y222750D01*
X579842Y222754D01*
X579931Y222807D01*
X580022Y222856D01*
X580036Y222870D01*
X580053Y222880D01*
X580120Y222959D01*
X580191Y223034D01*
X580200Y223052D01*
X580213Y223067D01*
X580252Y223163D01*
X580295Y223257D01*
X580297Y223277D01*
X580305Y223295D01*
X580323Y223462D01*
X580323Y235241D01*
X589026Y235241D01*
X589046Y235244D01*
X589065Y235242D01*
X589167Y235264D01*
X589269Y235280D01*
X589286Y235290D01*
X589306Y235294D01*
X589395Y235347D01*
X589486Y235396D01*
X589500Y235410D01*
X589517Y235420D01*
X589584Y235499D01*
X589656Y235574D01*
X589664Y235592D01*
X589677Y235607D01*
X589716Y235703D01*
X589759Y235797D01*
X589761Y235817D01*
X589769Y235835D01*
X589787Y236002D01*
X589787Y297398D01*
X589784Y297418D01*
X589786Y297437D01*
X589764Y297539D01*
X589748Y297641D01*
X589738Y297658D01*
X589734Y297678D01*
X589681Y297767D01*
X589632Y297858D01*
X589618Y297872D01*
X589608Y297889D01*
X589529Y297956D01*
X589454Y298028D01*
X589436Y298036D01*
X589421Y298049D01*
X589325Y298088D01*
X589231Y298131D01*
X589211Y298133D01*
X589193Y298141D01*
X589026Y298159D01*
X580323Y298159D01*
X580323Y309938D01*
X580320Y309958D01*
X580322Y309977D01*
X580300Y310079D01*
X580283Y310181D01*
X580274Y310198D01*
X580270Y310218D01*
X580217Y310307D01*
X580168Y310398D01*
X580154Y310412D01*
X580144Y310429D01*
X580065Y310496D01*
X579990Y310567D01*
X579972Y310576D01*
X579957Y310589D01*
X579861Y310628D01*
X579767Y310671D01*
X579747Y310673D01*
X579729Y310681D01*
X579562Y310699D01*
X578799Y310699D01*
X578799Y311462D01*
X578796Y311482D01*
X578798Y311501D01*
X578776Y311603D01*
X578759Y311705D01*
X578750Y311722D01*
X578746Y311742D01*
X578693Y311831D01*
X578644Y311922D01*
X578630Y311936D01*
X578620Y311953D01*
X578541Y312020D01*
X578466Y312091D01*
X578448Y312100D01*
X578433Y312113D01*
X578337Y312152D01*
X578243Y312195D01*
X578223Y312197D01*
X578205Y312205D01*
X578038Y312223D01*
X577401Y312223D01*
X577336Y312213D01*
X577270Y312212D01*
X577190Y312189D01*
X577158Y312183D01*
X577141Y312174D01*
X577109Y312165D01*
X573430Y310641D01*
X573347Y310590D01*
X573261Y310544D01*
X573243Y310526D01*
X573221Y310512D01*
X573159Y310437D01*
X573092Y310366D01*
X573081Y310342D01*
X573064Y310322D01*
X573030Y310231D01*
X572988Y310143D01*
X572986Y310117D01*
X572976Y310093D01*
X572972Y309995D01*
X572961Y309899D01*
X572967Y309873D01*
X572966Y309847D01*
X572993Y309753D01*
X573014Y309658D01*
X573027Y309636D01*
X573034Y309611D01*
X573090Y309531D01*
X573140Y309447D01*
X573160Y309430D01*
X573175Y309409D01*
X573253Y309350D01*
X573327Y309287D01*
X573351Y309277D01*
X573372Y309262D01*
X573464Y309232D01*
X573555Y309195D01*
X573587Y309192D01*
X573606Y309186D01*
X573639Y309186D01*
X573722Y309177D01*
X577277Y309177D01*
X577277Y298159D01*
X566466Y298159D01*
X565819Y298332D01*
X565330Y298615D01*
X565216Y298658D01*
X565104Y298701D01*
X565102Y298701D01*
X565100Y298702D01*
X564977Y298706D01*
X564858Y298712D01*
X564856Y298711D01*
X564854Y298711D01*
X564737Y298676D01*
X564622Y298643D01*
X564620Y298642D01*
X564618Y298641D01*
X564519Y298572D01*
X564420Y298503D01*
X564419Y298501D01*
X564417Y298500D01*
X564347Y298404D01*
X564273Y298305D01*
X564272Y298303D01*
X564271Y298302D01*
X564235Y298187D01*
X564197Y298071D01*
X564197Y298069D01*
X564196Y298067D01*
X564198Y297946D01*
X564199Y297826D01*
X564200Y297823D01*
X564200Y297821D01*
X564203Y297814D01*
X564246Y297664D01*
X566501Y292221D01*
X566501Y285179D01*
X563806Y278673D01*
X558827Y273694D01*
X552321Y270999D01*
X545279Y270999D01*
X543453Y271756D01*
X543409Y271766D01*
X543367Y271785D01*
X543290Y271794D01*
X543214Y271812D01*
X543168Y271807D01*
X543123Y271812D01*
X543046Y271796D01*
X542969Y271789D01*
X542927Y271770D01*
X542882Y271760D01*
X542815Y271720D01*
X542744Y271689D01*
X542710Y271658D01*
X542671Y271634D01*
X542620Y271575D01*
X542563Y271522D01*
X542541Y271482D01*
X542511Y271447D01*
X542482Y271375D01*
X542445Y271307D01*
X542436Y271262D01*
X542419Y271219D01*
X542404Y271083D01*
X542401Y271065D01*
X542402Y271060D01*
X542401Y271052D01*
X542401Y262348D01*
X542408Y262303D01*
X542406Y262257D01*
X542428Y262182D01*
X542440Y262105D01*
X542462Y262064D01*
X542475Y262020D01*
X542519Y261956D01*
X542556Y261888D01*
X542589Y261856D01*
X542615Y261818D01*
X542678Y261772D01*
X542734Y261718D01*
X542776Y261699D01*
X542812Y261672D01*
X542886Y261647D01*
X542957Y261615D01*
X543003Y261610D01*
X543046Y261595D01*
X543124Y261596D01*
X543201Y261588D01*
X543246Y261597D01*
X543292Y261598D01*
X543424Y261636D01*
X543442Y261640D01*
X543446Y261642D01*
X543453Y261644D01*
X545279Y262401D01*
X552321Y262401D01*
X558827Y259706D01*
X563806Y254727D01*
X566501Y248221D01*
X566501Y241179D01*
X564246Y235736D01*
X564219Y235619D01*
X564190Y235500D01*
X564190Y235498D01*
X564190Y235496D01*
X564201Y235376D01*
X564212Y235255D01*
X564213Y235253D01*
X564213Y235251D01*
X564263Y235139D01*
X564311Y235030D01*
X564312Y235028D01*
X564313Y235027D01*
X564397Y234935D01*
X564476Y234848D01*
X564478Y234847D01*
X564479Y234845D01*
X564588Y234786D01*
X564691Y234728D01*
X564693Y234728D01*
X564695Y234727D01*
X564817Y234705D01*
X564933Y234683D01*
X564935Y234683D01*
X564937Y234683D01*
X565057Y234701D01*
X565176Y234718D01*
X565179Y234719D01*
X565180Y234719D01*
X565187Y234722D01*
X565330Y234785D01*
X565819Y235068D01*
X566466Y235241D01*
X577277Y235241D01*
X577277Y224223D01*
X564259Y224223D01*
X564259Y233034D01*
X564290Y233148D01*
X564294Y233196D01*
X564309Y233242D01*
X564307Y233318D01*
X564314Y233393D01*
X564303Y233440D01*
X564302Y233488D01*
X564276Y233559D01*
X564259Y233633D01*
X564234Y233674D01*
X564218Y233719D01*
X564170Y233778D01*
X564131Y233842D01*
X564094Y233873D01*
X564064Y233911D01*
X564000Y233952D01*
X563942Y234000D01*
X563898Y234018D01*
X563857Y234044D01*
X563784Y234062D01*
X563713Y234090D01*
X563665Y234092D01*
X563619Y234104D01*
X563543Y234098D01*
X563467Y234101D01*
X563421Y234088D01*
X563373Y234085D01*
X563304Y234055D01*
X563231Y234034D01*
X563191Y234007D01*
X563147Y233988D01*
X563047Y233908D01*
X563028Y233895D01*
X563024Y233890D01*
X563016Y233884D01*
X558827Y229694D01*
X552321Y226999D01*
X545279Y226999D01*
X539393Y229437D01*
X539349Y229448D01*
X539307Y229467D01*
X539230Y229476D01*
X539154Y229493D01*
X539108Y229489D01*
X539063Y229494D01*
X538986Y229478D01*
X538909Y229470D01*
X538867Y229452D01*
X538822Y229442D01*
X538755Y229402D01*
X538684Y229370D01*
X538650Y229339D01*
X538611Y229316D01*
X538560Y229257D01*
X538503Y229204D01*
X538481Y229164D01*
X538451Y229129D01*
X538422Y229057D01*
X538385Y228988D01*
X538376Y228943D01*
X538359Y228901D01*
X538344Y228765D01*
X538341Y228746D01*
X538342Y228741D01*
X538341Y228734D01*
X538341Y224223D01*
X524562Y224223D01*
X524542Y224220D01*
X524523Y224222D01*
X524421Y224200D01*
X524319Y224183D01*
X524302Y224174D01*
X524282Y224170D01*
X524193Y224117D01*
X524102Y224068D01*
X524088Y224054D01*
X524071Y224044D01*
X524004Y223965D01*
X523933Y223890D01*
X523924Y223872D01*
X523911Y223857D01*
X523872Y223761D01*
X523829Y223667D01*
X523827Y223647D01*
X523819Y223629D01*
X523801Y223462D01*
X523801Y222699D01*
X523038Y222699D01*
X523018Y222696D01*
X522999Y222698D01*
X522897Y222676D01*
X522795Y222659D01*
X522778Y222650D01*
X522758Y222646D01*
X522669Y222593D01*
X522578Y222544D01*
X522564Y222530D01*
X522547Y222520D01*
X522480Y222441D01*
X522409Y222366D01*
X522400Y222348D01*
X522387Y222333D01*
X522348Y222237D01*
X522305Y222143D01*
X522303Y222123D01*
X522295Y222105D01*
X522277Y221938D01*
X522277Y210159D01*
X518405Y210159D01*
X518360Y210152D01*
X518314Y210154D01*
X518239Y210132D01*
X518162Y210120D01*
X518122Y210098D01*
X518078Y210085D01*
X518014Y210041D01*
X517945Y210004D01*
X517913Y209971D01*
X517876Y209945D01*
X517829Y209882D01*
X517776Y209826D01*
X517756Y209784D01*
X517729Y209748D01*
X517705Y209674D01*
X517672Y209603D01*
X517667Y209557D01*
X517653Y209514D01*
X517653Y209436D01*
X517645Y209359D01*
X517655Y209314D01*
X517655Y209268D01*
X517693Y209136D01*
X517697Y209118D01*
X517700Y209114D01*
X517702Y209107D01*
X518133Y208066D01*
X518133Y201509D01*
X516314Y197117D01*
X516299Y197054D01*
X516274Y196993D01*
X516265Y196910D01*
X516258Y196878D01*
X516259Y196859D01*
X516256Y196826D01*
X516256Y179324D01*
X516259Y179304D01*
X516257Y179285D01*
X516279Y179183D01*
X516295Y179081D01*
X516305Y179064D01*
X516309Y179044D01*
X516362Y178955D01*
X516411Y178864D01*
X516425Y178850D01*
X516435Y178833D01*
X516514Y178766D01*
X516589Y178694D01*
X516607Y178686D01*
X516622Y178673D01*
X516718Y178634D01*
X516812Y178591D01*
X516832Y178589D01*
X516850Y178581D01*
X517017Y178563D01*
X545603Y178563D01*
X550551Y176513D01*
X551608Y175456D01*
X551682Y175403D01*
X551752Y175343D01*
X551782Y175331D01*
X551808Y175312D01*
X551895Y175285D01*
X551980Y175251D01*
X552021Y175247D01*
X552043Y175240D01*
X552075Y175241D01*
X552147Y175233D01*
X552554Y175233D01*
X558612Y172723D01*
X563248Y168087D01*
X565758Y162029D01*
X565758Y155471D01*
X563248Y149413D01*
X559631Y145796D01*
X559578Y145722D01*
X559518Y145652D01*
X559506Y145622D01*
X559487Y145596D01*
X559460Y145509D01*
X559426Y145424D01*
X559422Y145383D01*
X559415Y145361D01*
X559416Y145329D01*
X559408Y145257D01*
X559408Y142771D01*
X556898Y136713D01*
X556329Y136144D01*
X556276Y136070D01*
X556216Y136000D01*
X556204Y135970D01*
X556185Y135944D01*
X556158Y135857D01*
X556124Y135772D01*
X556120Y135731D01*
X556113Y135709D01*
X556114Y135677D01*
X556106Y135605D01*
X556106Y129820D01*
X556125Y129705D01*
X556142Y129589D01*
X556144Y129583D01*
X556145Y129577D01*
X556200Y129475D01*
X556253Y129370D01*
X556258Y129365D01*
X556261Y129360D01*
X556345Y129280D01*
X556429Y129198D01*
X556435Y129194D01*
X556439Y129191D01*
X556456Y129183D01*
X556576Y129117D01*
X558612Y128273D01*
X563248Y123637D01*
X565758Y117579D01*
X565758Y111021D01*
X563248Y104963D01*
X558612Y100327D01*
X552554Y97817D01*
X552147Y97817D01*
X552057Y97803D01*
X551966Y97795D01*
X551936Y97783D01*
X551904Y97778D01*
X551823Y97735D01*
X551739Y97699D01*
X551707Y97673D01*
X551687Y97662D01*
X551664Y97639D01*
X551608Y97594D01*
X544201Y90187D01*
X539253Y88137D01*
X530902Y88137D01*
X530812Y88123D01*
X530721Y88115D01*
X530692Y88103D01*
X530660Y88098D01*
X530579Y88055D01*
X530495Y88019D01*
X530463Y87993D01*
X530442Y87982D01*
X530420Y87959D01*
X530364Y87914D01*
X498685Y56235D01*
X495312Y52862D01*
X495270Y52804D01*
X495221Y52752D01*
X495199Y52705D01*
X495168Y52663D01*
X495147Y52594D01*
X495117Y52529D01*
X495111Y52477D01*
X495096Y52427D01*
X495098Y52356D01*
X495090Y52285D01*
X495101Y52234D01*
X495102Y52182D01*
X495127Y52114D01*
X495142Y52044D01*
X495169Y51999D01*
X495187Y51951D01*
X495232Y51895D01*
X495268Y51833D01*
X495308Y51799D01*
X495341Y51759D01*
X495401Y51720D01*
X495455Y51673D01*
X495504Y51654D01*
X495548Y51626D01*
X495617Y51608D01*
X495684Y51581D01*
X495755Y51573D01*
X495786Y51565D01*
X495809Y51567D01*
X495850Y51563D01*
X589026Y51563D01*
X589046Y51566D01*
G37*
%LPC*%
G36*
X458684Y928080D02*
X458684Y928080D01*
X452626Y930589D01*
X447989Y935226D01*
X445480Y941284D01*
X445480Y947841D01*
X447989Y953899D01*
X452626Y958536D01*
X458684Y961045D01*
X465241Y961045D01*
X471299Y958536D01*
X471587Y958248D01*
X471661Y958195D01*
X471730Y958136D01*
X471760Y958124D01*
X471787Y958105D01*
X471874Y958078D01*
X471958Y958044D01*
X471999Y958039D01*
X472022Y958032D01*
X472054Y958033D01*
X472125Y958025D01*
X512943Y958025D01*
X513058Y958044D01*
X513174Y958061D01*
X513179Y958064D01*
X513186Y958065D01*
X513288Y958119D01*
X513393Y958173D01*
X513398Y958177D01*
X513403Y958180D01*
X513483Y958264D01*
X513565Y958348D01*
X513569Y958355D01*
X513572Y958358D01*
X513580Y958375D01*
X513646Y958495D01*
X515637Y963301D01*
X522599Y970263D01*
X527547Y972313D01*
X545603Y972313D01*
X545837Y972216D01*
X545901Y972201D01*
X545962Y972176D01*
X546045Y972167D01*
X546077Y972160D01*
X546096Y972161D01*
X546129Y972158D01*
X546204Y972158D01*
X552262Y969648D01*
X556898Y965012D01*
X559408Y958954D01*
X559408Y952396D01*
X556898Y946338D01*
X552262Y941702D01*
X546204Y939192D01*
X539906Y939192D01*
X539791Y939173D01*
X539675Y939156D01*
X539670Y939154D01*
X539663Y939153D01*
X539561Y939098D01*
X539456Y939045D01*
X539452Y939040D01*
X539446Y939037D01*
X539366Y938953D01*
X539284Y938869D01*
X539280Y938863D01*
X539277Y938859D01*
X539269Y938842D01*
X539203Y938722D01*
X538463Y936936D01*
X534676Y933149D01*
X529728Y931100D01*
X472125Y931100D01*
X472035Y931085D01*
X471944Y931078D01*
X471914Y931065D01*
X471882Y931060D01*
X471802Y931017D01*
X471718Y930982D01*
X471686Y930956D01*
X471665Y930945D01*
X471643Y930922D01*
X471587Y930877D01*
X471299Y930589D01*
X465241Y928080D01*
X458684Y928080D01*
G37*
%LPD*%
%LPC*%
G36*
X217384Y916967D02*
X217384Y916967D01*
X211326Y919477D01*
X206689Y924113D01*
X204180Y930171D01*
X204180Y936729D01*
X206689Y942787D01*
X211326Y947423D01*
X217384Y949933D01*
X217791Y949933D01*
X217881Y949947D01*
X217972Y949955D01*
X218002Y949967D01*
X218033Y949972D01*
X218114Y950015D01*
X218198Y950051D01*
X218230Y950077D01*
X218251Y950088D01*
X218273Y950111D01*
X218329Y950156D01*
X242057Y973883D01*
X242110Y973957D01*
X242169Y974027D01*
X242182Y974057D01*
X242200Y974083D01*
X242227Y974170D01*
X242261Y974255D01*
X242266Y974296D01*
X242273Y974318D01*
X242272Y974350D01*
X242280Y974422D01*
X242280Y974829D01*
X244789Y980887D01*
X249426Y985523D01*
X255484Y988033D01*
X262041Y988033D01*
X268099Y985523D01*
X272736Y980887D01*
X275245Y974829D01*
X275245Y968271D01*
X272736Y962213D01*
X268099Y957577D01*
X262041Y955067D01*
X261634Y955067D01*
X261544Y955053D01*
X261453Y955045D01*
X261423Y955033D01*
X261392Y955028D01*
X261311Y954985D01*
X261227Y954949D01*
X261195Y954923D01*
X261174Y954912D01*
X261152Y954889D01*
X261096Y954844D01*
X237368Y931117D01*
X237315Y931043D01*
X237256Y930973D01*
X237243Y930943D01*
X237225Y930917D01*
X237198Y930830D01*
X237164Y930745D01*
X237159Y930704D01*
X237152Y930682D01*
X237153Y930650D01*
X237145Y930578D01*
X237145Y930171D01*
X234636Y924113D01*
X229999Y919477D01*
X223941Y916967D01*
X217384Y916967D01*
G37*
%LPD*%
%LPC*%
G36*
X217384Y815367D02*
X217384Y815367D01*
X211326Y817877D01*
X206689Y822513D01*
X204180Y828571D01*
X204180Y835129D01*
X206689Y841187D01*
X211326Y845823D01*
X217384Y848333D01*
X217791Y848333D01*
X217881Y848347D01*
X217972Y848355D01*
X218002Y848367D01*
X218033Y848372D01*
X218114Y848415D01*
X218198Y848451D01*
X218230Y848477D01*
X218251Y848488D01*
X218273Y848511D01*
X218329Y848556D01*
X242057Y872283D01*
X242110Y872357D01*
X242169Y872427D01*
X242182Y872457D01*
X242200Y872483D01*
X242227Y872570D01*
X242261Y872655D01*
X242266Y872696D01*
X242273Y872718D01*
X242272Y872750D01*
X242280Y872822D01*
X242280Y873229D01*
X244789Y879287D01*
X249426Y883923D01*
X255484Y886433D01*
X262041Y886433D01*
X268099Y883923D01*
X272736Y879287D01*
X275245Y873229D01*
X275245Y866671D01*
X272736Y860613D01*
X268099Y855977D01*
X262041Y853467D01*
X261634Y853467D01*
X261544Y853453D01*
X261453Y853445D01*
X261423Y853433D01*
X261392Y853428D01*
X261311Y853385D01*
X261227Y853349D01*
X261195Y853323D01*
X261174Y853312D01*
X261152Y853289D01*
X261096Y853244D01*
X237368Y829517D01*
X237315Y829443D01*
X237256Y829373D01*
X237243Y829343D01*
X237225Y829317D01*
X237198Y829230D01*
X237164Y829145D01*
X237159Y829104D01*
X237152Y829082D01*
X237153Y829050D01*
X237145Y828978D01*
X237145Y828571D01*
X234636Y822513D01*
X229999Y817877D01*
X223941Y815367D01*
X217384Y815367D01*
G37*
%LPD*%
%LPC*%
G36*
X318984Y815367D02*
X318984Y815367D01*
X312926Y817877D01*
X308289Y822513D01*
X305780Y828571D01*
X305780Y835129D01*
X308289Y841187D01*
X312926Y845823D01*
X318984Y848333D01*
X319391Y848333D01*
X319481Y848347D01*
X319572Y848355D01*
X319602Y848367D01*
X319633Y848372D01*
X319714Y848415D01*
X319798Y848451D01*
X319830Y848477D01*
X319851Y848488D01*
X319873Y848511D01*
X319929Y848556D01*
X343657Y872283D01*
X343710Y872357D01*
X343769Y872427D01*
X343782Y872457D01*
X343800Y872483D01*
X343827Y872570D01*
X343861Y872655D01*
X343866Y872696D01*
X343873Y872718D01*
X343872Y872750D01*
X343880Y872822D01*
X343880Y873229D01*
X346389Y879287D01*
X351026Y883923D01*
X357084Y886433D01*
X363641Y886433D01*
X369699Y883923D01*
X374336Y879287D01*
X376845Y873229D01*
X376845Y866671D01*
X374336Y860613D01*
X369699Y855977D01*
X363641Y853467D01*
X363234Y853467D01*
X363144Y853453D01*
X363053Y853445D01*
X363023Y853433D01*
X362992Y853428D01*
X362911Y853385D01*
X362827Y853349D01*
X362795Y853323D01*
X362774Y853312D01*
X362752Y853289D01*
X362696Y853244D01*
X338968Y829517D01*
X338915Y829443D01*
X338856Y829373D01*
X338843Y829343D01*
X338825Y829317D01*
X338798Y829230D01*
X338764Y829145D01*
X338759Y829104D01*
X338752Y829082D01*
X338753Y829050D01*
X338745Y828978D01*
X338745Y828571D01*
X336236Y822513D01*
X331599Y817877D01*
X325541Y815367D01*
X318984Y815367D01*
G37*
%LPD*%
%LPC*%
G36*
X318984Y612167D02*
X318984Y612167D01*
X312926Y614677D01*
X308289Y619313D01*
X305780Y625371D01*
X305780Y631929D01*
X308289Y637987D01*
X312926Y642623D01*
X318984Y645133D01*
X319391Y645133D01*
X319481Y645147D01*
X319572Y645155D01*
X319602Y645167D01*
X319633Y645172D01*
X319714Y645215D01*
X319798Y645251D01*
X319830Y645277D01*
X319851Y645288D01*
X319873Y645311D01*
X319929Y645356D01*
X343657Y669083D01*
X343710Y669157D01*
X343769Y669227D01*
X343782Y669257D01*
X343800Y669283D01*
X343827Y669370D01*
X343861Y669455D01*
X343866Y669496D01*
X343873Y669518D01*
X343872Y669550D01*
X343880Y669622D01*
X343880Y670029D01*
X346389Y676087D01*
X351026Y680723D01*
X357084Y683233D01*
X363641Y683233D01*
X369699Y680723D01*
X374336Y676087D01*
X376845Y670029D01*
X376845Y663471D01*
X374336Y657413D01*
X369699Y652777D01*
X363641Y650267D01*
X363234Y650267D01*
X363144Y650253D01*
X363053Y650245D01*
X363023Y650233D01*
X362992Y650228D01*
X362911Y650185D01*
X362827Y650149D01*
X362795Y650123D01*
X362774Y650112D01*
X362752Y650089D01*
X362696Y650044D01*
X338968Y626317D01*
X338915Y626243D01*
X338856Y626173D01*
X338843Y626143D01*
X338825Y626117D01*
X338798Y626030D01*
X338764Y625945D01*
X338759Y625904D01*
X338752Y625882D01*
X338753Y625850D01*
X338745Y625778D01*
X338745Y625371D01*
X336236Y619313D01*
X331599Y614677D01*
X325541Y612167D01*
X318984Y612167D01*
G37*
%LPD*%
%LPC*%
G36*
X217384Y612167D02*
X217384Y612167D01*
X211326Y614677D01*
X206689Y619313D01*
X204180Y625371D01*
X204180Y631929D01*
X206689Y637987D01*
X211326Y642623D01*
X217384Y645133D01*
X217791Y645133D01*
X217881Y645147D01*
X217972Y645155D01*
X218002Y645167D01*
X218033Y645172D01*
X218114Y645215D01*
X218198Y645251D01*
X218230Y645277D01*
X218251Y645288D01*
X218273Y645311D01*
X218329Y645356D01*
X242057Y669083D01*
X242110Y669157D01*
X242169Y669227D01*
X242182Y669257D01*
X242200Y669283D01*
X242227Y669370D01*
X242261Y669455D01*
X242266Y669496D01*
X242273Y669518D01*
X242272Y669550D01*
X242280Y669622D01*
X242280Y670029D01*
X244789Y676087D01*
X249426Y680723D01*
X255484Y683233D01*
X262041Y683233D01*
X268099Y680723D01*
X272736Y676087D01*
X275245Y670029D01*
X275245Y663471D01*
X272736Y657413D01*
X268099Y652777D01*
X262041Y650267D01*
X261634Y650267D01*
X261544Y650253D01*
X261453Y650245D01*
X261423Y650233D01*
X261392Y650228D01*
X261311Y650185D01*
X261227Y650149D01*
X261195Y650123D01*
X261174Y650112D01*
X261152Y650089D01*
X261096Y650044D01*
X237368Y626317D01*
X237315Y626243D01*
X237256Y626173D01*
X237243Y626143D01*
X237225Y626117D01*
X237198Y626030D01*
X237164Y625945D01*
X237159Y625904D01*
X237152Y625882D01*
X237153Y625850D01*
X237145Y625778D01*
X237145Y625371D01*
X234636Y619313D01*
X229999Y614677D01*
X223941Y612167D01*
X217384Y612167D01*
G37*
%LPD*%
%LPC*%
G36*
X318984Y408967D02*
X318984Y408967D01*
X312926Y411477D01*
X308289Y416113D01*
X305780Y422171D01*
X305780Y428729D01*
X308289Y434787D01*
X312926Y439423D01*
X318984Y441933D01*
X319391Y441933D01*
X319481Y441947D01*
X319572Y441955D01*
X319602Y441967D01*
X319633Y441972D01*
X319714Y442015D01*
X319798Y442051D01*
X319830Y442077D01*
X319851Y442088D01*
X319873Y442111D01*
X319929Y442156D01*
X343657Y465883D01*
X343710Y465957D01*
X343769Y466027D01*
X343782Y466057D01*
X343800Y466083D01*
X343827Y466170D01*
X343861Y466255D01*
X343866Y466296D01*
X343873Y466318D01*
X343872Y466350D01*
X343880Y466422D01*
X343880Y466829D01*
X346389Y472887D01*
X351026Y477523D01*
X357084Y480033D01*
X363641Y480033D01*
X369699Y477523D01*
X374336Y472887D01*
X376845Y466829D01*
X376845Y460271D01*
X374336Y454213D01*
X369699Y449577D01*
X363641Y447067D01*
X363234Y447067D01*
X363144Y447053D01*
X363053Y447045D01*
X363023Y447033D01*
X362992Y447028D01*
X362911Y446985D01*
X362827Y446949D01*
X362795Y446923D01*
X362774Y446912D01*
X362752Y446889D01*
X362696Y446844D01*
X338968Y423117D01*
X338915Y423043D01*
X338856Y422973D01*
X338843Y422943D01*
X338825Y422917D01*
X338798Y422830D01*
X338764Y422745D01*
X338759Y422704D01*
X338752Y422682D01*
X338753Y422650D01*
X338745Y422578D01*
X338745Y422171D01*
X336236Y416113D01*
X331599Y411477D01*
X325541Y408967D01*
X318984Y408967D01*
G37*
%LPD*%
%LPC*%
G36*
X217384Y408967D02*
X217384Y408967D01*
X211326Y411477D01*
X206689Y416113D01*
X204180Y422171D01*
X204180Y428729D01*
X206689Y434787D01*
X211326Y439423D01*
X217384Y441933D01*
X217791Y441933D01*
X217881Y441947D01*
X217972Y441955D01*
X218002Y441967D01*
X218033Y441972D01*
X218114Y442015D01*
X218198Y442051D01*
X218230Y442077D01*
X218251Y442088D01*
X218273Y442111D01*
X218329Y442156D01*
X242057Y465883D01*
X242110Y465957D01*
X242169Y466027D01*
X242182Y466057D01*
X242200Y466083D01*
X242227Y466170D01*
X242261Y466255D01*
X242266Y466296D01*
X242273Y466318D01*
X242272Y466350D01*
X242280Y466422D01*
X242280Y466829D01*
X244789Y472887D01*
X249426Y477523D01*
X255484Y480033D01*
X262041Y480033D01*
X268099Y477523D01*
X272736Y472887D01*
X275245Y466829D01*
X275245Y460271D01*
X272736Y454213D01*
X268099Y449577D01*
X262041Y447067D01*
X261634Y447067D01*
X261544Y447053D01*
X261453Y447045D01*
X261423Y447033D01*
X261392Y447028D01*
X261311Y446985D01*
X261227Y446949D01*
X261195Y446923D01*
X261174Y446912D01*
X261152Y446889D01*
X261096Y446844D01*
X237368Y423117D01*
X237315Y423043D01*
X237256Y422973D01*
X237243Y422943D01*
X237225Y422917D01*
X237198Y422830D01*
X237164Y422745D01*
X237159Y422704D01*
X237152Y422682D01*
X237153Y422650D01*
X237145Y422578D01*
X237145Y422171D01*
X234636Y416113D01*
X229999Y411477D01*
X223941Y408967D01*
X217384Y408967D01*
G37*
%LPD*%
%LPC*%
G36*
X318984Y916967D02*
X318984Y916967D01*
X312926Y919477D01*
X308289Y924113D01*
X305780Y930171D01*
X305780Y936729D01*
X308289Y942787D01*
X312926Y947423D01*
X318984Y949933D01*
X319391Y949933D01*
X319481Y949947D01*
X319572Y949955D01*
X319602Y949967D01*
X319634Y949972D01*
X319714Y950015D01*
X319798Y950051D01*
X319830Y950077D01*
X319851Y950088D01*
X319873Y950111D01*
X319929Y950156D01*
X343657Y973883D01*
X343710Y973957D01*
X343769Y974027D01*
X343782Y974057D01*
X343800Y974083D01*
X343827Y974170D01*
X343861Y974255D01*
X343866Y974296D01*
X343873Y974318D01*
X343872Y974350D01*
X343880Y974422D01*
X343880Y974829D01*
X346389Y980887D01*
X351026Y985523D01*
X357084Y988033D01*
X363641Y988033D01*
X369699Y985523D01*
X374336Y980887D01*
X376845Y974829D01*
X376845Y968271D01*
X374336Y962213D01*
X369699Y957577D01*
X363641Y955067D01*
X363234Y955067D01*
X363144Y955053D01*
X363053Y955045D01*
X363023Y955033D01*
X362991Y955028D01*
X362911Y954985D01*
X362827Y954949D01*
X362795Y954923D01*
X362774Y954912D01*
X362752Y954889D01*
X362696Y954844D01*
X338968Y931117D01*
X338915Y931043D01*
X338856Y930973D01*
X338843Y930943D01*
X338825Y930917D01*
X338798Y930830D01*
X338764Y930745D01*
X338759Y930704D01*
X338752Y930682D01*
X338753Y930650D01*
X338745Y930578D01*
X338745Y930171D01*
X336236Y924113D01*
X331599Y919477D01*
X325541Y916967D01*
X318984Y916967D01*
G37*
%LPD*%
%LPC*%
G36*
X525323Y210159D02*
X525323Y210159D01*
X525323Y221177D01*
X538341Y221177D01*
X538341Y212366D01*
X538168Y211719D01*
X537833Y211140D01*
X537360Y210667D01*
X536781Y210332D01*
X536134Y210159D01*
X525323Y210159D01*
G37*
%LPD*%
%LPC*%
G36*
X566466Y210159D02*
X566466Y210159D01*
X565819Y210332D01*
X565240Y210667D01*
X564767Y211140D01*
X564432Y211719D01*
X564259Y212366D01*
X564259Y221177D01*
X577277Y221177D01*
X577277Y210159D01*
X566466Y210159D01*
G37*
%LPD*%
D10*
X523800Y310700D03*
D11*
X518160Y282700D03*
X518160Y274700D03*
X518160Y266700D03*
X518160Y258700D03*
X518160Y250700D03*
D10*
X578800Y310700D03*
X523800Y222700D03*
X578800Y222700D03*
D12*
X368300Y139700D03*
D13*
X393700Y139700D03*
X368300Y165100D03*
D12*
X393700Y165100D03*
X368300Y190500D03*
D13*
X393700Y190500D03*
D14*
X519113Y249238D02*
X522288Y246063D01*
X522288Y223838D01*
X519113Y249238D02*
X518160Y250700D01*
X522288Y223838D02*
X523800Y222700D01*
X525463Y222250D02*
X577850Y222250D01*
X578800Y222700D01*
X525463Y222250D02*
X523800Y222700D01*
X579438Y223838D02*
X579438Y309563D01*
X578800Y310700D01*
X579438Y223838D02*
X578800Y222700D01*
X469900Y215900D02*
X444500Y190500D01*
X442913Y188913D01*
X469900Y215900D02*
X469900Y225425D01*
X500063Y287338D02*
X522288Y309563D01*
X523800Y310700D01*
X464344Y157956D02*
X463550Y157163D01*
X549275Y311150D02*
X577850Y311150D01*
X549275Y311150D02*
X549275Y349250D01*
X544513Y354013D01*
X533400Y354013D02*
X525463Y354013D01*
X533400Y354013D02*
X544513Y354013D01*
X525463Y344488D02*
X525463Y311150D01*
X525463Y344488D02*
X525463Y354013D01*
X577850Y311150D02*
X578800Y310700D01*
X525463Y311150D02*
X523800Y310700D01*
X469900Y225425D02*
X468313Y225425D01*
X533400Y354013D02*
X533400Y444500D01*
X534988Y444500D02*
X534988Y546100D01*
X534988Y444500D02*
X533400Y444500D01*
X534988Y546100D02*
X534988Y647700D01*
X534988Y749300D01*
X534988Y850900D01*
X534988Y950913D02*
X533400Y952500D01*
X534988Y950913D02*
X534988Y850900D01*
D15*
X442913Y188913D03*
X463550Y157163D03*
X468313Y225425D03*
X469900Y125413D03*
X533400Y444500D03*
X534988Y546100D03*
X534988Y647700D03*
X534988Y749300D03*
X534988Y850900D03*
X533400Y952500D03*
X525463Y344488D03*
D14*
X442913Y188913D02*
X444500Y187325D01*
X444500Y177800D01*
X464344Y157956D01*
X469900Y152400D02*
X469900Y125413D01*
X469900Y152400D02*
X464344Y157956D01*
D16*
X495300Y292100D03*
D14*
X500063Y287338D01*
X495300Y292100D02*
X457200Y292100D01*
X444500Y304800D01*
X419100Y304800D01*
X406400Y292100D01*
X406400Y279400D01*
X444500Y241300D01*
X457200Y241300D01*
X469900Y228600D01*
X469900Y225425D01*
X578800Y310700D02*
X587375Y319275D01*
X587375Y330200D01*
X444500Y190500D02*
X393700Y190500D01*
X501650Y128588D02*
X508000Y122238D01*
X501650Y204788D02*
X501650Y277813D01*
X501650Y204788D02*
X501650Y165100D01*
X501650Y128588D01*
X501650Y277813D02*
X503238Y279400D01*
X506413Y282575D02*
X517525Y282575D01*
X518160Y282700D01*
X566738Y330200D02*
X569913Y327025D01*
X566738Y330200D02*
X566738Y346075D01*
X566738Y509588D02*
X558800Y517525D01*
X566738Y415925D02*
X566738Y346075D01*
X566738Y415925D02*
X566738Y504825D01*
X566738Y509588D01*
X558800Y517525D02*
X558800Y619125D01*
X558800Y708025D01*
X558800Y720725D01*
X565150Y415925D02*
X566738Y415925D01*
X558800Y619125D02*
X557213Y619125D01*
X557213Y708025D02*
X558800Y708025D01*
X558800Y720725D02*
X558800Y822325D01*
X558800Y854075D01*
X558800Y822325D02*
X557213Y822325D01*
D15*
X508000Y122238D03*
X501650Y204788D03*
X569913Y327025D03*
X566738Y346075D03*
X558800Y517525D03*
X558800Y720725D03*
X566738Y504825D03*
X565150Y415925D03*
X557213Y619125D03*
X557213Y708025D03*
X558800Y854075D03*
X557213Y822325D03*
X549275Y158750D03*
D16*
X431800Y279400D03*
D14*
X503238Y279400D01*
X506413Y282575D01*
D15*
X419100Y127000D03*
D17*
X542925Y165100D02*
X549275Y158750D01*
X542925Y165100D02*
X501650Y165100D01*
X263525Y349250D02*
X236538Y322263D01*
X263525Y349250D02*
X263525Y355600D01*
D15*
X236538Y322263D03*
X263525Y355600D03*
D17*
X322263Y323850D02*
X360363Y361950D01*
D15*
X322263Y323850D03*
X360363Y361950D03*
D17*
X233363Y315913D02*
X103188Y446088D01*
X233363Y315913D02*
X398463Y315913D01*
D15*
X103188Y446088D03*
X398463Y315913D03*
D17*
X258763Y463550D02*
X220663Y425450D01*
D15*
X220663Y425450D03*
X258763Y463550D03*
D17*
X322263Y425450D02*
X360363Y463550D01*
D15*
X322263Y425450D03*
X360363Y463550D03*
D17*
X263525Y552450D02*
X236538Y525463D01*
X263525Y552450D02*
X263525Y558800D01*
D15*
X236538Y525463D03*
X263525Y558800D03*
D17*
X322263Y527050D02*
X360363Y565150D01*
D15*
X322263Y527050D03*
X360363Y565150D03*
D17*
X233363Y519113D02*
X103188Y649288D01*
X233363Y519113D02*
X398463Y519113D01*
D15*
X103188Y649288D03*
X398463Y519113D03*
D17*
X258763Y666750D02*
X220663Y628650D01*
D15*
X220663Y628650D03*
X258763Y666750D03*
D17*
X322263Y628650D02*
X360363Y666750D01*
D15*
X322263Y628650D03*
X360363Y666750D03*
D17*
X258763Y234950D02*
X220663Y196850D01*
D15*
X220663Y196850D03*
X258763Y234950D03*
D17*
X322263Y196850D02*
X360363Y234950D01*
D15*
X322263Y196850D03*
X360363Y234950D03*
D17*
X236538Y728663D02*
X263525Y755650D01*
X263525Y762000D01*
D15*
X236538Y728663D03*
X263525Y762000D03*
D17*
X322263Y730250D02*
X360363Y768350D01*
D15*
X322263Y730250D03*
X360363Y768350D03*
D17*
X233363Y722313D02*
X103188Y852488D01*
X233363Y722313D02*
X398463Y722313D01*
D15*
X103188Y852488D03*
X398463Y722313D03*
D17*
X258763Y869950D02*
X220663Y831850D01*
D15*
X220663Y831850D03*
X258763Y869950D03*
D17*
X322263Y831850D02*
X360363Y869950D01*
D15*
X322263Y831850D03*
X360363Y869950D03*
D17*
X258763Y971550D02*
X220663Y933450D01*
D15*
X220663Y933450D03*
X258763Y971550D03*
D17*
X322263Y933450D02*
X360363Y971550D01*
D15*
X322263Y933450D03*
X360363Y971550D03*
D17*
X463550Y330200D02*
X482600Y311150D01*
X482600Y309563D01*
X541338Y312738D02*
X541338Y346075D01*
D15*
X463550Y330200D03*
X482600Y309563D03*
X541338Y312738D03*
X541338Y346075D03*
D17*
X461963Y436563D02*
X474663Y449263D01*
X474663Y477838D01*
D15*
X461963Y436563D03*
X474663Y477838D03*
D17*
X463550Y533400D02*
X506413Y533400D01*
X506413Y528638D01*
X517525Y517525D01*
D15*
X463550Y533400D03*
X517525Y517525D03*
D17*
X457200Y639763D02*
X457200Y674688D01*
D15*
X457200Y639763D03*
X457200Y674688D03*
D17*
X463550Y736600D02*
X506413Y736600D01*
X506413Y731838D01*
X517525Y720725D01*
D15*
X463550Y736600D03*
X517525Y720725D03*
D17*
X457200Y842963D02*
X457200Y877888D01*
D15*
X457200Y842963D03*
X457200Y877888D03*
D17*
X461963Y944563D02*
X527050Y944563D01*
X527050Y955675D01*
X530225Y958850D01*
X542925Y958850D01*
X542925Y955675D01*
D15*
X461963Y944563D03*
X542925Y955675D03*
D17*
X484188Y320675D02*
X503238Y301625D01*
X484188Y320675D02*
X484188Y476250D01*
D15*
X503238Y301625D03*
X484188Y476250D03*
D17*
X527050Y517525D02*
X463550Y581025D01*
X463550Y666750D01*
D15*
X527050Y517525D03*
X463550Y666750D03*
D17*
X527050Y720725D02*
X463550Y784225D01*
X463550Y869950D01*
D15*
X527050Y720725D03*
X463550Y869950D03*
D17*
X461963Y144463D02*
X400050Y82550D01*
X138113Y82550D01*
D15*
X461963Y144463D03*
X138113Y82550D03*
D17*
X339725Y88900D02*
X357188Y106363D01*
D15*
X357188Y106363D03*
X339725Y88900D03*
X549275Y114300D03*
D17*
X536575Y101600D01*
X525011Y101600D01*
X487165Y63754D01*
X130825Y63754D01*
X120904Y73675D01*
X120904Y91425D01*
X355600Y177800D02*
X368300Y190500D01*
X207279Y177800D02*
X120904Y91425D01*
X207279Y177800D02*
X355600Y177800D01*
X477838Y195263D02*
X481013Y192088D01*
X477838Y195263D02*
X477838Y211138D01*
D15*
X481013Y192088D03*
X477838Y211138D03*
D17*
X488950Y198438D02*
X493713Y203200D01*
X493713Y233363D01*
D15*
X488950Y198438D03*
X493713Y233363D03*
X536575Y136525D03*
D17*
X536575Y123825D01*
X482600Y69850D01*
X133350Y69850D02*
X127000Y76200D01*
X127000Y88900D01*
X177800Y139700D02*
X368300Y139700D01*
X482600Y69850D02*
X133350Y69850D01*
X127000Y88900D02*
X177800Y139700D01*
D15*
X523875Y136525D03*
D17*
X523875Y117475D01*
X482600Y76200D02*
X368300Y76200D01*
X482600Y76200D02*
X523875Y117475D01*
X431800Y127000D02*
X393700Y165100D01*
X431800Y127000D02*
X431800Y118611D01*
X402089Y88900D02*
X368300Y88900D01*
X402089Y88900D02*
X431800Y118611D01*
D15*
X368300Y88900D03*
X368300Y76200D03*
X542925Y146050D03*
D17*
X542643Y145768D01*
X542643Y124487D01*
X132087Y66802D02*
X123952Y74937D01*
X484959Y66802D02*
X542643Y124487D01*
X484959Y66802D02*
X132087Y66802D01*
X123952Y90163D02*
X198889Y165100D01*
X123952Y90163D02*
X123952Y74937D01*
X198889Y165100D02*
X368300Y165100D01*
M02*
