G04 EAGLE Gerber RS-274X export*
G75*
%MOMM*%
%FSLAX34Y34*%
%LPD*%
%INSolderpaste Top*%
%IPPOS*%
%AMOC8*
5,1,8,0,0,1.08239X$1,22.5*%
G01*
%ADD10R,1.100000X2.000000*%
%ADD11R,1.000000X1.100000*%
%ADD12R,1.600000X2.300000*%
%ADD13R,2.300000X1.600000*%
%ADD14R,1.000000X0.600000*%
%ADD15R,0.900000X0.700000*%
%ADD16R,1.100000X1.000000*%
%ADD17C,0.150000*%
%ADD18R,3.200000X3.200000*%
%ADD19R,1.600000X0.400000*%
%ADD20R,2.600000X2.400000*%


D10*
X71900Y322900D03*
X105900Y322900D03*
X105900Y362900D03*
X71900Y362900D03*
D11*
X127000Y334400D03*
X127000Y351400D03*
D10*
X173500Y322900D03*
X207500Y322900D03*
X207500Y362900D03*
X173500Y362900D03*
D11*
X228600Y334400D03*
X228600Y351400D03*
D10*
X275100Y322900D03*
X309100Y322900D03*
X309100Y362900D03*
X275100Y362900D03*
D11*
X330200Y334400D03*
X330200Y351400D03*
D10*
X376700Y322900D03*
X410700Y322900D03*
X410700Y362900D03*
X376700Y362900D03*
D11*
X431800Y334400D03*
X431800Y351400D03*
D10*
X71900Y424500D03*
X105900Y424500D03*
X105900Y464500D03*
X71900Y464500D03*
D11*
X127000Y436000D03*
X127000Y453000D03*
D10*
X173500Y424500D03*
X207500Y424500D03*
X207500Y464500D03*
X173500Y464500D03*
D11*
X228600Y436000D03*
X228600Y453000D03*
D10*
X275100Y424500D03*
X309100Y424500D03*
X309100Y464500D03*
X275100Y464500D03*
D11*
X330200Y436000D03*
X330200Y453000D03*
D10*
X376700Y424500D03*
X410700Y424500D03*
X410700Y464500D03*
X376700Y464500D03*
D11*
X431800Y436000D03*
X431800Y453000D03*
D10*
X71900Y526100D03*
X105900Y526100D03*
X105900Y566100D03*
X71900Y566100D03*
D11*
X127000Y537600D03*
X127000Y554600D03*
D10*
X173500Y526100D03*
X207500Y526100D03*
X207500Y566100D03*
X173500Y566100D03*
D11*
X228600Y537600D03*
X228600Y554600D03*
D10*
X275100Y526100D03*
X309100Y526100D03*
X309100Y566100D03*
X275100Y566100D03*
D11*
X330200Y537600D03*
X330200Y554600D03*
D10*
X376700Y526100D03*
X410700Y526100D03*
X410700Y566100D03*
X376700Y566100D03*
D11*
X431800Y537600D03*
X431800Y554600D03*
D10*
X71900Y627700D03*
X105900Y627700D03*
X105900Y667700D03*
X71900Y667700D03*
D11*
X127000Y639200D03*
X127000Y656200D03*
D10*
X173500Y627700D03*
X207500Y627700D03*
X207500Y667700D03*
X173500Y667700D03*
D11*
X228600Y639200D03*
X228600Y656200D03*
D10*
X275100Y627700D03*
X309100Y627700D03*
X309100Y667700D03*
X275100Y667700D03*
D11*
X330200Y639200D03*
X330200Y656200D03*
D10*
X376700Y627700D03*
X410700Y627700D03*
X410700Y667700D03*
X376700Y667700D03*
D11*
X431800Y639200D03*
X431800Y656200D03*
D12*
X88900Y82800D03*
X88900Y145800D03*
D10*
X71900Y195900D03*
X105900Y195900D03*
X105900Y235900D03*
X71900Y235900D03*
D11*
X127000Y207400D03*
X127000Y224400D03*
D10*
X173500Y195900D03*
X207500Y195900D03*
X207500Y235900D03*
X173500Y235900D03*
D11*
X228600Y207400D03*
X228600Y224400D03*
D10*
X275100Y195900D03*
X309100Y195900D03*
X309100Y235900D03*
X275100Y235900D03*
D11*
X330200Y207400D03*
X330200Y224400D03*
D10*
X376700Y195900D03*
X410700Y195900D03*
X410700Y235900D03*
X376700Y235900D03*
D11*
X431800Y207400D03*
X431800Y224400D03*
D12*
X190500Y82800D03*
X190500Y145800D03*
X292100Y82800D03*
X292100Y145800D03*
X393700Y82800D03*
X393700Y145800D03*
D13*
X476500Y88900D03*
X539500Y88900D03*
D10*
X71900Y729300D03*
X105900Y729300D03*
X105900Y769300D03*
X71900Y769300D03*
D11*
X127000Y740800D03*
X127000Y757800D03*
D10*
X173500Y729300D03*
X207500Y729300D03*
X207500Y769300D03*
X173500Y769300D03*
D11*
X228600Y740800D03*
X228600Y757800D03*
D10*
X275100Y729300D03*
X309100Y729300D03*
X309100Y769300D03*
X275100Y769300D03*
D11*
X330200Y740800D03*
X330200Y757800D03*
D10*
X376700Y729300D03*
X410700Y729300D03*
X410700Y769300D03*
X376700Y769300D03*
D11*
X431800Y740800D03*
X431800Y757800D03*
D10*
X71900Y830900D03*
X105900Y830900D03*
X105900Y870900D03*
X71900Y870900D03*
D11*
X127000Y842400D03*
X127000Y859400D03*
D10*
X173500Y830900D03*
X207500Y830900D03*
X207500Y870900D03*
X173500Y870900D03*
D11*
X228600Y842400D03*
X228600Y859400D03*
D10*
X275100Y830900D03*
X309100Y830900D03*
X309100Y870900D03*
X275100Y870900D03*
D11*
X330200Y842400D03*
X330200Y859400D03*
D10*
X376700Y830900D03*
X410700Y830900D03*
X410700Y870900D03*
X376700Y870900D03*
D11*
X431800Y842400D03*
X431800Y859400D03*
D10*
X71900Y932500D03*
X105900Y932500D03*
X105900Y972500D03*
X71900Y972500D03*
D11*
X127000Y944000D03*
X127000Y961000D03*
D10*
X173500Y932500D03*
X207500Y932500D03*
X207500Y972500D03*
X173500Y972500D03*
D11*
X228600Y944000D03*
X228600Y961000D03*
D10*
X275100Y932500D03*
X309100Y932500D03*
X309100Y972500D03*
X275100Y972500D03*
D11*
X330200Y944000D03*
X330200Y961000D03*
D10*
X376700Y932500D03*
X410700Y932500D03*
X410700Y972500D03*
X376700Y972500D03*
D11*
X431800Y944000D03*
X431800Y961000D03*
D14*
X493150Y323000D03*
X493150Y336000D03*
X473650Y336000D03*
X473650Y323000D03*
X543950Y323000D03*
X543950Y336000D03*
X524450Y336000D03*
X524450Y323000D03*
X493150Y354750D03*
X493150Y367750D03*
X473650Y367750D03*
X473650Y354750D03*
X543950Y354750D03*
X543950Y367750D03*
X524450Y367750D03*
X524450Y354750D03*
D15*
X508000Y355450D03*
X508000Y368450D03*
X558800Y355450D03*
X558800Y368450D03*
X558800Y323700D03*
X558800Y336700D03*
X508000Y323700D03*
X508000Y336700D03*
D14*
X493150Y424600D03*
X493150Y437600D03*
X473650Y437600D03*
X473650Y424600D03*
X543950Y424600D03*
X543950Y437600D03*
X524450Y437600D03*
X524450Y424600D03*
X493150Y456350D03*
X493150Y469350D03*
X473650Y469350D03*
X473650Y456350D03*
X543950Y456350D03*
X543950Y469350D03*
X524450Y469350D03*
X524450Y456350D03*
D15*
X508000Y457050D03*
X508000Y470050D03*
X558800Y457050D03*
X558800Y470050D03*
X558800Y425300D03*
X558800Y438300D03*
X508000Y425300D03*
X508000Y438300D03*
D14*
X493150Y526200D03*
X493150Y539200D03*
X473650Y539200D03*
X473650Y526200D03*
X543950Y526200D03*
X543950Y539200D03*
X524450Y539200D03*
X524450Y526200D03*
X493150Y557950D03*
X493150Y570950D03*
X473650Y570950D03*
X473650Y557950D03*
X543950Y557950D03*
X543950Y570950D03*
X524450Y570950D03*
X524450Y557950D03*
D15*
X508000Y558650D03*
X508000Y571650D03*
X558800Y558650D03*
X558800Y571650D03*
X558800Y526900D03*
X558800Y539900D03*
X508000Y526900D03*
X508000Y539900D03*
D14*
X493150Y627800D03*
X493150Y640800D03*
X473650Y640800D03*
X473650Y627800D03*
X543950Y627800D03*
X543950Y640800D03*
X524450Y640800D03*
X524450Y627800D03*
X493150Y659550D03*
X493150Y672550D03*
X473650Y672550D03*
X473650Y659550D03*
X543950Y659550D03*
X543950Y672550D03*
X524450Y672550D03*
X524450Y659550D03*
D15*
X508000Y660250D03*
X508000Y673250D03*
X558800Y660250D03*
X558800Y673250D03*
X558800Y628500D03*
X558800Y641500D03*
X508000Y628500D03*
X508000Y641500D03*
D14*
X493150Y729400D03*
X493150Y742400D03*
X473650Y742400D03*
X473650Y729400D03*
X543950Y729400D03*
X543950Y742400D03*
X524450Y742400D03*
X524450Y729400D03*
X493150Y761150D03*
X493150Y774150D03*
X473650Y774150D03*
X473650Y761150D03*
X543950Y761150D03*
X543950Y774150D03*
X524450Y774150D03*
X524450Y761150D03*
D15*
X508000Y761850D03*
X508000Y774850D03*
X558800Y761850D03*
X558800Y774850D03*
X558800Y730100D03*
X558800Y743100D03*
X508000Y730100D03*
X508000Y743100D03*
D14*
X493150Y831000D03*
X493150Y844000D03*
X473650Y844000D03*
X473650Y831000D03*
X543950Y831000D03*
X543950Y844000D03*
X524450Y844000D03*
X524450Y831000D03*
X493150Y862750D03*
X493150Y875750D03*
X473650Y875750D03*
X473650Y862750D03*
X543950Y862750D03*
X543950Y875750D03*
X524450Y875750D03*
X524450Y862750D03*
D15*
X508000Y863450D03*
X508000Y876450D03*
X558800Y863450D03*
X558800Y876450D03*
X558800Y831700D03*
X558800Y844700D03*
X508000Y831700D03*
X508000Y844700D03*
D14*
X493150Y932600D03*
X493150Y945600D03*
X473650Y945600D03*
X473650Y932600D03*
X543950Y932600D03*
X543950Y945600D03*
X524450Y945600D03*
X524450Y932600D03*
X493150Y964350D03*
X493150Y977350D03*
X473650Y977350D03*
X473650Y964350D03*
X543950Y964350D03*
X543950Y977350D03*
X524450Y977350D03*
X524450Y964350D03*
D15*
X508000Y965050D03*
X508000Y978050D03*
X558800Y965050D03*
X558800Y978050D03*
X558800Y933300D03*
X558800Y946300D03*
X508000Y933300D03*
X508000Y946300D03*
D16*
X127000Y80400D03*
X127000Y97400D03*
X228600Y80400D03*
X228600Y97400D03*
X330200Y80400D03*
X330200Y97400D03*
X431800Y80400D03*
X431800Y97400D03*
D11*
X497450Y120650D03*
X480450Y120650D03*
D17*
X488100Y188200D02*
X493600Y188200D01*
X488100Y188200D02*
X488100Y189700D01*
X493600Y189700D01*
X493600Y188200D01*
X493600Y189625D02*
X488100Y189625D01*
X488100Y183200D02*
X493600Y183200D01*
X488100Y183200D02*
X488100Y184700D01*
X493600Y184700D01*
X493600Y183200D01*
X493600Y184625D02*
X488100Y184625D01*
X488100Y178200D02*
X493600Y178200D01*
X488100Y178200D02*
X488100Y179700D01*
X493600Y179700D01*
X493600Y178200D01*
X493600Y179625D02*
X488100Y179625D01*
X488100Y173200D02*
X493600Y173200D01*
X488100Y173200D02*
X488100Y174700D01*
X493600Y174700D01*
X493600Y173200D01*
X493600Y174625D02*
X488100Y174625D01*
X488100Y168200D02*
X493600Y168200D01*
X488100Y168200D02*
X488100Y169700D01*
X493600Y169700D01*
X493600Y168200D01*
X493600Y169625D02*
X488100Y169625D01*
X488100Y163200D02*
X493600Y163200D01*
X488100Y163200D02*
X488100Y164700D01*
X493600Y164700D01*
X493600Y163200D01*
X493600Y164625D02*
X488100Y164625D01*
X488100Y158200D02*
X493600Y158200D01*
X488100Y158200D02*
X488100Y159700D01*
X493600Y159700D01*
X493600Y158200D01*
X493600Y159625D02*
X488100Y159625D01*
X488100Y153200D02*
X493600Y153200D01*
X488100Y153200D02*
X488100Y154700D01*
X493600Y154700D01*
X493600Y153200D01*
X493600Y154625D02*
X488100Y154625D01*
X496100Y145200D02*
X497600Y145200D01*
X496100Y145200D02*
X496100Y150700D01*
X497600Y150700D01*
X497600Y145200D01*
X497600Y146625D02*
X496100Y146625D01*
X496100Y148050D02*
X497600Y148050D01*
X497600Y149475D02*
X496100Y149475D01*
X501100Y145200D02*
X502600Y145200D01*
X501100Y145200D02*
X501100Y150700D01*
X502600Y150700D01*
X502600Y145200D01*
X502600Y146625D02*
X501100Y146625D01*
X501100Y148050D02*
X502600Y148050D01*
X502600Y149475D02*
X501100Y149475D01*
X506100Y145200D02*
X507600Y145200D01*
X506100Y145200D02*
X506100Y150700D01*
X507600Y150700D01*
X507600Y145200D01*
X507600Y146625D02*
X506100Y146625D01*
X506100Y148050D02*
X507600Y148050D01*
X507600Y149475D02*
X506100Y149475D01*
X511100Y145200D02*
X512600Y145200D01*
X511100Y145200D02*
X511100Y150700D01*
X512600Y150700D01*
X512600Y145200D01*
X512600Y146625D02*
X511100Y146625D01*
X511100Y148050D02*
X512600Y148050D01*
X512600Y149475D02*
X511100Y149475D01*
X516100Y145200D02*
X517600Y145200D01*
X516100Y145200D02*
X516100Y150700D01*
X517600Y150700D01*
X517600Y145200D01*
X517600Y146625D02*
X516100Y146625D01*
X516100Y148050D02*
X517600Y148050D01*
X517600Y149475D02*
X516100Y149475D01*
X521100Y145200D02*
X522600Y145200D01*
X521100Y145200D02*
X521100Y150700D01*
X522600Y150700D01*
X522600Y145200D01*
X522600Y146625D02*
X521100Y146625D01*
X521100Y148050D02*
X522600Y148050D01*
X522600Y149475D02*
X521100Y149475D01*
X526100Y145200D02*
X527600Y145200D01*
X526100Y145200D02*
X526100Y150700D01*
X527600Y150700D01*
X527600Y145200D01*
X527600Y146625D02*
X526100Y146625D01*
X526100Y148050D02*
X527600Y148050D01*
X527600Y149475D02*
X526100Y149475D01*
X531100Y145200D02*
X532600Y145200D01*
X531100Y145200D02*
X531100Y150700D01*
X532600Y150700D01*
X532600Y145200D01*
X532600Y146625D02*
X531100Y146625D01*
X531100Y148050D02*
X532600Y148050D01*
X532600Y149475D02*
X531100Y149475D01*
X535100Y153200D02*
X540600Y153200D01*
X535100Y153200D02*
X535100Y154700D01*
X540600Y154700D01*
X540600Y153200D01*
X540600Y154625D02*
X535100Y154625D01*
X535100Y158200D02*
X540600Y158200D01*
X535100Y158200D02*
X535100Y159700D01*
X540600Y159700D01*
X540600Y158200D01*
X540600Y159625D02*
X535100Y159625D01*
X535100Y163200D02*
X540600Y163200D01*
X535100Y163200D02*
X535100Y164700D01*
X540600Y164700D01*
X540600Y163200D01*
X540600Y164625D02*
X535100Y164625D01*
X535100Y168200D02*
X540600Y168200D01*
X535100Y168200D02*
X535100Y169700D01*
X540600Y169700D01*
X540600Y168200D01*
X540600Y169625D02*
X535100Y169625D01*
X535100Y173200D02*
X540600Y173200D01*
X535100Y173200D02*
X535100Y174700D01*
X540600Y174700D01*
X540600Y173200D01*
X540600Y174625D02*
X535100Y174625D01*
X535100Y178200D02*
X540600Y178200D01*
X535100Y178200D02*
X535100Y179700D01*
X540600Y179700D01*
X540600Y178200D01*
X540600Y179625D02*
X535100Y179625D01*
X535100Y183200D02*
X540600Y183200D01*
X535100Y183200D02*
X535100Y184700D01*
X540600Y184700D01*
X540600Y183200D01*
X540600Y184625D02*
X535100Y184625D01*
X535100Y188200D02*
X540600Y188200D01*
X535100Y188200D02*
X535100Y189700D01*
X540600Y189700D01*
X540600Y188200D01*
X540600Y189625D02*
X535100Y189625D01*
X532600Y192200D02*
X531100Y192200D01*
X531100Y197700D01*
X532600Y197700D01*
X532600Y192200D01*
X532600Y193625D02*
X531100Y193625D01*
X531100Y195050D02*
X532600Y195050D01*
X532600Y196475D02*
X531100Y196475D01*
X527600Y192200D02*
X526100Y192200D01*
X526100Y197700D01*
X527600Y197700D01*
X527600Y192200D01*
X527600Y193625D02*
X526100Y193625D01*
X526100Y195050D02*
X527600Y195050D01*
X527600Y196475D02*
X526100Y196475D01*
X522600Y192200D02*
X521100Y192200D01*
X521100Y197700D01*
X522600Y197700D01*
X522600Y192200D01*
X522600Y193625D02*
X521100Y193625D01*
X521100Y195050D02*
X522600Y195050D01*
X522600Y196475D02*
X521100Y196475D01*
X517600Y192200D02*
X516100Y192200D01*
X516100Y197700D01*
X517600Y197700D01*
X517600Y192200D01*
X517600Y193625D02*
X516100Y193625D01*
X516100Y195050D02*
X517600Y195050D01*
X517600Y196475D02*
X516100Y196475D01*
X512600Y192200D02*
X511100Y192200D01*
X511100Y197700D01*
X512600Y197700D01*
X512600Y192200D01*
X512600Y193625D02*
X511100Y193625D01*
X511100Y195050D02*
X512600Y195050D01*
X512600Y196475D02*
X511100Y196475D01*
X507600Y192200D02*
X506100Y192200D01*
X506100Y197700D01*
X507600Y197700D01*
X507600Y192200D01*
X507600Y193625D02*
X506100Y193625D01*
X506100Y195050D02*
X507600Y195050D01*
X507600Y196475D02*
X506100Y196475D01*
X502600Y192200D02*
X501100Y192200D01*
X501100Y197700D01*
X502600Y197700D01*
X502600Y192200D01*
X502600Y193625D02*
X501100Y193625D01*
X501100Y195050D02*
X502600Y195050D01*
X502600Y196475D02*
X501100Y196475D01*
X497600Y192200D02*
X496100Y192200D01*
X496100Y197700D01*
X497600Y197700D01*
X497600Y192200D01*
X497600Y193625D02*
X496100Y193625D01*
X496100Y195050D02*
X497600Y195050D01*
X497600Y196475D02*
X496100Y196475D01*
D18*
X514350Y171450D03*
D19*
X444500Y137400D03*
X444500Y152400D03*
X444500Y167400D03*
D11*
X518550Y120650D03*
X535550Y120650D03*
D15*
X457200Y190350D03*
X457200Y203350D03*
D20*
X456950Y273050D03*
X520950Y273050D03*
D11*
X480450Y222250D03*
X497450Y222250D03*
X524900Y222250D03*
X541900Y222250D03*
M02*
