G04 EAGLE Gerber RS-274X export*
G75*
%MOMM*%
%FSLAX34Y34*%
%LPD*%
%INSoldermask Bottom*%
%IPPOS*%
%AMOC8*
5,1,8,0,0,1.08239X$1,22.5*%
G01*
%ADD10R,2.603200X2.203200*%
%ADD11R,2.511200X0.703200*%
%ADD12C,1.203200*%
%ADD13R,1.473200X2.743200*%
%ADD14R,2.743200X1.473200*%
%ADD15C,0.959600*%
%ADD16C,1.059600*%


D10*
X523800Y310700D03*
D11*
X518160Y282700D03*
X518160Y274700D03*
X518160Y266700D03*
X518160Y258700D03*
X518160Y250700D03*
D10*
X578800Y310700D03*
X523800Y222700D03*
X578800Y222700D03*
D12*
X548800Y288700D03*
X548800Y244700D03*
D13*
X368300Y139700D03*
D14*
X393700Y139700D03*
X368300Y165100D03*
D13*
X393700Y165100D03*
X368300Y190500D03*
D14*
X393700Y190500D03*
D15*
X442913Y188913D03*
X463550Y157163D03*
X468313Y225425D03*
X469900Y125413D03*
X533400Y444500D03*
X534988Y546100D03*
X534988Y647700D03*
X534988Y749300D03*
X534988Y850900D03*
X533400Y952500D03*
X525463Y344488D03*
D16*
X495300Y292100D03*
D15*
X508000Y122238D03*
X501650Y204788D03*
X569913Y327025D03*
X566738Y346075D03*
X558800Y517525D03*
X558800Y720725D03*
X566738Y504825D03*
X565150Y415925D03*
X557213Y619125D03*
X557213Y708025D03*
X558800Y854075D03*
X557213Y822325D03*
X549275Y158750D03*
D16*
X431800Y279400D03*
D15*
X419100Y127000D03*
X236538Y322263D03*
X263525Y355600D03*
X322263Y323850D03*
X360363Y361950D03*
X103188Y446088D03*
X398463Y315913D03*
X220663Y425450D03*
X258763Y463550D03*
X322263Y425450D03*
X360363Y463550D03*
X236538Y525463D03*
X263525Y558800D03*
X322263Y527050D03*
X360363Y565150D03*
X103188Y649288D03*
X398463Y519113D03*
X220663Y628650D03*
X258763Y666750D03*
X322263Y628650D03*
X360363Y666750D03*
X220663Y196850D03*
X258763Y234950D03*
X322263Y196850D03*
X360363Y234950D03*
X236538Y728663D03*
X263525Y762000D03*
X322263Y730250D03*
X360363Y768350D03*
X103188Y852488D03*
X398463Y722313D03*
X220663Y831850D03*
X258763Y869950D03*
X322263Y831850D03*
X360363Y869950D03*
X220663Y933450D03*
X258763Y971550D03*
X322263Y933450D03*
X360363Y971550D03*
X463550Y330200D03*
X482600Y309563D03*
X541338Y312738D03*
X541338Y346075D03*
X461963Y436563D03*
X474663Y477838D03*
X463550Y533400D03*
X517525Y517525D03*
X457200Y639763D03*
X457200Y674688D03*
X463550Y736600D03*
X517525Y720725D03*
X457200Y842963D03*
X457200Y877888D03*
X461963Y944563D03*
X542925Y955675D03*
X503238Y301625D03*
X484188Y476250D03*
X527050Y517525D03*
X463550Y666750D03*
X527050Y720725D03*
X463550Y869950D03*
X461963Y144463D03*
X138113Y82550D03*
X357188Y106363D03*
X339725Y88900D03*
X549275Y114300D03*
X481013Y192088D03*
X477838Y211138D03*
X488950Y198438D03*
X493713Y233363D03*
X536575Y136525D03*
X523875Y136525D03*
X368300Y88900D03*
X368300Y76200D03*
X542925Y146050D03*
M02*
