M48
;GenerationSoftware,Autodesk,EAGLE,9.2.2*%
;CreationDate,2019-04-15T12:47:27Z*%
FMAT,2
ICI,OFF
METRIC,TZ,000.000
T4C0.350
T3C0.450
T2C1.000
%
G90
M71
T2
X54880Y24470
X54880Y28870
T3
X43180Y27940
X49530Y29210
T4
X51752Y72073
X32226Y73025
X46355Y73660
X45720Y67469
X45720Y63976
X51752Y51752
X46355Y53340
X47466Y47784
X46196Y43656
X54134Y34608
X54134Y31274
X48260Y30956
X46355Y33020
X36036Y97155
X32226Y93345
X25876Y97155
X22066Y93345
X36036Y86995
X32226Y83185
X25876Y86995
X22066Y83185
X39846Y72231
X10319Y85249
X36036Y76835
X23654Y72866
X35719Y10636
X54292Y14605
X36830Y7620
X36830Y8890
X52387Y13652
X53657Y13652
X49371Y23336
X48895Y19844
X47784Y21114
X48101Y19209
X54927Y11430
X33973Y8890
X45720Y84296
X13811Y8255
X46196Y14446
X46355Y86995
X52705Y72073
X46355Y66675
X52705Y51752
X48419Y47625
X50324Y30162
X54292Y95567
X46196Y94456
X45720Y87789
X50165Y20479
X41910Y12700
X54927Y15875
X55721Y82233
X55880Y85408
X55721Y70803
X55721Y61912
X56515Y41593
X56674Y50482
X55880Y72073
X55880Y51752
X56674Y34608
X56991Y32702
X23654Y32226
X50800Y12224
X52546Y34449
X53340Y95250
X53499Y85090
X53499Y74930
X53499Y64770
X53499Y54610
X53340Y44450
X46990Y12541
X46831Y22542
X46355Y15716
X32226Y52705
X44291Y18891
X36036Y23495
X32226Y19685
X25876Y23495
X22066Y19685
X36036Y66675
X32226Y62865
X25876Y66675
X22066Y62865
X39846Y51911
X10319Y64929
X36036Y56515
X26352Y76200
X26352Y55880
X23654Y52546
X36036Y46355
X32226Y42545
X25876Y46355
X22066Y42545
X39846Y31591
X10319Y44609
X36036Y36195
X32226Y32385
X26352Y35560
M30