G04 EAGLE Gerber RS-274X export*
G75*
%MOMM*%
%FSLAX34Y34*%
%LPD*%
%IN*%
%IPPOS*%
%AMOC8*
5,1,8,0,0,1.08239X$1,22.5*%
G01*
%ADD10C,0.254000*%


D10*
X25400Y38100D02*
X603250Y38100D01*
X603250Y1016000D01*
X25400Y1016000D01*
X25400Y38100D01*
X549081Y283700D02*
X549639Y283763D01*
X550186Y283888D01*
X550716Y284073D01*
X551222Y284317D01*
X551698Y284616D01*
X552137Y284966D01*
X552534Y285363D01*
X552884Y285802D01*
X553183Y286278D01*
X553427Y286784D01*
X553612Y287314D01*
X553737Y287861D01*
X553800Y288419D01*
X553800Y288981D01*
X553737Y289539D01*
X553612Y290086D01*
X553427Y290616D01*
X553183Y291122D01*
X552884Y291598D01*
X552534Y292037D01*
X552137Y292434D01*
X551698Y292784D01*
X551222Y293083D01*
X550716Y293327D01*
X550186Y293512D01*
X549639Y293637D01*
X549081Y293700D01*
X548519Y293700D01*
X547961Y293637D01*
X547414Y293512D01*
X546884Y293327D01*
X546378Y293083D01*
X545902Y292784D01*
X545463Y292434D01*
X545066Y292037D01*
X544716Y291598D01*
X544417Y291122D01*
X544173Y290616D01*
X543988Y290086D01*
X543863Y289539D01*
X543800Y288981D01*
X543800Y288419D01*
X543863Y287861D01*
X543988Y287314D01*
X544173Y286784D01*
X544417Y286278D01*
X544716Y285802D01*
X545066Y285363D01*
X545463Y284966D01*
X545902Y284616D01*
X546378Y284317D01*
X546884Y284073D01*
X547414Y283888D01*
X547961Y283763D01*
X548519Y283700D01*
X549081Y283700D01*
X549081Y239700D02*
X549639Y239763D01*
X550186Y239888D01*
X550716Y240073D01*
X551222Y240317D01*
X551698Y240616D01*
X552137Y240966D01*
X552534Y241363D01*
X552884Y241802D01*
X553183Y242278D01*
X553427Y242784D01*
X553612Y243314D01*
X553737Y243861D01*
X553800Y244419D01*
X553800Y244981D01*
X553737Y245539D01*
X553612Y246086D01*
X553427Y246616D01*
X553183Y247122D01*
X552884Y247598D01*
X552534Y248037D01*
X552137Y248434D01*
X551698Y248784D01*
X551222Y249083D01*
X550716Y249327D01*
X550186Y249512D01*
X549639Y249637D01*
X549081Y249700D01*
X548519Y249700D01*
X547961Y249637D01*
X547414Y249512D01*
X546884Y249327D01*
X546378Y249083D01*
X545902Y248784D01*
X545463Y248434D01*
X545066Y248037D01*
X544716Y247598D01*
X544417Y247122D01*
X544173Y246616D01*
X543988Y246086D01*
X543863Y245539D01*
X543800Y244981D01*
X543800Y244419D01*
X543863Y243861D01*
X543988Y243314D01*
X544173Y242784D01*
X544417Y242278D01*
X544716Y241802D01*
X545066Y241363D01*
X545463Y240966D01*
X545902Y240616D01*
X546378Y240317D01*
X546884Y240073D01*
X547414Y239888D01*
X547961Y239763D01*
X548519Y239700D01*
X549081Y239700D01*
M02*
