G04 EAGLE Gerber RS-274X export*
G75*
%MOMM*%
%FSLAX34Y34*%
%LPD*%
%INSilkscreen Bottom*%
%IPPOS*%
%AMOC8*
5,1,8,0,0,1.08239X$1,22.5*%
G01*
%ADD10C,0.101600*%
%ADD11C,0.406400*%
%ADD12C,0.127000*%


D10*
X393192Y966216D02*
X393192Y953008D01*
X389523Y953008D01*
X389430Y953010D01*
X389336Y953016D01*
X389243Y953026D01*
X389151Y953040D01*
X389059Y953057D01*
X388968Y953079D01*
X388879Y953104D01*
X388790Y953134D01*
X388702Y953167D01*
X388616Y953203D01*
X388532Y953244D01*
X388450Y953287D01*
X388369Y953335D01*
X388291Y953385D01*
X388214Y953439D01*
X388140Y953497D01*
X388069Y953557D01*
X388000Y953620D01*
X387934Y953686D01*
X387871Y953755D01*
X387811Y953826D01*
X387753Y953900D01*
X387699Y953976D01*
X387649Y954055D01*
X387602Y954136D01*
X387558Y954218D01*
X387517Y954302D01*
X387481Y954388D01*
X387448Y954476D01*
X387418Y954564D01*
X387393Y954654D01*
X387371Y954745D01*
X387354Y954837D01*
X387340Y954929D01*
X387330Y955022D01*
X387324Y955116D01*
X387322Y955209D01*
X387322Y959612D01*
X387324Y959703D01*
X387330Y959794D01*
X387339Y959884D01*
X387352Y959974D01*
X387369Y960064D01*
X387389Y960152D01*
X387414Y960240D01*
X387441Y960327D01*
X387473Y960412D01*
X387507Y960496D01*
X387546Y960579D01*
X387587Y960660D01*
X387632Y960739D01*
X387680Y960816D01*
X387732Y960891D01*
X387786Y960964D01*
X387843Y961035D01*
X387904Y961103D01*
X387967Y961168D01*
X388032Y961231D01*
X388101Y961292D01*
X388171Y961349D01*
X388244Y961403D01*
X388319Y961455D01*
X388396Y961503D01*
X388475Y961548D01*
X388556Y961589D01*
X388639Y961628D01*
X388723Y961662D01*
X388808Y961694D01*
X388895Y961722D01*
X388983Y961746D01*
X389071Y961766D01*
X389161Y961783D01*
X389251Y961796D01*
X389341Y961805D01*
X389432Y961811D01*
X389523Y961813D01*
X393192Y961813D01*
X382586Y948605D02*
X381119Y948605D01*
X376716Y961813D01*
X382586Y961813D02*
X379651Y953008D01*
X361851Y955943D02*
X361851Y966216D01*
X361852Y955943D02*
X361854Y955836D01*
X361860Y955729D01*
X361870Y955622D01*
X361883Y955516D01*
X361901Y955410D01*
X361922Y955305D01*
X361947Y955201D01*
X361976Y955097D01*
X362009Y954995D01*
X362046Y954895D01*
X362086Y954795D01*
X362130Y954697D01*
X362177Y954601D01*
X362228Y954507D01*
X362282Y954414D01*
X362339Y954324D01*
X362400Y954235D01*
X362464Y954149D01*
X362531Y954066D01*
X362601Y953984D01*
X362674Y953906D01*
X362750Y953830D01*
X362828Y953757D01*
X362910Y953687D01*
X362993Y953620D01*
X363079Y953556D01*
X363168Y953495D01*
X363258Y953438D01*
X363351Y953384D01*
X363445Y953333D01*
X363541Y953286D01*
X363639Y953242D01*
X363739Y953202D01*
X363839Y953165D01*
X363941Y953132D01*
X364045Y953103D01*
X364149Y953078D01*
X364254Y953057D01*
X364360Y953039D01*
X364466Y953026D01*
X364573Y953016D01*
X364680Y953010D01*
X364787Y953008D01*
X366254Y953008D01*
X356549Y953008D02*
X356549Y953742D01*
X355815Y953742D01*
X355815Y953008D01*
X356549Y953008D01*
X343516Y953008D02*
X343516Y966216D01*
X339113Y958878D01*
X334710Y966216D01*
X334710Y953008D01*
X326314Y958144D02*
X323012Y958144D01*
X326314Y958144D02*
X326414Y958142D01*
X326513Y958136D01*
X326612Y958127D01*
X326711Y958113D01*
X326809Y958096D01*
X326906Y958075D01*
X327003Y958050D01*
X327098Y958021D01*
X327192Y957989D01*
X327285Y957953D01*
X327377Y957914D01*
X327467Y957871D01*
X327555Y957824D01*
X327641Y957775D01*
X327725Y957722D01*
X327807Y957665D01*
X327887Y957606D01*
X327965Y957543D01*
X328040Y957478D01*
X328112Y957409D01*
X328182Y957338D01*
X328249Y957265D01*
X328313Y957188D01*
X328374Y957110D01*
X328432Y957028D01*
X328486Y956945D01*
X328538Y956860D01*
X328586Y956773D01*
X328631Y956684D01*
X328672Y956593D01*
X328710Y956501D01*
X328744Y956407D01*
X328774Y956313D01*
X328801Y956217D01*
X328824Y956120D01*
X328843Y956022D01*
X328858Y955924D01*
X328870Y955825D01*
X328878Y955725D01*
X328882Y955626D01*
X328882Y955526D01*
X328878Y955427D01*
X328870Y955327D01*
X328858Y955228D01*
X328843Y955130D01*
X328824Y955032D01*
X328801Y954935D01*
X328774Y954839D01*
X328744Y954745D01*
X328710Y954651D01*
X328672Y954559D01*
X328631Y954468D01*
X328586Y954379D01*
X328538Y954292D01*
X328486Y954207D01*
X328432Y954124D01*
X328374Y954042D01*
X328313Y953964D01*
X328249Y953887D01*
X328182Y953814D01*
X328112Y953743D01*
X328040Y953674D01*
X327965Y953609D01*
X327887Y953546D01*
X327807Y953487D01*
X327725Y953430D01*
X327641Y953377D01*
X327555Y953328D01*
X327467Y953281D01*
X327377Y953238D01*
X327285Y953199D01*
X327192Y953163D01*
X327098Y953131D01*
X327003Y953102D01*
X326906Y953077D01*
X326809Y953056D01*
X326711Y953039D01*
X326612Y953025D01*
X326513Y953016D01*
X326414Y953010D01*
X326314Y953008D01*
X323012Y953008D01*
X323012Y959612D01*
X323014Y959703D01*
X323020Y959794D01*
X323029Y959884D01*
X323042Y959974D01*
X323059Y960064D01*
X323079Y960152D01*
X323104Y960240D01*
X323131Y960327D01*
X323163Y960412D01*
X323197Y960496D01*
X323236Y960579D01*
X323277Y960660D01*
X323322Y960739D01*
X323370Y960816D01*
X323422Y960891D01*
X323476Y960964D01*
X323533Y961035D01*
X323594Y961103D01*
X323657Y961168D01*
X323722Y961231D01*
X323791Y961292D01*
X323861Y961349D01*
X323934Y961403D01*
X324009Y961455D01*
X324086Y961503D01*
X324165Y961548D01*
X324246Y961589D01*
X324329Y961628D01*
X324413Y961662D01*
X324498Y961694D01*
X324585Y961722D01*
X324673Y961746D01*
X324761Y961766D01*
X324851Y961783D01*
X324941Y961796D01*
X325031Y961805D01*
X325122Y961811D01*
X325213Y961813D01*
X328148Y961813D01*
X317350Y961813D02*
X317350Y953008D01*
X317717Y965482D02*
X317717Y966216D01*
X316983Y966216D01*
X316983Y965482D01*
X317717Y965482D01*
X309672Y958144D02*
X306370Y958144D01*
X309672Y958144D02*
X309772Y958142D01*
X309871Y958136D01*
X309970Y958127D01*
X310069Y958113D01*
X310167Y958096D01*
X310264Y958075D01*
X310361Y958050D01*
X310456Y958021D01*
X310550Y957989D01*
X310643Y957953D01*
X310735Y957914D01*
X310825Y957871D01*
X310913Y957824D01*
X310999Y957775D01*
X311083Y957722D01*
X311165Y957665D01*
X311245Y957606D01*
X311323Y957543D01*
X311398Y957478D01*
X311470Y957409D01*
X311540Y957338D01*
X311607Y957265D01*
X311671Y957188D01*
X311732Y957110D01*
X311790Y957028D01*
X311844Y956945D01*
X311896Y956860D01*
X311944Y956773D01*
X311989Y956684D01*
X312030Y956593D01*
X312068Y956501D01*
X312102Y956407D01*
X312132Y956313D01*
X312159Y956217D01*
X312182Y956120D01*
X312201Y956022D01*
X312216Y955924D01*
X312228Y955825D01*
X312236Y955725D01*
X312240Y955626D01*
X312240Y955526D01*
X312236Y955427D01*
X312228Y955327D01*
X312216Y955228D01*
X312201Y955130D01*
X312182Y955032D01*
X312159Y954935D01*
X312132Y954839D01*
X312102Y954745D01*
X312068Y954651D01*
X312030Y954559D01*
X311989Y954468D01*
X311944Y954379D01*
X311896Y954292D01*
X311844Y954207D01*
X311790Y954124D01*
X311732Y954042D01*
X311671Y953964D01*
X311607Y953887D01*
X311540Y953814D01*
X311470Y953743D01*
X311398Y953674D01*
X311323Y953609D01*
X311245Y953546D01*
X311165Y953487D01*
X311083Y953430D01*
X310999Y953377D01*
X310913Y953328D01*
X310825Y953281D01*
X310735Y953238D01*
X310643Y953199D01*
X310550Y953163D01*
X310456Y953131D01*
X310361Y953102D01*
X310264Y953077D01*
X310167Y953056D01*
X310069Y953039D01*
X309970Y953025D01*
X309871Y953016D01*
X309772Y953010D01*
X309672Y953008D01*
X306370Y953008D01*
X306370Y959612D01*
X306372Y959703D01*
X306378Y959794D01*
X306387Y959884D01*
X306400Y959974D01*
X306417Y960064D01*
X306437Y960152D01*
X306462Y960240D01*
X306489Y960327D01*
X306521Y960412D01*
X306555Y960496D01*
X306594Y960579D01*
X306635Y960660D01*
X306680Y960739D01*
X306728Y960816D01*
X306780Y960891D01*
X306834Y960964D01*
X306891Y961035D01*
X306952Y961103D01*
X307015Y961168D01*
X307080Y961231D01*
X307149Y961292D01*
X307219Y961349D01*
X307292Y961403D01*
X307367Y961455D01*
X307444Y961503D01*
X307523Y961548D01*
X307604Y961589D01*
X307687Y961628D01*
X307771Y961662D01*
X307856Y961694D01*
X307943Y961722D01*
X308031Y961746D01*
X308119Y961766D01*
X308209Y961783D01*
X308299Y961796D01*
X308389Y961805D01*
X308480Y961811D01*
X308571Y961813D01*
X311506Y961813D01*
X385854Y937514D02*
X385856Y937627D01*
X385862Y937739D01*
X385871Y937852D01*
X385885Y937964D01*
X385902Y938075D01*
X385923Y938186D01*
X385948Y938296D01*
X385976Y938405D01*
X386009Y938513D01*
X386045Y938620D01*
X386084Y938725D01*
X386127Y938830D01*
X386174Y938932D01*
X386224Y939033D01*
X386278Y939132D01*
X386335Y939230D01*
X386395Y939325D01*
X386458Y939418D01*
X386525Y939509D01*
X386595Y939598D01*
X386667Y939684D01*
X386743Y939768D01*
X386821Y939849D01*
X386902Y939927D01*
X386986Y940003D01*
X387072Y940075D01*
X387161Y940145D01*
X387252Y940212D01*
X387345Y940275D01*
X387440Y940335D01*
X387538Y940392D01*
X387637Y940446D01*
X387738Y940496D01*
X387840Y940543D01*
X387945Y940586D01*
X388050Y940625D01*
X388157Y940661D01*
X388265Y940694D01*
X388374Y940722D01*
X388484Y940747D01*
X388595Y940768D01*
X388706Y940785D01*
X388818Y940799D01*
X388931Y940808D01*
X389043Y940814D01*
X389156Y940816D01*
X389283Y940814D01*
X389410Y940808D01*
X389537Y940799D01*
X389663Y940786D01*
X389789Y940769D01*
X389914Y940748D01*
X390039Y940723D01*
X390162Y940695D01*
X390285Y940663D01*
X390407Y940627D01*
X390528Y940588D01*
X390648Y940545D01*
X390766Y940499D01*
X390883Y940449D01*
X390998Y940395D01*
X391111Y940338D01*
X391223Y940278D01*
X391333Y940215D01*
X391441Y940148D01*
X391547Y940078D01*
X391651Y940005D01*
X391753Y939928D01*
X391852Y939849D01*
X391949Y939767D01*
X392043Y939682D01*
X392135Y939594D01*
X392224Y939504D01*
X392310Y939410D01*
X392394Y939315D01*
X392474Y939217D01*
X392552Y939116D01*
X392627Y939013D01*
X392698Y938908D01*
X392766Y938801D01*
X392831Y938692D01*
X392893Y938581D01*
X392952Y938468D01*
X393007Y938354D01*
X393058Y938238D01*
X393106Y938120D01*
X393151Y938001D01*
X393192Y937881D01*
X386955Y934946D02*
X386873Y935026D01*
X386794Y935109D01*
X386717Y935195D01*
X386643Y935283D01*
X386573Y935374D01*
X386505Y935466D01*
X386440Y935561D01*
X386378Y935658D01*
X386320Y935757D01*
X386264Y935858D01*
X386212Y935960D01*
X386164Y936064D01*
X386119Y936170D01*
X386077Y936277D01*
X386038Y936385D01*
X386004Y936495D01*
X385972Y936605D01*
X385945Y936717D01*
X385921Y936829D01*
X385900Y936942D01*
X385884Y937056D01*
X385871Y937170D01*
X385861Y937284D01*
X385856Y937399D01*
X385854Y937514D01*
X386955Y934946D02*
X393192Y927608D01*
X385854Y927608D01*
X380390Y934212D02*
X380387Y934472D01*
X380378Y934731D01*
X380362Y934991D01*
X380340Y935250D01*
X380313Y935508D01*
X380279Y935766D01*
X380238Y936022D01*
X380192Y936278D01*
X380140Y936533D01*
X380081Y936786D01*
X380017Y937037D01*
X379946Y937288D01*
X379870Y937536D01*
X379788Y937782D01*
X379700Y938027D01*
X379606Y938269D01*
X379506Y938509D01*
X379400Y938746D01*
X379289Y938981D01*
X379290Y938982D02*
X379255Y939077D01*
X379217Y939172D01*
X379175Y939265D01*
X379129Y939356D01*
X379080Y939446D01*
X379028Y939534D01*
X378973Y939619D01*
X378914Y939703D01*
X378852Y939784D01*
X378788Y939863D01*
X378720Y939939D01*
X378649Y940013D01*
X378576Y940084D01*
X378500Y940152D01*
X378422Y940218D01*
X378341Y940280D01*
X378258Y940340D01*
X378173Y940396D01*
X378086Y940449D01*
X377997Y940498D01*
X377906Y940544D01*
X377813Y940587D01*
X377719Y940626D01*
X377623Y940662D01*
X377526Y940694D01*
X377428Y940723D01*
X377329Y940747D01*
X377229Y940768D01*
X377129Y940785D01*
X377028Y940799D01*
X376926Y940808D01*
X376824Y940814D01*
X376722Y940816D01*
X376620Y940814D01*
X376518Y940808D01*
X376416Y940799D01*
X376315Y940785D01*
X376215Y940768D01*
X376115Y940747D01*
X376016Y940723D01*
X375918Y940694D01*
X375821Y940662D01*
X375725Y940626D01*
X375631Y940587D01*
X375538Y940544D01*
X375447Y940498D01*
X375358Y940449D01*
X375271Y940396D01*
X375186Y940340D01*
X375103Y940280D01*
X375022Y940218D01*
X374944Y940152D01*
X374868Y940084D01*
X374795Y940013D01*
X374724Y939939D01*
X374656Y939863D01*
X374592Y939784D01*
X374530Y939703D01*
X374471Y939619D01*
X374416Y939534D01*
X374364Y939446D01*
X374315Y939356D01*
X374269Y939265D01*
X374227Y939172D01*
X374189Y939077D01*
X374154Y938982D01*
X374154Y938981D02*
X374043Y938747D01*
X373937Y938509D01*
X373837Y938269D01*
X373743Y938027D01*
X373655Y937782D01*
X373573Y937536D01*
X373497Y937288D01*
X373426Y937038D01*
X373362Y936786D01*
X373303Y936533D01*
X373251Y936278D01*
X373205Y936022D01*
X373164Y935766D01*
X373130Y935508D01*
X373103Y935250D01*
X373081Y934991D01*
X373065Y934731D01*
X373056Y934472D01*
X373053Y934212D01*
X380391Y934212D02*
X380388Y933952D01*
X380379Y933692D01*
X380363Y933433D01*
X380341Y933174D01*
X380314Y932916D01*
X380280Y932658D01*
X380239Y932401D01*
X380193Y932146D01*
X380141Y931891D01*
X380082Y931638D01*
X380018Y931386D01*
X379947Y931136D01*
X379871Y930888D01*
X379789Y930641D01*
X379701Y930397D01*
X379607Y930155D01*
X379507Y929915D01*
X379401Y929677D01*
X379290Y929442D01*
X379255Y929347D01*
X379217Y929252D01*
X379175Y929159D01*
X379129Y929068D01*
X379080Y928978D01*
X379028Y928890D01*
X378973Y928805D01*
X378914Y928721D01*
X378852Y928640D01*
X378788Y928561D01*
X378720Y928485D01*
X378649Y928411D01*
X378576Y928340D01*
X378500Y928272D01*
X378422Y928206D01*
X378341Y928144D01*
X378258Y928084D01*
X378173Y928028D01*
X378086Y927975D01*
X377997Y927926D01*
X377906Y927880D01*
X377813Y927837D01*
X377719Y927798D01*
X377623Y927762D01*
X377526Y927730D01*
X377428Y927701D01*
X377329Y927677D01*
X377229Y927656D01*
X377129Y927639D01*
X377028Y927625D01*
X376926Y927616D01*
X376824Y927610D01*
X376722Y927608D01*
X374154Y929443D02*
X374043Y929678D01*
X373937Y929915D01*
X373837Y930155D01*
X373743Y930397D01*
X373655Y930642D01*
X373573Y930888D01*
X373497Y931136D01*
X373426Y931387D01*
X373362Y931638D01*
X373303Y931891D01*
X373251Y932146D01*
X373205Y932402D01*
X373164Y932658D01*
X373130Y932916D01*
X373103Y933174D01*
X373081Y933433D01*
X373065Y933693D01*
X373056Y933952D01*
X373053Y934212D01*
X374154Y929442D02*
X374189Y929347D01*
X374227Y929252D01*
X374269Y929159D01*
X374315Y929068D01*
X374364Y928978D01*
X374416Y928890D01*
X374471Y928805D01*
X374530Y928721D01*
X374592Y928640D01*
X374656Y928561D01*
X374724Y928485D01*
X374795Y928411D01*
X374868Y928340D01*
X374944Y928272D01*
X375022Y928206D01*
X375103Y928144D01*
X375186Y928084D01*
X375271Y928028D01*
X375358Y927975D01*
X375447Y927926D01*
X375538Y927880D01*
X375631Y927837D01*
X375725Y927798D01*
X375821Y927762D01*
X375918Y927730D01*
X376016Y927701D01*
X376115Y927677D01*
X376215Y927656D01*
X376315Y927639D01*
X376416Y927625D01*
X376518Y927616D01*
X376620Y927610D01*
X376722Y927608D01*
X379657Y930543D02*
X373786Y937881D01*
X367589Y937881D02*
X363920Y940816D01*
X363920Y927608D01*
X367589Y927608D02*
X360251Y927608D01*
X351852Y933478D02*
X347450Y933478D01*
X351852Y933478D02*
X351959Y933480D01*
X352066Y933486D01*
X352173Y933496D01*
X352279Y933509D01*
X352385Y933527D01*
X352490Y933548D01*
X352594Y933573D01*
X352698Y933602D01*
X352800Y933635D01*
X352900Y933672D01*
X353000Y933712D01*
X353098Y933756D01*
X353194Y933803D01*
X353288Y933854D01*
X353381Y933908D01*
X353471Y933965D01*
X353560Y934026D01*
X353646Y934090D01*
X353729Y934157D01*
X353811Y934227D01*
X353889Y934300D01*
X353965Y934376D01*
X354038Y934454D01*
X354108Y934536D01*
X354175Y934619D01*
X354239Y934705D01*
X354300Y934794D01*
X354357Y934884D01*
X354411Y934977D01*
X354462Y935071D01*
X354510Y935167D01*
X354553Y935265D01*
X354593Y935365D01*
X354630Y935465D01*
X354663Y935567D01*
X354692Y935671D01*
X354717Y935775D01*
X354738Y935880D01*
X354756Y935986D01*
X354769Y936092D01*
X354779Y936199D01*
X354785Y936306D01*
X354787Y936413D01*
X354787Y937147D01*
X354785Y937267D01*
X354779Y937387D01*
X354769Y937507D01*
X354756Y937626D01*
X354738Y937745D01*
X354717Y937863D01*
X354691Y937980D01*
X354662Y938097D01*
X354629Y938212D01*
X354592Y938326D01*
X354552Y938439D01*
X354508Y938551D01*
X354460Y938661D01*
X354409Y938770D01*
X354354Y938877D01*
X354295Y938982D01*
X354234Y939084D01*
X354169Y939185D01*
X354100Y939284D01*
X354029Y939381D01*
X353954Y939475D01*
X353877Y939566D01*
X353796Y939655D01*
X353712Y939741D01*
X353626Y939825D01*
X353537Y939906D01*
X353446Y939983D01*
X353352Y940058D01*
X353255Y940129D01*
X353156Y940198D01*
X353055Y940263D01*
X352953Y940324D01*
X352848Y940383D01*
X352741Y940438D01*
X352632Y940489D01*
X352522Y940537D01*
X352410Y940581D01*
X352297Y940621D01*
X352183Y940658D01*
X352068Y940691D01*
X351951Y940720D01*
X351834Y940746D01*
X351716Y940767D01*
X351597Y940785D01*
X351478Y940798D01*
X351358Y940808D01*
X351238Y940814D01*
X351118Y940816D01*
X350998Y940814D01*
X350878Y940808D01*
X350758Y940798D01*
X350639Y940785D01*
X350520Y940767D01*
X350402Y940746D01*
X350285Y940720D01*
X350168Y940691D01*
X350053Y940658D01*
X349939Y940621D01*
X349826Y940581D01*
X349714Y940537D01*
X349604Y940489D01*
X349495Y940438D01*
X349388Y940383D01*
X349284Y940324D01*
X349181Y940263D01*
X349080Y940198D01*
X348981Y940129D01*
X348884Y940058D01*
X348790Y939983D01*
X348699Y939906D01*
X348610Y939825D01*
X348524Y939741D01*
X348440Y939655D01*
X348359Y939566D01*
X348282Y939475D01*
X348207Y939381D01*
X348136Y939284D01*
X348067Y939185D01*
X348002Y939084D01*
X347941Y938982D01*
X347882Y938877D01*
X347827Y938770D01*
X347776Y938661D01*
X347728Y938551D01*
X347684Y938439D01*
X347644Y938326D01*
X347607Y938212D01*
X347574Y938097D01*
X347545Y937980D01*
X347519Y937863D01*
X347498Y937745D01*
X347480Y937626D01*
X347467Y937507D01*
X347457Y937387D01*
X347451Y937267D01*
X347449Y937147D01*
X347450Y937147D02*
X347450Y933478D01*
X347452Y933327D01*
X347458Y933176D01*
X347468Y933025D01*
X347481Y932874D01*
X347499Y932724D01*
X347520Y932575D01*
X347545Y932426D01*
X347574Y932277D01*
X347607Y932130D01*
X347644Y931983D01*
X347684Y931837D01*
X347728Y931693D01*
X347776Y931549D01*
X347827Y931407D01*
X347882Y931267D01*
X347941Y931127D01*
X348004Y930990D01*
X348069Y930854D01*
X348139Y930719D01*
X348211Y930587D01*
X348288Y930456D01*
X348367Y930328D01*
X348450Y930201D01*
X348536Y930077D01*
X348625Y929955D01*
X348717Y929835D01*
X348813Y929718D01*
X348911Y929603D01*
X349012Y929491D01*
X349116Y929381D01*
X349223Y929274D01*
X349333Y929170D01*
X349445Y929069D01*
X349560Y928971D01*
X349677Y928875D01*
X349797Y928783D01*
X349919Y928694D01*
X350043Y928608D01*
X350170Y928525D01*
X350298Y928446D01*
X350429Y928369D01*
X350561Y928297D01*
X350696Y928227D01*
X350832Y928162D01*
X350969Y928099D01*
X351109Y928040D01*
X351249Y927985D01*
X351391Y927934D01*
X351535Y927886D01*
X351679Y927842D01*
X351825Y927802D01*
X351972Y927765D01*
X352119Y927732D01*
X352268Y927703D01*
X352417Y927678D01*
X352566Y927657D01*
X352716Y927639D01*
X352867Y927626D01*
X353018Y927616D01*
X353169Y927610D01*
X353320Y927608D01*
X380492Y77216D02*
X380492Y64008D01*
X380492Y77216D02*
X376823Y77216D01*
X376703Y77214D01*
X376583Y77208D01*
X376463Y77198D01*
X376344Y77185D01*
X376225Y77167D01*
X376107Y77146D01*
X375990Y77120D01*
X375873Y77091D01*
X375758Y77058D01*
X375644Y77021D01*
X375531Y76981D01*
X375419Y76937D01*
X375309Y76889D01*
X375200Y76838D01*
X375093Y76783D01*
X374989Y76724D01*
X374886Y76663D01*
X374785Y76598D01*
X374686Y76529D01*
X374589Y76458D01*
X374495Y76383D01*
X374404Y76306D01*
X374315Y76225D01*
X374229Y76141D01*
X374145Y76055D01*
X374064Y75966D01*
X373987Y75875D01*
X373912Y75781D01*
X373841Y75684D01*
X373772Y75585D01*
X373707Y75484D01*
X373646Y75381D01*
X373587Y75277D01*
X373532Y75170D01*
X373481Y75061D01*
X373433Y74951D01*
X373389Y74839D01*
X373349Y74726D01*
X373312Y74612D01*
X373279Y74497D01*
X373250Y74380D01*
X373224Y74263D01*
X373203Y74145D01*
X373185Y74026D01*
X373172Y73907D01*
X373162Y73787D01*
X373156Y73667D01*
X373154Y73547D01*
X373156Y73427D01*
X373162Y73307D01*
X373172Y73187D01*
X373185Y73068D01*
X373203Y72949D01*
X373224Y72831D01*
X373250Y72714D01*
X373279Y72597D01*
X373312Y72482D01*
X373349Y72368D01*
X373389Y72255D01*
X373433Y72143D01*
X373481Y72033D01*
X373532Y71924D01*
X373587Y71817D01*
X373646Y71712D01*
X373707Y71610D01*
X373772Y71509D01*
X373841Y71410D01*
X373912Y71313D01*
X373987Y71219D01*
X374064Y71128D01*
X374145Y71039D01*
X374229Y70953D01*
X374315Y70869D01*
X374404Y70788D01*
X374495Y70711D01*
X374589Y70636D01*
X374686Y70565D01*
X374785Y70496D01*
X374886Y70431D01*
X374989Y70370D01*
X375093Y70311D01*
X375200Y70256D01*
X375309Y70205D01*
X375419Y70157D01*
X375531Y70113D01*
X375644Y70073D01*
X375758Y70036D01*
X375873Y70003D01*
X375990Y69974D01*
X376107Y69948D01*
X376225Y69927D01*
X376344Y69909D01*
X376463Y69896D01*
X376583Y69886D01*
X376703Y69880D01*
X376823Y69878D01*
X380492Y69878D01*
X365397Y64008D02*
X362462Y64008D01*
X365397Y64008D02*
X365504Y64010D01*
X365611Y64016D01*
X365718Y64026D01*
X365824Y64039D01*
X365930Y64057D01*
X366035Y64078D01*
X366139Y64103D01*
X366243Y64132D01*
X366345Y64165D01*
X366445Y64202D01*
X366545Y64242D01*
X366643Y64286D01*
X366739Y64333D01*
X366833Y64384D01*
X366926Y64438D01*
X367016Y64495D01*
X367105Y64556D01*
X367191Y64620D01*
X367274Y64687D01*
X367356Y64757D01*
X367434Y64830D01*
X367510Y64906D01*
X367583Y64984D01*
X367653Y65066D01*
X367720Y65149D01*
X367784Y65235D01*
X367845Y65324D01*
X367902Y65414D01*
X367956Y65507D01*
X368007Y65601D01*
X368055Y65697D01*
X368098Y65795D01*
X368138Y65895D01*
X368175Y65995D01*
X368208Y66097D01*
X368237Y66201D01*
X368262Y66305D01*
X368283Y66410D01*
X368301Y66516D01*
X368314Y66622D01*
X368324Y66729D01*
X368330Y66836D01*
X368332Y66943D01*
X368332Y74281D01*
X368330Y74388D01*
X368324Y74495D01*
X368314Y74602D01*
X368301Y74708D01*
X368283Y74814D01*
X368262Y74919D01*
X368237Y75023D01*
X368208Y75127D01*
X368175Y75229D01*
X368138Y75329D01*
X368098Y75429D01*
X368054Y75527D01*
X368007Y75623D01*
X367956Y75717D01*
X367902Y75810D01*
X367845Y75900D01*
X367784Y75989D01*
X367720Y76075D01*
X367653Y76158D01*
X367583Y76240D01*
X367510Y76318D01*
X367434Y76394D01*
X367356Y76467D01*
X367274Y76537D01*
X367191Y76604D01*
X367105Y76668D01*
X367016Y76729D01*
X366926Y76786D01*
X366833Y76840D01*
X366739Y76891D01*
X366643Y76938D01*
X366545Y76982D01*
X366446Y77022D01*
X366345Y77059D01*
X366243Y77092D01*
X366139Y77121D01*
X366035Y77146D01*
X365930Y77167D01*
X365824Y77185D01*
X365718Y77198D01*
X365611Y77208D01*
X365504Y77214D01*
X365397Y77216D01*
X362462Y77216D01*
X357022Y71346D02*
X353354Y71346D01*
X353234Y71344D01*
X353114Y71338D01*
X352994Y71328D01*
X352875Y71315D01*
X352756Y71297D01*
X352638Y71276D01*
X352521Y71250D01*
X352404Y71221D01*
X352289Y71188D01*
X352175Y71151D01*
X352062Y71111D01*
X351950Y71067D01*
X351840Y71019D01*
X351731Y70968D01*
X351624Y70913D01*
X351520Y70854D01*
X351417Y70793D01*
X351316Y70728D01*
X351217Y70659D01*
X351120Y70588D01*
X351026Y70513D01*
X350935Y70436D01*
X350846Y70355D01*
X350760Y70271D01*
X350676Y70185D01*
X350595Y70096D01*
X350518Y70005D01*
X350443Y69911D01*
X350372Y69814D01*
X350303Y69715D01*
X350238Y69614D01*
X350177Y69511D01*
X350118Y69407D01*
X350063Y69300D01*
X350012Y69191D01*
X349964Y69081D01*
X349920Y68969D01*
X349880Y68856D01*
X349843Y68742D01*
X349810Y68627D01*
X349781Y68510D01*
X349755Y68393D01*
X349734Y68275D01*
X349716Y68156D01*
X349703Y68037D01*
X349693Y67917D01*
X349687Y67797D01*
X349685Y67677D01*
X349687Y67557D01*
X349693Y67437D01*
X349703Y67317D01*
X349716Y67198D01*
X349734Y67079D01*
X349755Y66961D01*
X349781Y66844D01*
X349810Y66727D01*
X349843Y66612D01*
X349880Y66498D01*
X349920Y66385D01*
X349964Y66273D01*
X350012Y66163D01*
X350063Y66054D01*
X350118Y65947D01*
X350177Y65842D01*
X350238Y65740D01*
X350303Y65639D01*
X350372Y65540D01*
X350443Y65443D01*
X350518Y65349D01*
X350595Y65258D01*
X350676Y65169D01*
X350760Y65083D01*
X350846Y64999D01*
X350935Y64918D01*
X351026Y64841D01*
X351120Y64766D01*
X351217Y64695D01*
X351316Y64626D01*
X351417Y64561D01*
X351520Y64500D01*
X351624Y64441D01*
X351731Y64386D01*
X351840Y64335D01*
X351950Y64287D01*
X352062Y64243D01*
X352175Y64203D01*
X352289Y64166D01*
X352404Y64133D01*
X352521Y64104D01*
X352638Y64078D01*
X352756Y64057D01*
X352875Y64039D01*
X352994Y64026D01*
X353114Y64016D01*
X353234Y64010D01*
X353354Y64008D01*
X357022Y64008D01*
X357022Y77216D01*
X353354Y77216D01*
X353247Y77214D01*
X353140Y77208D01*
X353033Y77198D01*
X352927Y77185D01*
X352821Y77167D01*
X352716Y77146D01*
X352612Y77121D01*
X352508Y77092D01*
X352406Y77059D01*
X352306Y77022D01*
X352206Y76982D01*
X352108Y76938D01*
X352012Y76891D01*
X351918Y76840D01*
X351825Y76786D01*
X351735Y76729D01*
X351646Y76668D01*
X351560Y76604D01*
X351477Y76537D01*
X351395Y76467D01*
X351317Y76394D01*
X351241Y76318D01*
X351168Y76240D01*
X351098Y76158D01*
X351031Y76075D01*
X350967Y75989D01*
X350906Y75900D01*
X350849Y75810D01*
X350795Y75717D01*
X350744Y75623D01*
X350697Y75527D01*
X350653Y75429D01*
X350613Y75329D01*
X350576Y75229D01*
X350543Y75127D01*
X350514Y75023D01*
X350489Y74919D01*
X350468Y74814D01*
X350450Y74708D01*
X350437Y74602D01*
X350427Y74495D01*
X350421Y74388D01*
X350419Y74281D01*
X350421Y74174D01*
X350427Y74067D01*
X350437Y73960D01*
X350450Y73854D01*
X350468Y73748D01*
X350489Y73643D01*
X350514Y73539D01*
X350543Y73435D01*
X350576Y73333D01*
X350613Y73233D01*
X350653Y73133D01*
X350697Y73035D01*
X350744Y72939D01*
X350795Y72845D01*
X350849Y72752D01*
X350906Y72662D01*
X350967Y72573D01*
X351031Y72487D01*
X351098Y72404D01*
X351168Y72322D01*
X351241Y72244D01*
X351317Y72168D01*
X351395Y72095D01*
X351477Y72025D01*
X351560Y71958D01*
X351646Y71894D01*
X351735Y71833D01*
X351825Y71776D01*
X351918Y71722D01*
X352012Y71671D01*
X352108Y71624D01*
X352206Y71580D01*
X352306Y71540D01*
X352406Y71503D01*
X352508Y71470D01*
X352612Y71441D01*
X352716Y71416D01*
X352821Y71395D01*
X352927Y71377D01*
X353033Y71364D01*
X353140Y71354D01*
X353247Y71348D01*
X353354Y71346D01*
X338546Y72813D02*
X335611Y64008D01*
X332676Y72813D01*
X325677Y64008D02*
X322008Y64008D01*
X325677Y64008D02*
X325768Y64010D01*
X325859Y64016D01*
X325949Y64025D01*
X326039Y64038D01*
X326129Y64055D01*
X326217Y64075D01*
X326305Y64100D01*
X326392Y64127D01*
X326477Y64159D01*
X326561Y64193D01*
X326644Y64232D01*
X326725Y64273D01*
X326804Y64318D01*
X326881Y64366D01*
X326956Y64418D01*
X327029Y64472D01*
X327100Y64529D01*
X327168Y64590D01*
X327233Y64653D01*
X327296Y64718D01*
X327357Y64786D01*
X327414Y64857D01*
X327468Y64930D01*
X327520Y65005D01*
X327568Y65082D01*
X327613Y65161D01*
X327654Y65242D01*
X327693Y65325D01*
X327727Y65409D01*
X327759Y65494D01*
X327786Y65581D01*
X327811Y65669D01*
X327831Y65757D01*
X327848Y65847D01*
X327861Y65937D01*
X327870Y66027D01*
X327876Y66118D01*
X327878Y66209D01*
X327878Y69878D01*
X327876Y69985D01*
X327870Y70092D01*
X327860Y70199D01*
X327847Y70305D01*
X327829Y70411D01*
X327808Y70516D01*
X327783Y70620D01*
X327754Y70724D01*
X327721Y70826D01*
X327684Y70926D01*
X327644Y71026D01*
X327600Y71124D01*
X327553Y71220D01*
X327502Y71314D01*
X327448Y71407D01*
X327391Y71497D01*
X327330Y71586D01*
X327266Y71672D01*
X327199Y71755D01*
X327129Y71837D01*
X327056Y71915D01*
X326980Y71991D01*
X326902Y72064D01*
X326820Y72134D01*
X326737Y72201D01*
X326651Y72265D01*
X326562Y72326D01*
X326472Y72383D01*
X326379Y72437D01*
X326285Y72488D01*
X326189Y72535D01*
X326091Y72579D01*
X325991Y72619D01*
X325891Y72656D01*
X325789Y72689D01*
X325685Y72718D01*
X325581Y72743D01*
X325476Y72764D01*
X325370Y72782D01*
X325264Y72795D01*
X325157Y72805D01*
X325050Y72811D01*
X324943Y72813D01*
X324836Y72811D01*
X324729Y72805D01*
X324622Y72795D01*
X324516Y72782D01*
X324410Y72764D01*
X324305Y72743D01*
X324201Y72718D01*
X324097Y72689D01*
X323995Y72656D01*
X323895Y72619D01*
X323795Y72579D01*
X323697Y72535D01*
X323601Y72488D01*
X323507Y72437D01*
X323414Y72383D01*
X323324Y72326D01*
X323235Y72265D01*
X323149Y72201D01*
X323066Y72134D01*
X322984Y72064D01*
X322906Y71991D01*
X322830Y71915D01*
X322757Y71837D01*
X322687Y71755D01*
X322620Y71672D01*
X322556Y71586D01*
X322495Y71497D01*
X322438Y71407D01*
X322384Y71314D01*
X322333Y71220D01*
X322286Y71124D01*
X322242Y71026D01*
X322202Y70926D01*
X322165Y70826D01*
X322132Y70724D01*
X322103Y70620D01*
X322078Y70516D01*
X322057Y70411D01*
X322039Y70305D01*
X322026Y70199D01*
X322016Y70092D01*
X322010Y69985D01*
X322008Y69878D01*
X322008Y68411D01*
X327878Y68411D01*
X316286Y72813D02*
X316286Y64008D01*
X316286Y72813D02*
X311883Y72813D01*
X311883Y71346D01*
X306722Y69144D02*
X303053Y67677D01*
X306722Y69144D02*
X306801Y69178D01*
X306879Y69216D01*
X306956Y69257D01*
X307030Y69301D01*
X307102Y69349D01*
X307172Y69400D01*
X307239Y69454D01*
X307304Y69511D01*
X307367Y69572D01*
X307426Y69634D01*
X307483Y69700D01*
X307536Y69768D01*
X307587Y69838D01*
X307634Y69911D01*
X307678Y69986D01*
X307718Y70062D01*
X307755Y70141D01*
X307788Y70220D01*
X307818Y70302D01*
X307844Y70384D01*
X307866Y70468D01*
X307884Y70553D01*
X307898Y70638D01*
X307909Y70724D01*
X307915Y70810D01*
X307918Y70897D01*
X307917Y70984D01*
X307911Y71070D01*
X307902Y71156D01*
X307889Y71242D01*
X307872Y71327D01*
X307851Y71411D01*
X307827Y71494D01*
X307798Y71575D01*
X307766Y71656D01*
X307731Y71735D01*
X307691Y71812D01*
X307649Y71887D01*
X307602Y71960D01*
X307553Y72032D01*
X307501Y72100D01*
X307445Y72167D01*
X307386Y72230D01*
X307325Y72291D01*
X307261Y72350D01*
X307194Y72405D01*
X307125Y72457D01*
X307053Y72506D01*
X306980Y72551D01*
X306904Y72593D01*
X306827Y72632D01*
X306748Y72667D01*
X306667Y72699D01*
X306585Y72727D01*
X306502Y72751D01*
X306418Y72771D01*
X306333Y72787D01*
X306247Y72800D01*
X306161Y72808D01*
X306074Y72813D01*
X305988Y72814D01*
X305988Y72813D02*
X305788Y72808D01*
X305588Y72798D01*
X305388Y72783D01*
X305188Y72763D01*
X304989Y72739D01*
X304791Y72709D01*
X304594Y72675D01*
X304397Y72637D01*
X304202Y72593D01*
X304007Y72545D01*
X303814Y72492D01*
X303622Y72435D01*
X303431Y72373D01*
X303242Y72306D01*
X303055Y72235D01*
X302870Y72159D01*
X302686Y72079D01*
X303052Y67677D02*
X302973Y67643D01*
X302895Y67605D01*
X302818Y67564D01*
X302744Y67520D01*
X302672Y67472D01*
X302602Y67421D01*
X302535Y67367D01*
X302470Y67310D01*
X302407Y67249D01*
X302348Y67187D01*
X302291Y67121D01*
X302238Y67053D01*
X302187Y66983D01*
X302140Y66910D01*
X302096Y66835D01*
X302056Y66759D01*
X302019Y66680D01*
X301986Y66601D01*
X301956Y66519D01*
X301930Y66437D01*
X301908Y66353D01*
X301890Y66268D01*
X301876Y66183D01*
X301865Y66097D01*
X301859Y66011D01*
X301856Y65924D01*
X301857Y65837D01*
X301863Y65751D01*
X301872Y65665D01*
X301885Y65579D01*
X301902Y65494D01*
X301923Y65410D01*
X301947Y65327D01*
X301976Y65246D01*
X302008Y65165D01*
X302043Y65086D01*
X302083Y65009D01*
X302125Y64934D01*
X302172Y64861D01*
X302221Y64789D01*
X302273Y64721D01*
X302329Y64654D01*
X302388Y64591D01*
X302449Y64530D01*
X302513Y64471D01*
X302580Y64416D01*
X302649Y64364D01*
X302721Y64315D01*
X302794Y64270D01*
X302870Y64228D01*
X302947Y64189D01*
X303026Y64154D01*
X303107Y64122D01*
X303189Y64094D01*
X303272Y64070D01*
X303356Y64050D01*
X303441Y64034D01*
X303527Y64021D01*
X303613Y64013D01*
X303700Y64008D01*
X303786Y64007D01*
X303787Y64008D02*
X304081Y64016D01*
X304375Y64031D01*
X304669Y64052D01*
X304962Y64081D01*
X305254Y64116D01*
X305545Y64159D01*
X305835Y64208D01*
X306124Y64264D01*
X306412Y64327D01*
X306698Y64396D01*
X306982Y64473D01*
X307264Y64556D01*
X307545Y64646D01*
X307823Y64742D01*
X296779Y64008D02*
X296779Y72813D01*
X297146Y76482D02*
X297146Y77216D01*
X296413Y77216D01*
X296413Y76482D01*
X297146Y76482D01*
X291607Y69878D02*
X291607Y66943D01*
X291607Y69878D02*
X291605Y69985D01*
X291599Y70092D01*
X291589Y70199D01*
X291576Y70305D01*
X291558Y70411D01*
X291537Y70516D01*
X291512Y70620D01*
X291483Y70724D01*
X291450Y70826D01*
X291413Y70926D01*
X291373Y71026D01*
X291329Y71124D01*
X291282Y71220D01*
X291231Y71314D01*
X291177Y71407D01*
X291120Y71497D01*
X291059Y71586D01*
X290995Y71672D01*
X290928Y71755D01*
X290858Y71837D01*
X290785Y71915D01*
X290709Y71991D01*
X290631Y72064D01*
X290549Y72134D01*
X290466Y72201D01*
X290380Y72265D01*
X290291Y72326D01*
X290201Y72383D01*
X290108Y72437D01*
X290014Y72488D01*
X289918Y72535D01*
X289820Y72579D01*
X289720Y72619D01*
X289620Y72656D01*
X289518Y72689D01*
X289414Y72718D01*
X289310Y72743D01*
X289205Y72764D01*
X289099Y72782D01*
X288993Y72795D01*
X288886Y72805D01*
X288779Y72811D01*
X288672Y72813D01*
X288565Y72811D01*
X288458Y72805D01*
X288351Y72795D01*
X288245Y72782D01*
X288139Y72764D01*
X288034Y72743D01*
X287930Y72718D01*
X287826Y72689D01*
X287724Y72656D01*
X287624Y72619D01*
X287524Y72579D01*
X287426Y72535D01*
X287330Y72488D01*
X287236Y72437D01*
X287143Y72383D01*
X287053Y72326D01*
X286964Y72265D01*
X286878Y72201D01*
X286795Y72134D01*
X286713Y72064D01*
X286635Y71991D01*
X286559Y71915D01*
X286486Y71837D01*
X286416Y71755D01*
X286349Y71672D01*
X286285Y71586D01*
X286224Y71497D01*
X286167Y71407D01*
X286113Y71314D01*
X286062Y71220D01*
X286015Y71124D01*
X285971Y71026D01*
X285931Y70926D01*
X285894Y70826D01*
X285861Y70724D01*
X285832Y70620D01*
X285807Y70516D01*
X285786Y70411D01*
X285768Y70305D01*
X285755Y70199D01*
X285745Y70092D01*
X285739Y69985D01*
X285737Y69878D01*
X285737Y66943D01*
X285739Y66836D01*
X285745Y66729D01*
X285755Y66622D01*
X285768Y66516D01*
X285786Y66410D01*
X285807Y66305D01*
X285832Y66201D01*
X285861Y66097D01*
X285894Y65995D01*
X285931Y65895D01*
X285971Y65795D01*
X286015Y65697D01*
X286062Y65601D01*
X286113Y65507D01*
X286167Y65414D01*
X286224Y65324D01*
X286285Y65235D01*
X286349Y65149D01*
X286416Y65066D01*
X286486Y64984D01*
X286559Y64906D01*
X286635Y64830D01*
X286713Y64757D01*
X286795Y64687D01*
X286878Y64620D01*
X286964Y64556D01*
X287053Y64495D01*
X287143Y64438D01*
X287236Y64384D01*
X287330Y64333D01*
X287426Y64286D01*
X287524Y64242D01*
X287624Y64202D01*
X287724Y64165D01*
X287826Y64132D01*
X287930Y64103D01*
X288034Y64078D01*
X288139Y64057D01*
X288245Y64039D01*
X288351Y64026D01*
X288458Y64016D01*
X288565Y64010D01*
X288672Y64008D01*
X288779Y64010D01*
X288886Y64016D01*
X288993Y64026D01*
X289099Y64039D01*
X289205Y64057D01*
X289310Y64078D01*
X289414Y64103D01*
X289518Y64132D01*
X289620Y64165D01*
X289720Y64202D01*
X289820Y64242D01*
X289918Y64286D01*
X290014Y64333D01*
X290108Y64384D01*
X290201Y64438D01*
X290291Y64495D01*
X290380Y64556D01*
X290466Y64620D01*
X290549Y64687D01*
X290631Y64757D01*
X290709Y64830D01*
X290785Y64906D01*
X290858Y64984D01*
X290928Y65066D01*
X290995Y65149D01*
X291059Y65235D01*
X291120Y65324D01*
X291177Y65414D01*
X291231Y65507D01*
X291282Y65601D01*
X291329Y65697D01*
X291373Y65795D01*
X291413Y65895D01*
X291450Y65995D01*
X291483Y66097D01*
X291512Y66201D01*
X291537Y66305D01*
X291558Y66410D01*
X291576Y66516D01*
X291589Y66622D01*
X291599Y66729D01*
X291605Y66836D01*
X291607Y66943D01*
X280085Y64008D02*
X280085Y72813D01*
X276417Y72813D01*
X276324Y72811D01*
X276230Y72805D01*
X276137Y72795D01*
X276045Y72781D01*
X275953Y72764D01*
X275862Y72742D01*
X275773Y72717D01*
X275684Y72687D01*
X275596Y72654D01*
X275510Y72618D01*
X275426Y72577D01*
X275344Y72534D01*
X275263Y72486D01*
X275185Y72436D01*
X275108Y72382D01*
X275034Y72324D01*
X274963Y72264D01*
X274894Y72201D01*
X274828Y72135D01*
X274765Y72066D01*
X274705Y71995D01*
X274647Y71921D01*
X274593Y71845D01*
X274543Y71766D01*
X274496Y71685D01*
X274452Y71603D01*
X274411Y71519D01*
X274375Y71433D01*
X274342Y71345D01*
X274312Y71257D01*
X274287Y71167D01*
X274265Y71076D01*
X274248Y70984D01*
X274234Y70892D01*
X274224Y70799D01*
X274218Y70705D01*
X274216Y70612D01*
X274215Y70612D02*
X274215Y64008D01*
X261617Y74281D02*
X257948Y77216D01*
X257948Y64008D01*
X261617Y64008D02*
X254279Y64008D01*
X249354Y64008D02*
X249354Y64742D01*
X248620Y64742D01*
X248620Y64008D01*
X249354Y64008D01*
X243694Y70612D02*
X243691Y70872D01*
X243682Y71131D01*
X243666Y71391D01*
X243644Y71650D01*
X243617Y71908D01*
X243583Y72166D01*
X243542Y72422D01*
X243496Y72678D01*
X243444Y72933D01*
X243385Y73186D01*
X243321Y73437D01*
X243250Y73688D01*
X243174Y73936D01*
X243092Y74182D01*
X243004Y74427D01*
X242910Y74669D01*
X242810Y74909D01*
X242704Y75146D01*
X242593Y75381D01*
X242594Y75382D02*
X242559Y75477D01*
X242521Y75572D01*
X242479Y75665D01*
X242433Y75756D01*
X242384Y75846D01*
X242332Y75934D01*
X242277Y76019D01*
X242218Y76103D01*
X242156Y76184D01*
X242092Y76263D01*
X242024Y76339D01*
X241953Y76413D01*
X241880Y76484D01*
X241804Y76552D01*
X241726Y76618D01*
X241645Y76680D01*
X241562Y76740D01*
X241477Y76796D01*
X241390Y76849D01*
X241301Y76898D01*
X241210Y76944D01*
X241117Y76987D01*
X241023Y77026D01*
X240927Y77062D01*
X240830Y77094D01*
X240732Y77123D01*
X240633Y77147D01*
X240533Y77168D01*
X240433Y77185D01*
X240332Y77199D01*
X240230Y77208D01*
X240128Y77214D01*
X240026Y77216D01*
X239924Y77214D01*
X239822Y77208D01*
X239720Y77199D01*
X239619Y77185D01*
X239519Y77168D01*
X239419Y77147D01*
X239320Y77123D01*
X239222Y77094D01*
X239125Y77062D01*
X239029Y77026D01*
X238935Y76987D01*
X238842Y76944D01*
X238751Y76898D01*
X238662Y76849D01*
X238575Y76796D01*
X238490Y76740D01*
X238407Y76680D01*
X238326Y76618D01*
X238248Y76552D01*
X238172Y76484D01*
X238099Y76413D01*
X238028Y76339D01*
X237960Y76263D01*
X237896Y76184D01*
X237834Y76103D01*
X237775Y76019D01*
X237720Y75934D01*
X237668Y75846D01*
X237619Y75756D01*
X237573Y75665D01*
X237531Y75572D01*
X237493Y75477D01*
X237458Y75382D01*
X237458Y75381D02*
X237347Y75147D01*
X237241Y74909D01*
X237141Y74669D01*
X237047Y74427D01*
X236959Y74182D01*
X236877Y73936D01*
X236801Y73688D01*
X236730Y73438D01*
X236666Y73186D01*
X236607Y72933D01*
X236555Y72678D01*
X236509Y72422D01*
X236468Y72166D01*
X236434Y71908D01*
X236407Y71650D01*
X236385Y71391D01*
X236369Y71131D01*
X236360Y70872D01*
X236357Y70612D01*
X243695Y70612D02*
X243692Y70352D01*
X243683Y70092D01*
X243667Y69833D01*
X243645Y69574D01*
X243618Y69316D01*
X243584Y69058D01*
X243543Y68801D01*
X243497Y68546D01*
X243445Y68291D01*
X243386Y68038D01*
X243322Y67786D01*
X243251Y67536D01*
X243175Y67288D01*
X243093Y67041D01*
X243005Y66797D01*
X242911Y66555D01*
X242811Y66315D01*
X242705Y66077D01*
X242594Y65842D01*
X242559Y65747D01*
X242521Y65652D01*
X242479Y65559D01*
X242433Y65468D01*
X242384Y65378D01*
X242332Y65290D01*
X242277Y65205D01*
X242218Y65121D01*
X242156Y65040D01*
X242092Y64961D01*
X242024Y64885D01*
X241953Y64811D01*
X241880Y64740D01*
X241804Y64672D01*
X241726Y64606D01*
X241645Y64544D01*
X241562Y64484D01*
X241477Y64428D01*
X241390Y64375D01*
X241301Y64326D01*
X241210Y64280D01*
X241117Y64237D01*
X241023Y64198D01*
X240927Y64162D01*
X240830Y64130D01*
X240732Y64101D01*
X240633Y64077D01*
X240533Y64056D01*
X240433Y64039D01*
X240332Y64025D01*
X240230Y64016D01*
X240128Y64010D01*
X240026Y64008D01*
X237458Y65843D02*
X237347Y66078D01*
X237241Y66315D01*
X237141Y66555D01*
X237047Y66797D01*
X236959Y67042D01*
X236877Y67288D01*
X236801Y67536D01*
X236730Y67787D01*
X236666Y68038D01*
X236607Y68291D01*
X236555Y68546D01*
X236509Y68802D01*
X236468Y69058D01*
X236434Y69316D01*
X236407Y69574D01*
X236385Y69833D01*
X236369Y70093D01*
X236360Y70352D01*
X236357Y70612D01*
X237458Y65842D02*
X237493Y65747D01*
X237531Y65652D01*
X237573Y65559D01*
X237619Y65468D01*
X237668Y65378D01*
X237720Y65290D01*
X237775Y65205D01*
X237834Y65121D01*
X237896Y65040D01*
X237960Y64961D01*
X238028Y64885D01*
X238099Y64811D01*
X238172Y64740D01*
X238248Y64672D01*
X238326Y64606D01*
X238407Y64544D01*
X238490Y64484D01*
X238575Y64428D01*
X238662Y64375D01*
X238751Y64326D01*
X238842Y64280D01*
X238935Y64237D01*
X239029Y64198D01*
X239125Y64162D01*
X239222Y64130D01*
X239320Y64101D01*
X239419Y64077D01*
X239519Y64056D01*
X239619Y64039D01*
X239720Y64025D01*
X239822Y64016D01*
X239924Y64010D01*
X240026Y64008D01*
X242961Y66943D02*
X237091Y74281D01*
X393192Y978408D02*
X393192Y991616D01*
X388789Y984278D01*
X384387Y991616D01*
X384387Y978408D01*
X379110Y978408D02*
X374708Y991616D01*
X370305Y978408D01*
X371406Y981710D02*
X378010Y981710D01*
X361599Y978408D02*
X361492Y978410D01*
X361385Y978416D01*
X361278Y978426D01*
X361172Y978439D01*
X361066Y978457D01*
X360961Y978478D01*
X360857Y978503D01*
X360753Y978532D01*
X360651Y978565D01*
X360551Y978602D01*
X360451Y978642D01*
X360353Y978686D01*
X360257Y978733D01*
X360163Y978784D01*
X360070Y978838D01*
X359980Y978895D01*
X359891Y978956D01*
X359805Y979020D01*
X359722Y979087D01*
X359640Y979157D01*
X359562Y979230D01*
X359486Y979306D01*
X359413Y979384D01*
X359343Y979466D01*
X359276Y979549D01*
X359212Y979635D01*
X359151Y979724D01*
X359094Y979814D01*
X359040Y979907D01*
X358989Y980001D01*
X358942Y980097D01*
X358898Y980195D01*
X358858Y980295D01*
X358821Y980395D01*
X358788Y980497D01*
X358759Y980601D01*
X358734Y980705D01*
X358713Y980810D01*
X358695Y980916D01*
X358682Y981022D01*
X358672Y981129D01*
X358666Y981236D01*
X358664Y981343D01*
X361599Y978408D02*
X361752Y978410D01*
X361905Y978416D01*
X362058Y978425D01*
X362210Y978438D01*
X362362Y978455D01*
X362514Y978476D01*
X362665Y978500D01*
X362815Y978528D01*
X362965Y978560D01*
X363113Y978596D01*
X363261Y978635D01*
X363408Y978678D01*
X363554Y978724D01*
X363698Y978774D01*
X363842Y978828D01*
X363984Y978885D01*
X364124Y978946D01*
X364263Y979010D01*
X364400Y979077D01*
X364536Y979148D01*
X364670Y979222D01*
X364802Y979299D01*
X364932Y979380D01*
X365060Y979464D01*
X365186Y979551D01*
X365309Y979641D01*
X365431Y979734D01*
X365550Y979830D01*
X365666Y979929D01*
X365781Y980030D01*
X365892Y980135D01*
X366001Y980242D01*
X365635Y988681D02*
X365633Y988788D01*
X365627Y988895D01*
X365617Y989002D01*
X365604Y989108D01*
X365586Y989214D01*
X365565Y989319D01*
X365540Y989423D01*
X365511Y989527D01*
X365478Y989629D01*
X365441Y989729D01*
X365401Y989829D01*
X365357Y989927D01*
X365310Y990023D01*
X365259Y990117D01*
X365205Y990210D01*
X365148Y990300D01*
X365087Y990389D01*
X365023Y990475D01*
X364956Y990558D01*
X364886Y990640D01*
X364813Y990718D01*
X364737Y990794D01*
X364659Y990867D01*
X364577Y990937D01*
X364494Y991004D01*
X364408Y991068D01*
X364319Y991129D01*
X364229Y991186D01*
X364136Y991240D01*
X364042Y991291D01*
X363946Y991338D01*
X363848Y991382D01*
X363748Y991422D01*
X363648Y991459D01*
X363546Y991492D01*
X363442Y991521D01*
X363338Y991546D01*
X363233Y991567D01*
X363127Y991585D01*
X363021Y991598D01*
X362914Y991608D01*
X362807Y991614D01*
X362700Y991616D01*
X362552Y991614D01*
X362405Y991608D01*
X362258Y991598D01*
X362111Y991584D01*
X361964Y991567D01*
X361819Y991545D01*
X361673Y991519D01*
X361529Y991490D01*
X361385Y991457D01*
X361242Y991419D01*
X361100Y991378D01*
X360960Y991334D01*
X360820Y991285D01*
X360682Y991233D01*
X360546Y991177D01*
X360411Y991117D01*
X360278Y991054D01*
X360146Y990987D01*
X360016Y990917D01*
X359888Y990844D01*
X359763Y990766D01*
X359639Y990686D01*
X359517Y990602D01*
X359398Y990515D01*
X364167Y986113D02*
X364258Y986169D01*
X364347Y986228D01*
X364434Y986290D01*
X364518Y986355D01*
X364601Y986423D01*
X364680Y986494D01*
X364757Y986568D01*
X364831Y986645D01*
X364903Y986724D01*
X364971Y986806D01*
X365037Y986890D01*
X365100Y986977D01*
X365159Y987065D01*
X365215Y987156D01*
X365268Y987249D01*
X365318Y987343D01*
X365364Y987439D01*
X365407Y987537D01*
X365446Y987636D01*
X365482Y987737D01*
X365514Y987839D01*
X365542Y987942D01*
X365566Y988046D01*
X365587Y988150D01*
X365604Y988256D01*
X365618Y988361D01*
X365627Y988468D01*
X365633Y988574D01*
X365635Y988681D01*
X360132Y983911D02*
X360041Y983855D01*
X359952Y983796D01*
X359865Y983734D01*
X359781Y983669D01*
X359698Y983601D01*
X359619Y983530D01*
X359542Y983456D01*
X359468Y983379D01*
X359396Y983300D01*
X359328Y983218D01*
X359262Y983134D01*
X359199Y983047D01*
X359140Y982959D01*
X359084Y982868D01*
X359031Y982775D01*
X358981Y982681D01*
X358935Y982585D01*
X358892Y982487D01*
X358853Y982388D01*
X358817Y982287D01*
X358785Y982185D01*
X358757Y982082D01*
X358733Y981978D01*
X358712Y981874D01*
X358695Y981768D01*
X358681Y981663D01*
X358672Y981556D01*
X358666Y981450D01*
X358664Y981343D01*
X360131Y983911D02*
X364167Y986113D01*
X350811Y991616D02*
X350811Y978408D01*
X347143Y991616D02*
X354480Y991616D01*
X342081Y978408D02*
X336211Y978408D01*
X342081Y978408D02*
X342081Y991616D01*
X336211Y991616D01*
X337679Y985746D02*
X342081Y985746D01*
X330933Y991616D02*
X330933Y978408D01*
X330933Y991616D02*
X327264Y991616D01*
X327144Y991614D01*
X327024Y991608D01*
X326904Y991598D01*
X326785Y991585D01*
X326666Y991567D01*
X326548Y991546D01*
X326431Y991520D01*
X326314Y991491D01*
X326199Y991458D01*
X326085Y991421D01*
X325972Y991381D01*
X325860Y991337D01*
X325750Y991289D01*
X325641Y991238D01*
X325534Y991183D01*
X325430Y991124D01*
X325327Y991063D01*
X325226Y990998D01*
X325127Y990929D01*
X325030Y990858D01*
X324936Y990783D01*
X324845Y990706D01*
X324756Y990625D01*
X324670Y990541D01*
X324586Y990455D01*
X324505Y990366D01*
X324428Y990275D01*
X324353Y990181D01*
X324282Y990084D01*
X324213Y989985D01*
X324148Y989884D01*
X324087Y989782D01*
X324028Y989677D01*
X323973Y989570D01*
X323922Y989461D01*
X323874Y989351D01*
X323830Y989239D01*
X323790Y989126D01*
X323753Y989012D01*
X323720Y988897D01*
X323691Y988780D01*
X323665Y988663D01*
X323644Y988545D01*
X323626Y988426D01*
X323613Y988307D01*
X323603Y988187D01*
X323597Y988067D01*
X323595Y987947D01*
X323597Y987827D01*
X323603Y987707D01*
X323613Y987587D01*
X323626Y987468D01*
X323644Y987349D01*
X323665Y987231D01*
X323691Y987114D01*
X323720Y986997D01*
X323753Y986882D01*
X323790Y986768D01*
X323830Y986655D01*
X323874Y986543D01*
X323922Y986433D01*
X323973Y986324D01*
X324028Y986217D01*
X324087Y986113D01*
X324148Y986010D01*
X324213Y985909D01*
X324282Y985810D01*
X324353Y985713D01*
X324428Y985619D01*
X324505Y985528D01*
X324586Y985439D01*
X324670Y985353D01*
X324756Y985269D01*
X324845Y985188D01*
X324936Y985111D01*
X325030Y985036D01*
X325127Y984965D01*
X325226Y984896D01*
X325327Y984831D01*
X325430Y984770D01*
X325534Y984711D01*
X325641Y984656D01*
X325750Y984605D01*
X325860Y984557D01*
X325972Y984513D01*
X326085Y984473D01*
X326199Y984436D01*
X326314Y984403D01*
X326431Y984374D01*
X326548Y984348D01*
X326666Y984327D01*
X326785Y984309D01*
X326904Y984296D01*
X327024Y984286D01*
X327144Y984280D01*
X327264Y984278D01*
X330933Y984278D01*
X326530Y984278D02*
X323595Y978408D01*
X317663Y978408D02*
X317663Y991616D01*
X313260Y984278D01*
X308857Y991616D01*
X308857Y978408D01*
X301739Y978408D02*
X301739Y991616D01*
X303206Y978408D02*
X300271Y978408D01*
X300271Y991616D02*
X303206Y991616D01*
X294740Y991616D02*
X294740Y978408D01*
X287402Y978408D02*
X294740Y991616D01*
X287402Y991616D02*
X287402Y978408D01*
X281085Y978408D02*
X281085Y991616D01*
X277416Y991616D01*
X277296Y991614D01*
X277176Y991608D01*
X277056Y991598D01*
X276937Y991585D01*
X276818Y991567D01*
X276700Y991546D01*
X276583Y991520D01*
X276466Y991491D01*
X276351Y991458D01*
X276237Y991421D01*
X276124Y991381D01*
X276012Y991337D01*
X275902Y991289D01*
X275793Y991238D01*
X275686Y991183D01*
X275582Y991124D01*
X275479Y991063D01*
X275378Y990998D01*
X275279Y990929D01*
X275182Y990858D01*
X275088Y990783D01*
X274997Y990706D01*
X274908Y990625D01*
X274822Y990541D01*
X274738Y990455D01*
X274657Y990366D01*
X274580Y990275D01*
X274505Y990181D01*
X274434Y990084D01*
X274365Y989985D01*
X274300Y989884D01*
X274239Y989782D01*
X274180Y989677D01*
X274125Y989570D01*
X274074Y989461D01*
X274026Y989351D01*
X273982Y989239D01*
X273942Y989126D01*
X273905Y989012D01*
X273872Y988897D01*
X273843Y988780D01*
X273817Y988663D01*
X273796Y988545D01*
X273778Y988426D01*
X273765Y988307D01*
X273755Y988187D01*
X273749Y988067D01*
X273747Y987947D01*
X273747Y982077D01*
X273749Y981957D01*
X273755Y981837D01*
X273765Y981717D01*
X273778Y981598D01*
X273796Y981479D01*
X273817Y981361D01*
X273843Y981244D01*
X273872Y981127D01*
X273905Y981012D01*
X273942Y980898D01*
X273982Y980785D01*
X274026Y980673D01*
X274074Y980563D01*
X274125Y980454D01*
X274180Y980347D01*
X274239Y980243D01*
X274300Y980140D01*
X274365Y980039D01*
X274434Y979940D01*
X274505Y979843D01*
X274580Y979749D01*
X274657Y979658D01*
X274738Y979569D01*
X274822Y979483D01*
X274908Y979399D01*
X274997Y979318D01*
X275088Y979241D01*
X275182Y979166D01*
X275279Y979095D01*
X275378Y979026D01*
X275479Y978961D01*
X275582Y978900D01*
X275686Y978841D01*
X275793Y978786D01*
X275902Y978735D01*
X276012Y978687D01*
X276124Y978643D01*
X276237Y978603D01*
X276351Y978566D01*
X276466Y978533D01*
X276583Y978504D01*
X276700Y978478D01*
X276818Y978457D01*
X276937Y978439D01*
X277056Y978426D01*
X277176Y978416D01*
X277296Y978410D01*
X277416Y978408D01*
X281085Y978408D01*
X260909Y983544D02*
X252104Y983544D01*
X239087Y978408D02*
X239087Y991616D01*
X235418Y991616D01*
X235298Y991614D01*
X235178Y991608D01*
X235058Y991598D01*
X234939Y991585D01*
X234820Y991567D01*
X234702Y991546D01*
X234585Y991520D01*
X234468Y991491D01*
X234353Y991458D01*
X234239Y991421D01*
X234126Y991381D01*
X234014Y991337D01*
X233904Y991289D01*
X233795Y991238D01*
X233688Y991183D01*
X233584Y991124D01*
X233481Y991063D01*
X233380Y990998D01*
X233281Y990929D01*
X233184Y990858D01*
X233090Y990783D01*
X232999Y990706D01*
X232910Y990625D01*
X232824Y990541D01*
X232740Y990455D01*
X232659Y990366D01*
X232582Y990275D01*
X232507Y990181D01*
X232436Y990084D01*
X232367Y989985D01*
X232302Y989884D01*
X232241Y989782D01*
X232182Y989677D01*
X232127Y989570D01*
X232076Y989461D01*
X232028Y989351D01*
X231984Y989239D01*
X231944Y989126D01*
X231907Y989012D01*
X231874Y988897D01*
X231845Y988780D01*
X231819Y988663D01*
X231798Y988545D01*
X231780Y988426D01*
X231767Y988307D01*
X231757Y988187D01*
X231751Y988067D01*
X231749Y987947D01*
X231751Y987827D01*
X231757Y987707D01*
X231767Y987587D01*
X231780Y987468D01*
X231798Y987349D01*
X231819Y987231D01*
X231845Y987114D01*
X231874Y986997D01*
X231907Y986882D01*
X231944Y986768D01*
X231984Y986655D01*
X232028Y986543D01*
X232076Y986433D01*
X232127Y986324D01*
X232182Y986217D01*
X232241Y986113D01*
X232302Y986010D01*
X232367Y985909D01*
X232436Y985810D01*
X232507Y985713D01*
X232582Y985619D01*
X232659Y985528D01*
X232740Y985439D01*
X232824Y985353D01*
X232910Y985269D01*
X232999Y985188D01*
X233090Y985111D01*
X233184Y985036D01*
X233281Y984965D01*
X233380Y984896D01*
X233481Y984831D01*
X233584Y984770D01*
X233688Y984711D01*
X233795Y984656D01*
X233904Y984605D01*
X234014Y984557D01*
X234126Y984513D01*
X234239Y984473D01*
X234353Y984436D01*
X234468Y984403D01*
X234585Y984374D01*
X234702Y984348D01*
X234820Y984327D01*
X234939Y984309D01*
X235058Y984296D01*
X235178Y984286D01*
X235298Y984280D01*
X235418Y984278D01*
X239087Y984278D01*
X223991Y978408D02*
X221056Y978408D01*
X223991Y978408D02*
X224098Y978410D01*
X224205Y978416D01*
X224312Y978426D01*
X224418Y978439D01*
X224524Y978457D01*
X224629Y978478D01*
X224733Y978503D01*
X224837Y978532D01*
X224939Y978565D01*
X225039Y978602D01*
X225139Y978642D01*
X225237Y978686D01*
X225333Y978733D01*
X225427Y978784D01*
X225520Y978838D01*
X225610Y978895D01*
X225699Y978956D01*
X225785Y979020D01*
X225868Y979087D01*
X225950Y979157D01*
X226028Y979230D01*
X226104Y979306D01*
X226177Y979384D01*
X226247Y979466D01*
X226314Y979549D01*
X226378Y979635D01*
X226439Y979724D01*
X226496Y979814D01*
X226550Y979907D01*
X226601Y980001D01*
X226649Y980097D01*
X226692Y980195D01*
X226732Y980295D01*
X226769Y980395D01*
X226802Y980497D01*
X226831Y980601D01*
X226856Y980705D01*
X226877Y980810D01*
X226895Y980916D01*
X226908Y981022D01*
X226918Y981129D01*
X226924Y981236D01*
X226926Y981343D01*
X226926Y988681D01*
X226924Y988788D01*
X226918Y988895D01*
X226908Y989002D01*
X226895Y989108D01*
X226877Y989214D01*
X226856Y989319D01*
X226831Y989423D01*
X226802Y989527D01*
X226769Y989629D01*
X226732Y989729D01*
X226692Y989829D01*
X226648Y989927D01*
X226601Y990023D01*
X226550Y990117D01*
X226496Y990210D01*
X226439Y990300D01*
X226378Y990389D01*
X226314Y990475D01*
X226247Y990558D01*
X226177Y990640D01*
X226104Y990718D01*
X226028Y990794D01*
X225950Y990867D01*
X225868Y990937D01*
X225785Y991004D01*
X225699Y991068D01*
X225610Y991129D01*
X225520Y991186D01*
X225427Y991240D01*
X225333Y991291D01*
X225237Y991338D01*
X225139Y991382D01*
X225040Y991422D01*
X224939Y991459D01*
X224837Y991492D01*
X224733Y991521D01*
X224629Y991546D01*
X224524Y991567D01*
X224418Y991585D01*
X224312Y991598D01*
X224205Y991608D01*
X224098Y991614D01*
X223991Y991616D01*
X221056Y991616D01*
X215617Y985746D02*
X211948Y985746D01*
X211828Y985744D01*
X211708Y985738D01*
X211588Y985728D01*
X211469Y985715D01*
X211350Y985697D01*
X211232Y985676D01*
X211115Y985650D01*
X210998Y985621D01*
X210883Y985588D01*
X210769Y985551D01*
X210656Y985511D01*
X210544Y985467D01*
X210434Y985419D01*
X210325Y985368D01*
X210218Y985313D01*
X210114Y985254D01*
X210011Y985193D01*
X209910Y985128D01*
X209811Y985059D01*
X209714Y984988D01*
X209620Y984913D01*
X209529Y984836D01*
X209440Y984755D01*
X209354Y984671D01*
X209270Y984585D01*
X209189Y984496D01*
X209112Y984405D01*
X209037Y984311D01*
X208966Y984214D01*
X208897Y984115D01*
X208832Y984014D01*
X208771Y983912D01*
X208712Y983807D01*
X208657Y983700D01*
X208606Y983591D01*
X208558Y983481D01*
X208514Y983369D01*
X208474Y983256D01*
X208437Y983142D01*
X208404Y983027D01*
X208375Y982910D01*
X208349Y982793D01*
X208328Y982675D01*
X208310Y982556D01*
X208297Y982437D01*
X208287Y982317D01*
X208281Y982197D01*
X208279Y982077D01*
X208281Y981957D01*
X208287Y981837D01*
X208297Y981717D01*
X208310Y981598D01*
X208328Y981479D01*
X208349Y981361D01*
X208375Y981244D01*
X208404Y981127D01*
X208437Y981012D01*
X208474Y980898D01*
X208514Y980785D01*
X208558Y980673D01*
X208606Y980563D01*
X208657Y980454D01*
X208712Y980347D01*
X208771Y980243D01*
X208832Y980140D01*
X208897Y980039D01*
X208966Y979940D01*
X209037Y979843D01*
X209112Y979749D01*
X209189Y979658D01*
X209270Y979569D01*
X209354Y979483D01*
X209440Y979399D01*
X209529Y979318D01*
X209620Y979241D01*
X209714Y979166D01*
X209811Y979095D01*
X209910Y979026D01*
X210011Y978961D01*
X210114Y978900D01*
X210218Y978841D01*
X210325Y978786D01*
X210434Y978735D01*
X210544Y978687D01*
X210656Y978643D01*
X210769Y978603D01*
X210883Y978566D01*
X210998Y978533D01*
X211115Y978504D01*
X211232Y978478D01*
X211350Y978457D01*
X211469Y978439D01*
X211588Y978426D01*
X211708Y978416D01*
X211828Y978410D01*
X211948Y978408D01*
X215617Y978408D01*
X215617Y991616D01*
X211948Y991616D01*
X211841Y991614D01*
X211734Y991608D01*
X211627Y991598D01*
X211521Y991585D01*
X211415Y991567D01*
X211310Y991546D01*
X211206Y991521D01*
X211102Y991492D01*
X211000Y991459D01*
X210900Y991422D01*
X210800Y991382D01*
X210702Y991338D01*
X210606Y991291D01*
X210512Y991240D01*
X210419Y991186D01*
X210329Y991129D01*
X210240Y991068D01*
X210154Y991004D01*
X210071Y990937D01*
X209989Y990867D01*
X209911Y990794D01*
X209835Y990718D01*
X209762Y990640D01*
X209692Y990558D01*
X209625Y990475D01*
X209561Y990389D01*
X209500Y990300D01*
X209443Y990210D01*
X209389Y990117D01*
X209338Y990023D01*
X209291Y989927D01*
X209247Y989829D01*
X209207Y989729D01*
X209170Y989629D01*
X209137Y989527D01*
X209108Y989423D01*
X209083Y989319D01*
X209062Y989214D01*
X209044Y989108D01*
X209031Y989002D01*
X209021Y988895D01*
X209015Y988788D01*
X209013Y988681D01*
X209015Y988574D01*
X209021Y988467D01*
X209031Y988360D01*
X209044Y988254D01*
X209062Y988148D01*
X209083Y988043D01*
X209108Y987939D01*
X209137Y987835D01*
X209170Y987733D01*
X209207Y987633D01*
X209247Y987533D01*
X209291Y987435D01*
X209338Y987339D01*
X209389Y987245D01*
X209443Y987152D01*
X209500Y987062D01*
X209561Y986973D01*
X209625Y986887D01*
X209692Y986804D01*
X209762Y986722D01*
X209835Y986644D01*
X209911Y986568D01*
X209989Y986495D01*
X210071Y986425D01*
X210154Y986358D01*
X210240Y986294D01*
X210329Y986233D01*
X210419Y986176D01*
X210512Y986122D01*
X210606Y986071D01*
X210702Y986024D01*
X210800Y985980D01*
X210900Y985940D01*
X211000Y985903D01*
X211102Y985870D01*
X211206Y985841D01*
X211310Y985816D01*
X211415Y985795D01*
X211521Y985777D01*
X211627Y985764D01*
X211734Y985754D01*
X211841Y985748D01*
X211948Y985746D01*
D11*
X353568Y131628D02*
X353568Y129032D01*
X353568Y131628D02*
X350972Y131628D01*
X350972Y129032D01*
X353568Y129032D01*
D12*
X530200Y227700D02*
X571200Y227700D01*
D10*
X564271Y296291D02*
X591785Y294214D01*
X591892Y294203D01*
X591998Y294190D01*
X592103Y294172D01*
X592208Y294150D01*
X592312Y294125D01*
X592415Y294096D01*
X592517Y294063D01*
X592617Y294027D01*
X592716Y293986D01*
X592814Y293943D01*
X592910Y293896D01*
X593004Y293845D01*
X593097Y293791D01*
X593187Y293734D01*
X593275Y293673D01*
X593361Y293609D01*
X593444Y293542D01*
X593525Y293473D01*
X593604Y293400D01*
X593680Y293324D01*
X593753Y293246D01*
X593823Y293165D01*
X593890Y293082D01*
X593954Y292996D01*
X594015Y292909D01*
X594072Y292818D01*
X594127Y292726D01*
X594178Y292632D01*
X594225Y292536D01*
X594269Y292439D01*
X594310Y292340D01*
X594347Y292240D01*
X594380Y292138D01*
X594445Y291916D01*
X594505Y291692D01*
X594560Y291467D01*
X594609Y291240D01*
X594653Y291013D01*
X594692Y290784D01*
X594725Y290555D01*
X594752Y290324D01*
X594774Y290094D01*
X594791Y289862D01*
X594802Y289631D01*
X594807Y289399D01*
X594807Y289167D01*
X594802Y288935D01*
X594791Y288704D01*
X594774Y288472D01*
X594752Y288242D01*
X594725Y288011D01*
X594692Y287782D01*
X594653Y287553D01*
X594609Y287326D01*
X594560Y287099D01*
X594505Y286874D01*
X594445Y286650D01*
X594380Y286428D01*
X594380Y286427D02*
X594347Y286325D01*
X594310Y286225D01*
X594269Y286126D01*
X594225Y286029D01*
X594178Y285933D01*
X594127Y285839D01*
X594072Y285747D01*
X594015Y285656D01*
X593954Y285569D01*
X593890Y285483D01*
X593823Y285400D01*
X593753Y285319D01*
X593680Y285241D01*
X593604Y285165D01*
X593525Y285092D01*
X593444Y285023D01*
X593361Y284956D01*
X593275Y284892D01*
X593187Y284831D01*
X593097Y284774D01*
X593004Y284720D01*
X592910Y284669D01*
X592814Y284622D01*
X592716Y284579D01*
X592617Y284538D01*
X592517Y284502D01*
X592415Y284469D01*
X592312Y284440D01*
X592208Y284415D01*
X592103Y284393D01*
X591998Y284375D01*
X591892Y284362D01*
X591785Y284351D01*
X564271Y281755D01*
X564271Y283832D01*
X588151Y286427D01*
X588151Y291619D01*
X564271Y294214D01*
X564271Y296291D01*
X551292Y277083D02*
X591784Y279159D01*
X551292Y277083D02*
X551200Y277076D01*
X551109Y277065D01*
X551018Y277051D01*
X550928Y277032D01*
X550839Y277010D01*
X550751Y276984D01*
X550664Y276955D01*
X550578Y276922D01*
X550494Y276885D01*
X550412Y276845D01*
X550331Y276802D01*
X550252Y276755D01*
X550175Y276705D01*
X550100Y276652D01*
X550027Y276595D01*
X549957Y276536D01*
X549890Y276474D01*
X549825Y276409D01*
X549762Y276341D01*
X549703Y276271D01*
X549647Y276198D01*
X549594Y276124D01*
X549544Y276046D01*
X549497Y275967D01*
X549453Y275887D01*
X549413Y275804D01*
X549377Y275720D01*
X549344Y275634D01*
X549314Y275547D01*
X549289Y275459D01*
X549267Y275369D01*
X549248Y275279D01*
X549234Y275189D01*
X549223Y275098D01*
X549216Y275006D01*
X591785Y279159D02*
X591873Y279157D01*
X591961Y279152D01*
X592049Y279142D01*
X592136Y279129D01*
X592222Y279112D01*
X592308Y279092D01*
X592393Y279068D01*
X592477Y279040D01*
X592559Y279009D01*
X592640Y278975D01*
X592720Y278937D01*
X592797Y278895D01*
X592873Y278851D01*
X592948Y278803D01*
X593019Y278752D01*
X593089Y278698D01*
X593157Y278641D01*
X593221Y278582D01*
X593284Y278519D01*
X593343Y278455D01*
X593400Y278387D01*
X593454Y278317D01*
X593505Y278246D01*
X593553Y278171D01*
X593597Y278095D01*
X593639Y278018D01*
X593677Y277938D01*
X593711Y277857D01*
X593742Y277775D01*
X593770Y277691D01*
X593794Y277606D01*
X593814Y277520D01*
X593831Y277434D01*
X593844Y277347D01*
X593854Y277259D01*
X593859Y277171D01*
X593861Y277083D01*
X593861Y277082D02*
X593859Y276994D01*
X593854Y276906D01*
X593844Y276818D01*
X593831Y276731D01*
X593814Y276645D01*
X593794Y276559D01*
X593770Y276474D01*
X593742Y276390D01*
X593711Y276308D01*
X593677Y276227D01*
X593639Y276147D01*
X593597Y276070D01*
X593553Y275994D01*
X593505Y275919D01*
X593454Y275848D01*
X593400Y275778D01*
X593343Y275710D01*
X593284Y275646D01*
X593221Y275583D01*
X593157Y275524D01*
X593089Y275467D01*
X593019Y275413D01*
X592948Y275362D01*
X592873Y275314D01*
X592797Y275270D01*
X592720Y275228D01*
X592640Y275190D01*
X592559Y275156D01*
X592477Y275125D01*
X592393Y275097D01*
X592308Y275073D01*
X592222Y275053D01*
X592136Y275036D01*
X592049Y275023D01*
X591961Y275013D01*
X591873Y275008D01*
X591785Y275006D01*
X557522Y272930D01*
X564271Y237111D02*
X591785Y239188D01*
X591892Y239199D01*
X591998Y239212D01*
X592103Y239230D01*
X592208Y239252D01*
X592312Y239277D01*
X592415Y239306D01*
X592517Y239339D01*
X592617Y239375D01*
X592716Y239416D01*
X592814Y239459D01*
X592910Y239506D01*
X593004Y239557D01*
X593097Y239611D01*
X593187Y239668D01*
X593275Y239729D01*
X593361Y239793D01*
X593444Y239860D01*
X593525Y239929D01*
X593604Y240002D01*
X593680Y240078D01*
X593753Y240156D01*
X593823Y240237D01*
X593890Y240320D01*
X593954Y240406D01*
X594015Y240493D01*
X594072Y240584D01*
X594127Y240676D01*
X594178Y240770D01*
X594225Y240866D01*
X594269Y240963D01*
X594310Y241062D01*
X594347Y241162D01*
X594380Y241264D01*
X594380Y241265D02*
X594445Y241487D01*
X594505Y241711D01*
X594560Y241936D01*
X594609Y242163D01*
X594653Y242390D01*
X594692Y242619D01*
X594725Y242848D01*
X594752Y243079D01*
X594774Y243309D01*
X594791Y243541D01*
X594802Y243772D01*
X594807Y244004D01*
X594807Y244236D01*
X594802Y244468D01*
X594791Y244699D01*
X594774Y244931D01*
X594752Y245161D01*
X594725Y245392D01*
X594692Y245621D01*
X594653Y245850D01*
X594609Y246077D01*
X594560Y246304D01*
X594505Y246529D01*
X594445Y246753D01*
X594380Y246975D01*
X594347Y247077D01*
X594310Y247177D01*
X594269Y247276D01*
X594225Y247373D01*
X594178Y247469D01*
X594127Y247563D01*
X594072Y247655D01*
X594015Y247746D01*
X593954Y247833D01*
X593890Y247919D01*
X593823Y248002D01*
X593753Y248083D01*
X593680Y248161D01*
X593604Y248237D01*
X593525Y248310D01*
X593444Y248379D01*
X593361Y248446D01*
X593275Y248510D01*
X593187Y248571D01*
X593097Y248628D01*
X593004Y248682D01*
X592910Y248733D01*
X592814Y248780D01*
X592716Y248823D01*
X592617Y248864D01*
X592517Y248900D01*
X592415Y248933D01*
X592312Y248962D01*
X592208Y248987D01*
X592103Y249009D01*
X591998Y249027D01*
X591892Y249040D01*
X591785Y249051D01*
X564271Y251647D01*
X564271Y249570D01*
X588151Y246975D01*
X588151Y241783D01*
X564271Y239188D01*
X564271Y237111D01*
X551292Y256319D02*
X591784Y254243D01*
X551292Y256319D02*
X551200Y256326D01*
X551109Y256337D01*
X551019Y256352D01*
X550929Y256370D01*
X550839Y256392D01*
X550751Y256418D01*
X550664Y256447D01*
X550579Y256480D01*
X550494Y256517D01*
X550412Y256557D01*
X550331Y256601D01*
X550252Y256647D01*
X550175Y256697D01*
X550100Y256751D01*
X550027Y256807D01*
X549957Y256866D01*
X549890Y256929D01*
X549825Y256994D01*
X549763Y257061D01*
X549703Y257131D01*
X549647Y257204D01*
X549594Y257279D01*
X549544Y257356D01*
X549497Y257435D01*
X549454Y257516D01*
X549414Y257598D01*
X549377Y257683D01*
X549344Y257768D01*
X549315Y257855D01*
X549289Y257943D01*
X549267Y258033D01*
X549248Y258123D01*
X549234Y258213D01*
X549223Y258304D01*
X549216Y258396D01*
X549216Y275007D01*
X591785Y254243D02*
X591873Y254245D01*
X591961Y254250D01*
X592049Y254260D01*
X592136Y254273D01*
X592222Y254290D01*
X592308Y254310D01*
X592393Y254334D01*
X592477Y254362D01*
X592559Y254393D01*
X592640Y254427D01*
X592720Y254465D01*
X592797Y254507D01*
X592873Y254551D01*
X592948Y254599D01*
X593019Y254650D01*
X593089Y254704D01*
X593157Y254761D01*
X593221Y254820D01*
X593284Y254883D01*
X593343Y254947D01*
X593400Y255015D01*
X593454Y255085D01*
X593505Y255156D01*
X593553Y255231D01*
X593597Y255307D01*
X593639Y255384D01*
X593677Y255464D01*
X593711Y255545D01*
X593742Y255627D01*
X593770Y255711D01*
X593794Y255796D01*
X593814Y255882D01*
X593831Y255968D01*
X593844Y256055D01*
X593854Y256143D01*
X593859Y256231D01*
X593861Y256319D01*
X593861Y256320D02*
X593859Y256408D01*
X593854Y256496D01*
X593844Y256584D01*
X593831Y256671D01*
X593814Y256757D01*
X593794Y256843D01*
X593770Y256928D01*
X593742Y257012D01*
X593711Y257094D01*
X593677Y257175D01*
X593639Y257255D01*
X593597Y257332D01*
X593553Y257408D01*
X593505Y257483D01*
X593454Y257554D01*
X593400Y257624D01*
X593343Y257692D01*
X593284Y257756D01*
X593221Y257819D01*
X593157Y257878D01*
X593089Y257935D01*
X593019Y257989D01*
X592948Y258040D01*
X592873Y258088D01*
X592797Y258132D01*
X592720Y258174D01*
X592640Y258212D01*
X592559Y258246D01*
X592477Y258277D01*
X592393Y258305D01*
X592308Y258329D01*
X592222Y258349D01*
X592136Y258366D01*
X592049Y258379D01*
X591961Y258389D01*
X591873Y258394D01*
X591785Y258396D01*
X557522Y260472D01*
X557522Y272932D01*
X516206Y227900D02*
X516206Y216400D01*
X529992Y216400D02*
X529992Y227900D01*
D12*
X512800Y227700D02*
X512800Y305700D01*
D10*
X519800Y216200D02*
X519802Y216308D01*
X519808Y216416D01*
X519818Y216524D01*
X519831Y216632D01*
X519849Y216739D01*
X519870Y216845D01*
X519895Y216950D01*
X519924Y217055D01*
X519957Y217158D01*
X519993Y217260D01*
X520034Y217361D01*
X520077Y217460D01*
X520125Y217557D01*
X520175Y217653D01*
X520229Y217747D01*
X520287Y217838D01*
X520348Y217928D01*
X520412Y218016D01*
X520479Y218101D01*
X520549Y218183D01*
X520622Y218263D01*
X520698Y218340D01*
X520777Y218415D01*
X520858Y218486D01*
X520942Y218555D01*
X521028Y218621D01*
X521116Y218683D01*
X521207Y218742D01*
X521300Y218798D01*
X521395Y218851D01*
X521491Y218900D01*
X521590Y218945D01*
X521690Y218987D01*
X521791Y219025D01*
X521894Y219060D01*
X521997Y219091D01*
X522102Y219118D01*
X522208Y219141D01*
X522315Y219160D01*
X522422Y219176D01*
X522530Y219188D01*
X522638Y219196D01*
X522746Y219200D01*
X522854Y219200D01*
X522962Y219196D01*
X523070Y219188D01*
X523178Y219176D01*
X523285Y219160D01*
X523392Y219141D01*
X523498Y219118D01*
X523603Y219091D01*
X523706Y219060D01*
X523809Y219025D01*
X523910Y218987D01*
X524010Y218945D01*
X524109Y218900D01*
X524205Y218851D01*
X524300Y218798D01*
X524393Y218742D01*
X524484Y218683D01*
X524572Y218621D01*
X524658Y218555D01*
X524742Y218486D01*
X524823Y218415D01*
X524902Y218340D01*
X524978Y218263D01*
X525051Y218183D01*
X525121Y218101D01*
X525188Y218016D01*
X525252Y217928D01*
X525313Y217838D01*
X525371Y217747D01*
X525425Y217653D01*
X525475Y217557D01*
X525523Y217460D01*
X525566Y217361D01*
X525607Y217260D01*
X525643Y217158D01*
X525676Y217055D01*
X525705Y216950D01*
X525730Y216845D01*
X525751Y216739D01*
X525769Y216632D01*
X525782Y216524D01*
X525792Y216416D01*
X525798Y216308D01*
X525800Y216200D01*
X519800Y216200D02*
X516300Y216200D01*
X525800Y216200D02*
X529800Y216200D01*
X571606Y216400D02*
X571606Y227900D01*
X585392Y227900D02*
X585392Y216400D01*
X581200Y216200D02*
X581198Y216308D01*
X581192Y216416D01*
X581182Y216524D01*
X581169Y216632D01*
X581151Y216739D01*
X581130Y216845D01*
X581105Y216950D01*
X581076Y217055D01*
X581043Y217158D01*
X581007Y217260D01*
X580966Y217361D01*
X580923Y217460D01*
X580875Y217557D01*
X580825Y217653D01*
X580771Y217747D01*
X580713Y217838D01*
X580652Y217928D01*
X580588Y218016D01*
X580521Y218101D01*
X580451Y218183D01*
X580378Y218263D01*
X580302Y218340D01*
X580223Y218415D01*
X580142Y218486D01*
X580058Y218555D01*
X579972Y218621D01*
X579884Y218683D01*
X579793Y218742D01*
X579700Y218798D01*
X579605Y218851D01*
X579509Y218900D01*
X579410Y218945D01*
X579310Y218987D01*
X579209Y219025D01*
X579106Y219060D01*
X579003Y219091D01*
X578898Y219118D01*
X578792Y219141D01*
X578685Y219160D01*
X578578Y219176D01*
X578470Y219188D01*
X578362Y219196D01*
X578254Y219200D01*
X578146Y219200D01*
X578038Y219196D01*
X577930Y219188D01*
X577822Y219176D01*
X577715Y219160D01*
X577608Y219141D01*
X577502Y219118D01*
X577397Y219091D01*
X577294Y219060D01*
X577191Y219025D01*
X577090Y218987D01*
X576990Y218945D01*
X576891Y218900D01*
X576795Y218851D01*
X576700Y218798D01*
X576607Y218742D01*
X576516Y218683D01*
X576428Y218621D01*
X576342Y218555D01*
X576258Y218486D01*
X576177Y218415D01*
X576098Y218340D01*
X576022Y218263D01*
X575949Y218183D01*
X575879Y218101D01*
X575812Y218016D01*
X575748Y217928D01*
X575687Y217838D01*
X575629Y217747D01*
X575575Y217653D01*
X575525Y217557D01*
X575477Y217460D01*
X575434Y217361D01*
X575393Y217260D01*
X575357Y217158D01*
X575324Y217055D01*
X575295Y216950D01*
X575270Y216845D01*
X575249Y216739D01*
X575231Y216632D01*
X575218Y216524D01*
X575208Y216416D01*
X575202Y216308D01*
X575200Y216200D01*
X571700Y216200D01*
X581200Y216200D02*
X585200Y216200D01*
X530194Y305800D02*
X530194Y317300D01*
X516408Y317300D02*
X516408Y305800D01*
X520600Y317500D02*
X520602Y317392D01*
X520608Y317284D01*
X520618Y317176D01*
X520631Y317068D01*
X520649Y316961D01*
X520670Y316855D01*
X520695Y316750D01*
X520724Y316645D01*
X520757Y316542D01*
X520793Y316440D01*
X520834Y316339D01*
X520877Y316240D01*
X520925Y316143D01*
X520975Y316047D01*
X521029Y315953D01*
X521087Y315862D01*
X521148Y315772D01*
X521212Y315684D01*
X521279Y315599D01*
X521349Y315517D01*
X521422Y315437D01*
X521498Y315360D01*
X521577Y315285D01*
X521658Y315214D01*
X521742Y315145D01*
X521828Y315079D01*
X521916Y315017D01*
X522007Y314958D01*
X522100Y314902D01*
X522195Y314849D01*
X522291Y314800D01*
X522390Y314755D01*
X522490Y314713D01*
X522591Y314675D01*
X522694Y314640D01*
X522797Y314609D01*
X522902Y314582D01*
X523008Y314559D01*
X523115Y314540D01*
X523222Y314524D01*
X523330Y314512D01*
X523438Y314504D01*
X523546Y314500D01*
X523654Y314500D01*
X523762Y314504D01*
X523870Y314512D01*
X523978Y314524D01*
X524085Y314540D01*
X524192Y314559D01*
X524298Y314582D01*
X524403Y314609D01*
X524506Y314640D01*
X524609Y314675D01*
X524710Y314713D01*
X524810Y314755D01*
X524909Y314800D01*
X525005Y314849D01*
X525100Y314902D01*
X525193Y314958D01*
X525284Y315017D01*
X525372Y315079D01*
X525458Y315145D01*
X525542Y315214D01*
X525623Y315285D01*
X525702Y315360D01*
X525778Y315437D01*
X525851Y315517D01*
X525921Y315599D01*
X525988Y315684D01*
X526052Y315772D01*
X526113Y315862D01*
X526171Y315953D01*
X526225Y316047D01*
X526275Y316143D01*
X526323Y316240D01*
X526366Y316339D01*
X526407Y316440D01*
X526443Y316542D01*
X526476Y316645D01*
X526505Y316750D01*
X526530Y316855D01*
X526551Y316961D01*
X526569Y317068D01*
X526582Y317176D01*
X526592Y317284D01*
X526598Y317392D01*
X526600Y317500D01*
X530100Y317500D01*
X520600Y317500D02*
X516600Y317500D01*
X585594Y317300D02*
X585594Y305800D01*
X571808Y305800D02*
X571808Y317300D01*
X576000Y317500D02*
X576002Y317392D01*
X576008Y317284D01*
X576018Y317176D01*
X576031Y317068D01*
X576049Y316961D01*
X576070Y316855D01*
X576095Y316750D01*
X576124Y316645D01*
X576157Y316542D01*
X576193Y316440D01*
X576234Y316339D01*
X576277Y316240D01*
X576325Y316143D01*
X576375Y316047D01*
X576429Y315953D01*
X576487Y315862D01*
X576548Y315772D01*
X576612Y315684D01*
X576679Y315599D01*
X576749Y315517D01*
X576822Y315437D01*
X576898Y315360D01*
X576977Y315285D01*
X577058Y315214D01*
X577142Y315145D01*
X577228Y315079D01*
X577316Y315017D01*
X577407Y314958D01*
X577500Y314902D01*
X577595Y314849D01*
X577691Y314800D01*
X577790Y314755D01*
X577890Y314713D01*
X577991Y314675D01*
X578094Y314640D01*
X578197Y314609D01*
X578302Y314582D01*
X578408Y314559D01*
X578515Y314540D01*
X578622Y314524D01*
X578730Y314512D01*
X578838Y314504D01*
X578946Y314500D01*
X579054Y314500D01*
X579162Y314504D01*
X579270Y314512D01*
X579378Y314524D01*
X579485Y314540D01*
X579592Y314559D01*
X579698Y314582D01*
X579803Y314609D01*
X579906Y314640D01*
X580009Y314675D01*
X580110Y314713D01*
X580210Y314755D01*
X580309Y314800D01*
X580405Y314849D01*
X580500Y314902D01*
X580593Y314958D01*
X580684Y315017D01*
X580772Y315079D01*
X580858Y315145D01*
X580942Y315214D01*
X581023Y315285D01*
X581102Y315360D01*
X581178Y315437D01*
X581251Y315517D01*
X581321Y315599D01*
X581388Y315684D01*
X581452Y315772D01*
X581513Y315862D01*
X581571Y315953D01*
X581625Y316047D01*
X581675Y316143D01*
X581723Y316240D01*
X581766Y316339D01*
X581807Y316440D01*
X581843Y316542D01*
X581876Y316645D01*
X581905Y316750D01*
X581930Y316855D01*
X581951Y316961D01*
X581969Y317068D01*
X581982Y317176D01*
X581992Y317284D01*
X581998Y317392D01*
X582000Y317500D01*
X585500Y317500D01*
X576000Y317500D02*
X572000Y317500D01*
D12*
X571700Y305700D02*
X530700Y305700D01*
X604800Y305700D02*
X604800Y227700D01*
D10*
X521300Y294200D02*
X513800Y294200D01*
X521300Y294200D02*
X521300Y239200D01*
X513800Y239200D01*
X523800Y289200D02*
X531300Y289200D01*
X531300Y296700D01*
X523800Y296700D01*
X523800Y289200D01*
X523800Y244200D02*
X523800Y236700D01*
X523800Y244200D02*
X531300Y244200D01*
X531300Y236700D01*
X523800Y236700D01*
D12*
X537800Y305700D02*
X564800Y305700D01*
X564800Y227700D02*
X537800Y227700D01*
X512800Y287700D02*
X512800Y298700D01*
X512800Y245700D02*
X512800Y234700D01*
X585800Y305700D02*
X604800Y305700D01*
X604800Y227700D02*
X585800Y227700D01*
X516300Y305700D02*
X512800Y305700D01*
X512800Y227700D02*
X515800Y227700D01*
M02*
