G04 EAGLE Gerber RS-274X export*
G75*
%MOMM*%
%FSLAX34Y34*%
%LPD*%
%INSoldermask Top*%
%IPPOS*%
%AMOC8*
5,1,8,0,0,1.08239X$1,22.5*%
G01*
%ADD10R,1.303200X2.203200*%
%ADD11R,1.203200X1.303200*%
%ADD12R,1.803200X2.503200*%
%ADD13R,2.503200X1.803200*%
%ADD14R,1.203200X0.803200*%
%ADD15R,1.103200X0.903200*%
%ADD16R,1.303200X1.203200*%
%ADD17C,0.352238*%
%ADD18R,3.403200X3.403200*%
%ADD19R,0.500000X0.800000*%
%ADD20R,1.600000X0.400000*%
%ADD21R,2.803200X2.603200*%
%ADD22C,1.203200*%
%ADD23C,0.959600*%
%ADD24C,1.059600*%


D10*
X71900Y322900D03*
X105900Y322900D03*
X105900Y362900D03*
X71900Y362900D03*
D11*
X127000Y334400D03*
X127000Y351400D03*
D10*
X173500Y322900D03*
X207500Y322900D03*
X207500Y362900D03*
X173500Y362900D03*
D11*
X228600Y334400D03*
X228600Y351400D03*
D10*
X275100Y322900D03*
X309100Y322900D03*
X309100Y362900D03*
X275100Y362900D03*
D11*
X330200Y334400D03*
X330200Y351400D03*
D10*
X376700Y322900D03*
X410700Y322900D03*
X410700Y362900D03*
X376700Y362900D03*
D11*
X431800Y334400D03*
X431800Y351400D03*
D10*
X71900Y424500D03*
X105900Y424500D03*
X105900Y464500D03*
X71900Y464500D03*
D11*
X127000Y436000D03*
X127000Y453000D03*
D10*
X173500Y424500D03*
X207500Y424500D03*
X207500Y464500D03*
X173500Y464500D03*
D11*
X228600Y436000D03*
X228600Y453000D03*
D10*
X275100Y424500D03*
X309100Y424500D03*
X309100Y464500D03*
X275100Y464500D03*
D11*
X330200Y436000D03*
X330200Y453000D03*
D10*
X376700Y424500D03*
X410700Y424500D03*
X410700Y464500D03*
X376700Y464500D03*
D11*
X431800Y436000D03*
X431800Y453000D03*
D10*
X71900Y526100D03*
X105900Y526100D03*
X105900Y566100D03*
X71900Y566100D03*
D11*
X127000Y537600D03*
X127000Y554600D03*
D10*
X173500Y526100D03*
X207500Y526100D03*
X207500Y566100D03*
X173500Y566100D03*
D11*
X228600Y537600D03*
X228600Y554600D03*
D10*
X275100Y526100D03*
X309100Y526100D03*
X309100Y566100D03*
X275100Y566100D03*
D11*
X330200Y537600D03*
X330200Y554600D03*
D10*
X376700Y526100D03*
X410700Y526100D03*
X410700Y566100D03*
X376700Y566100D03*
D11*
X431800Y537600D03*
X431800Y554600D03*
D10*
X71900Y627700D03*
X105900Y627700D03*
X105900Y667700D03*
X71900Y667700D03*
D11*
X127000Y639200D03*
X127000Y656200D03*
D10*
X173500Y627700D03*
X207500Y627700D03*
X207500Y667700D03*
X173500Y667700D03*
D11*
X228600Y639200D03*
X228600Y656200D03*
D10*
X275100Y627700D03*
X309100Y627700D03*
X309100Y667700D03*
X275100Y667700D03*
D11*
X330200Y639200D03*
X330200Y656200D03*
D10*
X376700Y627700D03*
X410700Y627700D03*
X410700Y667700D03*
X376700Y667700D03*
D11*
X431800Y639200D03*
X431800Y656200D03*
D12*
X88900Y82800D03*
X88900Y145800D03*
D10*
X71900Y195900D03*
X105900Y195900D03*
X105900Y235900D03*
X71900Y235900D03*
D11*
X127000Y207400D03*
X127000Y224400D03*
D10*
X173500Y195900D03*
X207500Y195900D03*
X207500Y235900D03*
X173500Y235900D03*
D11*
X228600Y207400D03*
X228600Y224400D03*
D10*
X275100Y195900D03*
X309100Y195900D03*
X309100Y235900D03*
X275100Y235900D03*
D11*
X330200Y207400D03*
X330200Y224400D03*
D10*
X376700Y195900D03*
X410700Y195900D03*
X410700Y235900D03*
X376700Y235900D03*
D11*
X431800Y207400D03*
X431800Y224400D03*
D12*
X190500Y82800D03*
X190500Y145800D03*
X292100Y82800D03*
X292100Y145800D03*
X393700Y82800D03*
X393700Y145800D03*
D13*
X476500Y88900D03*
X539500Y88900D03*
D10*
X71900Y729300D03*
X105900Y729300D03*
X105900Y769300D03*
X71900Y769300D03*
D11*
X127000Y740800D03*
X127000Y757800D03*
D10*
X173500Y729300D03*
X207500Y729300D03*
X207500Y769300D03*
X173500Y769300D03*
D11*
X228600Y740800D03*
X228600Y757800D03*
D10*
X275100Y729300D03*
X309100Y729300D03*
X309100Y769300D03*
X275100Y769300D03*
D11*
X330200Y740800D03*
X330200Y757800D03*
D10*
X376700Y729300D03*
X410700Y729300D03*
X410700Y769300D03*
X376700Y769300D03*
D11*
X431800Y740800D03*
X431800Y757800D03*
D10*
X71900Y830900D03*
X105900Y830900D03*
X105900Y870900D03*
X71900Y870900D03*
D11*
X127000Y842400D03*
X127000Y859400D03*
D10*
X173500Y830900D03*
X207500Y830900D03*
X207500Y870900D03*
X173500Y870900D03*
D11*
X228600Y842400D03*
X228600Y859400D03*
D10*
X275100Y830900D03*
X309100Y830900D03*
X309100Y870900D03*
X275100Y870900D03*
D11*
X330200Y842400D03*
X330200Y859400D03*
D10*
X376700Y830900D03*
X410700Y830900D03*
X410700Y870900D03*
X376700Y870900D03*
D11*
X431800Y842400D03*
X431800Y859400D03*
D10*
X71900Y932500D03*
X105900Y932500D03*
X105900Y972500D03*
X71900Y972500D03*
D11*
X127000Y944000D03*
X127000Y961000D03*
D10*
X173500Y932500D03*
X207500Y932500D03*
X207500Y972500D03*
X173500Y972500D03*
D11*
X228600Y944000D03*
X228600Y961000D03*
D10*
X275100Y932500D03*
X309100Y932500D03*
X309100Y972500D03*
X275100Y972500D03*
D11*
X330200Y944000D03*
X330200Y961000D03*
D10*
X376700Y932500D03*
X410700Y932500D03*
X410700Y972500D03*
X376700Y972500D03*
D11*
X431800Y944000D03*
X431800Y961000D03*
D14*
X493150Y323000D03*
X493150Y336000D03*
X473650Y336000D03*
X473650Y323000D03*
X543950Y323000D03*
X543950Y336000D03*
X524450Y336000D03*
X524450Y323000D03*
X493150Y354750D03*
X493150Y367750D03*
X473650Y367750D03*
X473650Y354750D03*
X543950Y354750D03*
X543950Y367750D03*
X524450Y367750D03*
X524450Y354750D03*
D15*
X508000Y355450D03*
X508000Y368450D03*
X558800Y355450D03*
X558800Y368450D03*
X558800Y323700D03*
X558800Y336700D03*
X508000Y323700D03*
X508000Y336700D03*
D14*
X493150Y424600D03*
X493150Y437600D03*
X473650Y437600D03*
X473650Y424600D03*
X543950Y424600D03*
X543950Y437600D03*
X524450Y437600D03*
X524450Y424600D03*
X493150Y456350D03*
X493150Y469350D03*
X473650Y469350D03*
X473650Y456350D03*
X543950Y456350D03*
X543950Y469350D03*
X524450Y469350D03*
X524450Y456350D03*
D15*
X508000Y457050D03*
X508000Y470050D03*
X558800Y457050D03*
X558800Y470050D03*
X558800Y425300D03*
X558800Y438300D03*
X508000Y425300D03*
X508000Y438300D03*
D14*
X493150Y526200D03*
X493150Y539200D03*
X473650Y539200D03*
X473650Y526200D03*
X543950Y526200D03*
X543950Y539200D03*
X524450Y539200D03*
X524450Y526200D03*
X493150Y557950D03*
X493150Y570950D03*
X473650Y570950D03*
X473650Y557950D03*
X543950Y557950D03*
X543950Y570950D03*
X524450Y570950D03*
X524450Y557950D03*
D15*
X508000Y558650D03*
X508000Y571650D03*
X558800Y558650D03*
X558800Y571650D03*
X558800Y526900D03*
X558800Y539900D03*
X508000Y526900D03*
X508000Y539900D03*
D14*
X493150Y627800D03*
X493150Y640800D03*
X473650Y640800D03*
X473650Y627800D03*
X543950Y627800D03*
X543950Y640800D03*
X524450Y640800D03*
X524450Y627800D03*
X493150Y659550D03*
X493150Y672550D03*
X473650Y672550D03*
X473650Y659550D03*
X543950Y659550D03*
X543950Y672550D03*
X524450Y672550D03*
X524450Y659550D03*
D15*
X508000Y660250D03*
X508000Y673250D03*
X558800Y660250D03*
X558800Y673250D03*
X558800Y628500D03*
X558800Y641500D03*
X508000Y628500D03*
X508000Y641500D03*
D14*
X493150Y729400D03*
X493150Y742400D03*
X473650Y742400D03*
X473650Y729400D03*
X543950Y729400D03*
X543950Y742400D03*
X524450Y742400D03*
X524450Y729400D03*
X493150Y761150D03*
X493150Y774150D03*
X473650Y774150D03*
X473650Y761150D03*
X543950Y761150D03*
X543950Y774150D03*
X524450Y774150D03*
X524450Y761150D03*
D15*
X508000Y761850D03*
X508000Y774850D03*
X558800Y761850D03*
X558800Y774850D03*
X558800Y730100D03*
X558800Y743100D03*
X508000Y730100D03*
X508000Y743100D03*
D14*
X493150Y831000D03*
X493150Y844000D03*
X473650Y844000D03*
X473650Y831000D03*
X543950Y831000D03*
X543950Y844000D03*
X524450Y844000D03*
X524450Y831000D03*
X493150Y862750D03*
X493150Y875750D03*
X473650Y875750D03*
X473650Y862750D03*
X543950Y862750D03*
X543950Y875750D03*
X524450Y875750D03*
X524450Y862750D03*
D15*
X508000Y863450D03*
X508000Y876450D03*
X558800Y863450D03*
X558800Y876450D03*
X558800Y831700D03*
X558800Y844700D03*
X508000Y831700D03*
X508000Y844700D03*
D14*
X493150Y932600D03*
X493150Y945600D03*
X473650Y945600D03*
X473650Y932600D03*
X543950Y932600D03*
X543950Y945600D03*
X524450Y945600D03*
X524450Y932600D03*
X493150Y964350D03*
X493150Y977350D03*
X473650Y977350D03*
X473650Y964350D03*
X543950Y964350D03*
X543950Y977350D03*
X524450Y977350D03*
X524450Y964350D03*
D15*
X508000Y965050D03*
X508000Y978050D03*
X558800Y965050D03*
X558800Y978050D03*
X558800Y933300D03*
X558800Y946300D03*
X508000Y933300D03*
X508000Y946300D03*
D16*
X127000Y80400D03*
X127000Y97400D03*
X228600Y80400D03*
X228600Y97400D03*
X330200Y80400D03*
X330200Y97400D03*
X431800Y80400D03*
X431800Y97400D03*
D11*
X497450Y120650D03*
X480450Y120650D03*
D17*
X488095Y188195D02*
X493605Y188195D01*
X488095Y188195D02*
X488095Y189705D01*
X493605Y189705D01*
X493605Y188195D01*
X493605Y183195D02*
X488095Y183195D01*
X488095Y184705D01*
X493605Y184705D01*
X493605Y183195D01*
X493605Y178195D02*
X488095Y178195D01*
X488095Y179705D01*
X493605Y179705D01*
X493605Y178195D01*
X493605Y173195D02*
X488095Y173195D01*
X488095Y174705D01*
X493605Y174705D01*
X493605Y173195D01*
X493605Y168195D02*
X488095Y168195D01*
X488095Y169705D01*
X493605Y169705D01*
X493605Y168195D01*
X493605Y163195D02*
X488095Y163195D01*
X488095Y164705D01*
X493605Y164705D01*
X493605Y163195D01*
X493605Y158195D02*
X488095Y158195D01*
X488095Y159705D01*
X493605Y159705D01*
X493605Y158195D01*
X493605Y153195D02*
X488095Y153195D01*
X488095Y154705D01*
X493605Y154705D01*
X493605Y153195D01*
X496095Y145195D02*
X497605Y145195D01*
X496095Y145195D02*
X496095Y150705D01*
X497605Y150705D01*
X497605Y145195D01*
X497605Y148541D02*
X496095Y148541D01*
X501095Y145195D02*
X502605Y145195D01*
X501095Y145195D02*
X501095Y150705D01*
X502605Y150705D01*
X502605Y145195D01*
X502605Y148541D02*
X501095Y148541D01*
X506095Y145195D02*
X507605Y145195D01*
X506095Y145195D02*
X506095Y150705D01*
X507605Y150705D01*
X507605Y145195D01*
X507605Y148541D02*
X506095Y148541D01*
X511095Y145195D02*
X512605Y145195D01*
X511095Y145195D02*
X511095Y150705D01*
X512605Y150705D01*
X512605Y145195D01*
X512605Y148541D02*
X511095Y148541D01*
X516095Y145195D02*
X517605Y145195D01*
X516095Y145195D02*
X516095Y150705D01*
X517605Y150705D01*
X517605Y145195D01*
X517605Y148541D02*
X516095Y148541D01*
X521095Y145195D02*
X522605Y145195D01*
X521095Y145195D02*
X521095Y150705D01*
X522605Y150705D01*
X522605Y145195D01*
X522605Y148541D02*
X521095Y148541D01*
X526095Y145195D02*
X527605Y145195D01*
X526095Y145195D02*
X526095Y150705D01*
X527605Y150705D01*
X527605Y145195D01*
X527605Y148541D02*
X526095Y148541D01*
X531095Y145195D02*
X532605Y145195D01*
X531095Y145195D02*
X531095Y150705D01*
X532605Y150705D01*
X532605Y145195D01*
X532605Y148541D02*
X531095Y148541D01*
X535095Y153195D02*
X540605Y153195D01*
X535095Y153195D02*
X535095Y154705D01*
X540605Y154705D01*
X540605Y153195D01*
X540605Y158195D02*
X535095Y158195D01*
X535095Y159705D01*
X540605Y159705D01*
X540605Y158195D01*
X540605Y163195D02*
X535095Y163195D01*
X535095Y164705D01*
X540605Y164705D01*
X540605Y163195D01*
X540605Y168195D02*
X535095Y168195D01*
X535095Y169705D01*
X540605Y169705D01*
X540605Y168195D01*
X540605Y173195D02*
X535095Y173195D01*
X535095Y174705D01*
X540605Y174705D01*
X540605Y173195D01*
X540605Y178195D02*
X535095Y178195D01*
X535095Y179705D01*
X540605Y179705D01*
X540605Y178195D01*
X540605Y183195D02*
X535095Y183195D01*
X535095Y184705D01*
X540605Y184705D01*
X540605Y183195D01*
X540605Y188195D02*
X535095Y188195D01*
X535095Y189705D01*
X540605Y189705D01*
X540605Y188195D01*
X532605Y192195D02*
X531095Y192195D01*
X531095Y197705D01*
X532605Y197705D01*
X532605Y192195D01*
X532605Y195541D02*
X531095Y195541D01*
X527605Y192195D02*
X526095Y192195D01*
X526095Y197705D01*
X527605Y197705D01*
X527605Y192195D01*
X527605Y195541D02*
X526095Y195541D01*
X522605Y192195D02*
X521095Y192195D01*
X521095Y197705D01*
X522605Y197705D01*
X522605Y192195D01*
X522605Y195541D02*
X521095Y195541D01*
X517605Y192195D02*
X516095Y192195D01*
X516095Y197705D01*
X517605Y197705D01*
X517605Y192195D01*
X517605Y195541D02*
X516095Y195541D01*
X512605Y192195D02*
X511095Y192195D01*
X511095Y197705D01*
X512605Y197705D01*
X512605Y192195D01*
X512605Y195541D02*
X511095Y195541D01*
X507605Y192195D02*
X506095Y192195D01*
X506095Y197705D01*
X507605Y197705D01*
X507605Y192195D01*
X507605Y195541D02*
X506095Y195541D01*
X502605Y192195D02*
X501095Y192195D01*
X501095Y197705D01*
X502605Y197705D01*
X502605Y192195D01*
X502605Y195541D02*
X501095Y195541D01*
X497605Y192195D02*
X496095Y192195D01*
X496095Y197705D01*
X497605Y197705D01*
X497605Y192195D01*
X497605Y195541D02*
X496095Y195541D01*
D18*
X514350Y171450D03*
D19*
X434000Y152400D03*
X455000Y152400D03*
D20*
X444500Y152400D03*
D19*
X434000Y137400D03*
X455000Y137400D03*
D20*
X444500Y137400D03*
D19*
X434000Y167400D03*
X455000Y167400D03*
D20*
X444500Y167400D03*
D11*
X518550Y120650D03*
X535550Y120650D03*
D15*
X457200Y190350D03*
X457200Y203350D03*
D21*
X456950Y273050D03*
X520950Y273050D03*
D11*
X480450Y222250D03*
X497450Y222250D03*
X524900Y222250D03*
X541900Y222250D03*
D22*
X548800Y288700D03*
X548800Y244700D03*
D23*
X442913Y188913D03*
X463550Y157163D03*
X468313Y225425D03*
X469900Y125413D03*
X533400Y444500D03*
X534988Y546100D03*
X534988Y647700D03*
X534988Y749300D03*
X534988Y850900D03*
X533400Y952500D03*
X525463Y344488D03*
D24*
X495300Y292100D03*
D23*
X508000Y122238D03*
X501650Y204788D03*
X569913Y327025D03*
X566738Y346075D03*
X558800Y517525D03*
X558800Y720725D03*
X566738Y504825D03*
X565150Y415925D03*
X557213Y619125D03*
X557213Y708025D03*
X558800Y854075D03*
X557213Y822325D03*
X549275Y158750D03*
D24*
X431800Y279400D03*
D23*
X419100Y127000D03*
X236538Y322263D03*
X263525Y355600D03*
X322263Y323850D03*
X360363Y361950D03*
X103188Y446088D03*
X398463Y315913D03*
X220663Y425450D03*
X258763Y463550D03*
X322263Y425450D03*
X360363Y463550D03*
X236538Y525463D03*
X263525Y558800D03*
X322263Y527050D03*
X360363Y565150D03*
X103188Y649288D03*
X398463Y519113D03*
X220663Y628650D03*
X258763Y666750D03*
X322263Y628650D03*
X360363Y666750D03*
X220663Y196850D03*
X258763Y234950D03*
X322263Y196850D03*
X360363Y234950D03*
X236538Y728663D03*
X263525Y762000D03*
X322263Y730250D03*
X360363Y768350D03*
X103188Y852488D03*
X398463Y722313D03*
X220663Y831850D03*
X258763Y869950D03*
X322263Y831850D03*
X360363Y869950D03*
X220663Y933450D03*
X258763Y971550D03*
X322263Y933450D03*
X360363Y971550D03*
X463550Y330200D03*
X482600Y309563D03*
X541338Y312738D03*
X541338Y346075D03*
X461963Y436563D03*
X474663Y477838D03*
X463550Y533400D03*
X517525Y517525D03*
X457200Y639763D03*
X457200Y674688D03*
X463550Y736600D03*
X517525Y720725D03*
X457200Y842963D03*
X457200Y877888D03*
X461963Y944563D03*
X542925Y955675D03*
X503238Y301625D03*
X484188Y476250D03*
X527050Y517525D03*
X463550Y666750D03*
X527050Y720725D03*
X463550Y869950D03*
X461963Y144463D03*
X138113Y82550D03*
X357188Y106363D03*
X339725Y88900D03*
X549275Y114300D03*
X481013Y192088D03*
X477838Y211138D03*
X488950Y198438D03*
X493713Y233363D03*
X536575Y136525D03*
X523875Y136525D03*
X368300Y88900D03*
X368300Y76200D03*
X542925Y146050D03*
M02*
